<svg xmlns="http://www.w3.org/2000/svg" xmlns:xlink="http://www.w3.org/1999/xlink" width="1920" zoomAndPan="magnify" viewBox="0 0 1440 809.999993" height="1080" preserveAspectRatio="xMidYMid meet" version="1.0"><defs><clipPath id="4d8ca91253"><path d="M 455.011719 405 L 970.261719 405 L 970.261719 810 L 455.011719 810 Z M 455.011719 405 " clip-rule="nonzero"/></clipPath><clipPath id="c495fbcca5"><path d="M 350 42 L 569 42 L 569 336 L 350 336 Z M 350 42 " clip-rule="nonzero"/></clipPath><clipPath id="cb1194ba59"><path d="M 325.734375 65.199219 L 546.542969 5.457031 L 652.316406 396.398438 L 431.507812 456.140625 Z M 325.734375 65.199219 " clip-rule="nonzero"/></clipPath><clipPath id="90e609b538"><path d="M 325.734375 65.199219 L 546.542969 5.457031 L 652.316406 396.398438 L 431.507812 456.140625 Z M 325.734375 65.199219 " clip-rule="nonzero"/></clipPath><clipPath id="b481dce506"><path d="M 465 348 L 549 348 L 549 429 L 465 429 Z M 465 348 " clip-rule="nonzero"/></clipPath><clipPath id="df734d0fdf"><path d="M 325.734375 65.199219 L 546.542969 5.457031 L 652.316406 396.398438 L 431.507812 456.140625 Z M 325.734375 65.199219 " clip-rule="nonzero"/></clipPath><clipPath id="4c1a74fa77"><path d="M 325.734375 65.199219 L 546.542969 5.457031 L 652.316406 396.398438 L 431.507812 456.140625 Z M 325.734375 65.199219 " clip-rule="nonzero"/></clipPath><clipPath id="2ed0867ad1"><path d="M 862 36 L 1082 36 L 1082 314 L 862 314 Z M 862 36 " clip-rule="nonzero"/></clipPath><clipPath id="15ca279d6e"><path d="M 894.515625 3.402344 L 1114.195312 67.183594 L 1001.273438 456.121094 L 781.59375 392.34375 Z M 894.515625 3.402344 " clip-rule="nonzero"/></clipPath><clipPath id="72f0808c26"><path d="M 894.515625 3.402344 L 1114.195312 67.183594 L 1001.273438 456.121094 L 781.59375 392.34375 Z M 894.515625 3.402344 " clip-rule="nonzero"/></clipPath><clipPath id="f671a09c12"><path d="M 837 334 L 922 334 L 922 416 L 837 416 Z M 837 334 " clip-rule="nonzero"/></clipPath><clipPath id="3b546fabd9"><path d="M 894.515625 3.402344 L 1114.195312 67.183594 L 1001.273438 456.121094 L 781.59375 392.34375 Z M 894.515625 3.402344 " clip-rule="nonzero"/></clipPath><clipPath id="c44df00194"><path d="M 894.515625 3.402344 L 1114.195312 67.183594 L 1001.273438 456.121094 L 781.59375 392.34375 Z M 894.515625 3.402344 " clip-rule="nonzero"/></clipPath></defs><g clip-path="url(#4d8ca91253)"><path fill="#000000" d="M 841.484375 681.039062 L 841.484375 766.464844 C 841.484375 772.632812 838.390625 778.386719 833.253906 781.792969 C 833.253906 781.792969 792.128906 809.875 712.710938 809.875 C 633.289062 809.875 592.167969 781.792969 592.167969 781.792969 C 587.023438 778.386719 583.933594 772.632812 583.933594 766.464844 L 583.933594 681.039062 C 583.933594 630.304688 625.070312 589.183594 675.816406 589.183594 L 749.597656 589.183594 C 800.347656 589.183594 841.484375 630.304688 841.484375 681.039062 Z M 712.710938 405.269531 C 754.539062 405.269531 788.53125 434.347656 788.53125 481.238281 C 788.53125 507.59375 776.976562 533.953125 759.351562 550.851562 C 746.324219 563.351562 730.089844 570.789062 712.710938 570.789062 C 695.328125 570.789062 679.097656 563.351562 666.066406 550.851562 C 648.441406 533.953125 636.886719 507.59375 636.886719 481.238281 C 636.886719 434.347656 670.875 405.269531 712.710938 405.269531 Z M 869.078125 448.949219 C 902.984375 448.949219 930.546875 472.515625 930.546875 510.523438 C 930.546875 531.546875 921.304688 552.566406 907.242188 566.054688 C 896.59375 576.273438 883.289062 582.289062 869.078125 582.289062 C 854.871094 582.289062 841.566406 576.273438 830.914062 566.054688 C 816.855469 552.566406 807.613281 531.546875 807.613281 510.523438 C 807.613281 472.515625 835.167969 448.949219 869.078125 448.949219 Z M 556.339844 448.949219 C 590.246094 448.949219 617.800781 472.515625 617.800781 510.523438 C 617.800781 531.546875 608.566406 552.566406 594.503906 566.054688 C 583.847656 576.273438 570.546875 582.289062 556.339844 582.289062 C 542.128906 582.289062 528.828125 576.273438 518.171875 566.054688 C 504.109375 552.566406 494.875 531.546875 494.875 510.523438 C 494.875 472.515625 522.429688 448.949219 556.339844 448.949219 Z M 547.519531 772.941406 C 492.035156 771.003906 463.390625 751.269531 463.390625 751.269531 C 458.246094 747.859375 455.15625 742.105469 455.15625 735.9375 L 455.15625 690.234375 C 455.15625 639.503906 496.296875 598.375 547.039062 598.375 L 565.636719 598.375 C 569.371094 598.375 573.054688 598.601562 576.667969 599.035156 C 558.226562 621.296875 547.140625 649.871094 547.140625 681.039062 L 547.140625 766.464844 C 547.140625 768.644531 547.269531 770.804688 547.519531 772.941406 Z M 848.746094 599.035156 C 852.367188 598.601562 856.046875 598.375 859.785156 598.375 L 878.375 598.375 C 929.125 598.375 970.261719 639.503906 970.261719 690.234375 L 970.261719 735.9375 C 970.261719 742.105469 967.167969 747.859375 962.027344 751.269531 C 962.027344 751.269531 933.378906 771.003906 877.894531 772.941406 C 878.152344 770.804688 878.277344 768.644531 878.277344 766.464844 L 878.277344 681.039062 C 878.277344 649.871094 867.191406 621.296875 848.746094 599.035156 Z M 848.746094 599.035156 " fill-opacity="1" fill-rule="evenodd"/></g><g clip-path="url(#c495fbcca5)"><g clip-path="url(#cb1194ba59)"><g clip-path="url(#90e609b538)"><path fill="#913275" d="M 455.894531 328.011719 C 432.5 297.195312 421.339844 268.175781 439.1875 234.667969 C 451.355469 205.035156 493.875 167.289062 489.742188 135.144531 C 481.339844 69.097656 403.503906 107.96875 422.574219 152.332031 C 432.3125 174.941406 425.195312 187.21875 409.902344 200.136719 C 389.15625 217.710938 372.539062 221.921875 354.195312 163.113281 C 341.625 122.738281 362.53125 77.429688 400.285156 59.511719 C 444.617188 33.488281 524.707031 35.808594 554.5625 80.878906 C 576.40625 113.386719 571.605469 161.667969 544.488281 194.730469 C 502.15625 246.394531 481.578125 262.117188 493.777344 307.589844 C 499.597656 329.375 470.046875 346.628906 455.894531 328.011719 Z M 455.894531 328.011719 " fill-opacity="1" fill-rule="nonzero"/></g></g></g><g clip-path="url(#b481dce506)"><g clip-path="url(#df734d0fdf)"><g clip-path="url(#4c1a74fa77)"><path fill="#913275" d="M 541.941406 367.957031 C 547.890625 377.984375 550.617188 390.40625 547.03125 401.746094 C 539.304688 426.378906 514.179688 430.367188 492.746094 427.546875 C 474.546875 425.191406 462.496094 406.632812 465.464844 389.027344 C 469.027344 367.96875 481.023438 354.59375 497.628906 350.84375 C 519.832031 345.824219 531.375 350.117188 541.941406 367.957031 Z M 541.941406 367.957031 " fill-opacity="1" fill-rule="nonzero"/></g></g></g><path fill="#a7ddea" d="M 655.152344 287.683594 C 640.621094 251.828125 637.425781 220.902344 663.40625 193.21875 C 682.890625 167.792969 733.792969 142.460938 738.199219 110.351562 C 747.339844 44.40625 662.050781 61.597656 668.875 109.402344 C 672.367188 133.769531 662.289062 143.761719 644.15625 152.238281 C 619.539062 163.78125 602.398438 163.507812 600.050781 101.949219 C 598.460938 59.691406 630.476562 21.417969 671.601562 13.980469 C 721.191406 0.441406 797.894531 23.597656 814.941406 74.902344 C 827.535156 111.980469 810.292969 157.335938 775.480469 182.167969 C 721.125 220.980469 697.15625 230.785156 697.058594 277.867188 C 696.984375 300.417969 663.953125 309.355469 655.152344 287.683594 Z M 655.152344 287.683594 " fill-opacity="1" fill-rule="nonzero"/><path fill="#a7ddea" d="M 727.78125 348.71875 C 730.902344 359.949219 730.292969 372.65625 723.871094 382.660156 C 709.976562 404.421875 684.683594 401.710938 664.730469 393.390625 C 647.777344 386.363281 640.992188 365.300781 648.457031 349.082031 C 657.394531 329.6875 672.464844 319.910156 689.476562 320.625 C 712.21875 321.578125 722.238281 328.734375 727.78125 348.71875 Z M 727.78125 348.71875 " fill-opacity="1" fill-rule="nonzero"/><g clip-path="url(#2ed0867ad1)"><g clip-path="url(#15ca279d6e)"><g clip-path="url(#72f0808c26)"><path fill="#5876ff" d="M 869.046875 295.574219 C 865.089844 257.089844 870.644531 226.5 903.3125 207.152344 C 929.113281 188.167969 985.058594 178.03125 998.246094 148.429688 C 1025.410156 87.644531 938.707031 80.375 931.933594 128.1875 C 928.496094 152.5625 916.03125 159.347656 896.25 162.429688 C 869.390625 166.65625 853.007812 161.613281 867.917969 101.839844 C 878.171875 60.816406 919.589844 32.988281 961.15625 37.308594 C 1012.554688 38.132812 1079.761719 81.757812 1081.828125 135.78125 C 1083.585938 174.902344 1054.378906 213.648438 1014.027344 227.789062 C 951.003906 249.910156 925.25 252.644531 912.027344 297.828125 C 905.671875 319.464844 871.457031 318.835938 869.046875 295.574219 Z M 869.046875 295.574219 " fill-opacity="1" fill-rule="nonzero"/></g></g></g><g clip-path="url(#f671a09c12)"><g clip-path="url(#3b546fabd9)"><g clip-path="url(#c44df00194)"><path fill="#5876ff" d="M 921.78125 374.4375 C 921.648438 386.09375 917.515625 398.125 908.558594 405.945312 C 889.152344 422.96875 865.617188 413.3125 848.769531 399.757812 C 834.453125 388.285156 833.808594 366.164062 845.5 352.667969 C 859.488281 336.535156 876.691406 331.347656 892.824219 336.777344 C 914.402344 344.035156 922.03125 353.703125 921.78125 374.4375 Z M 921.78125 374.4375 " fill-opacity="1" fill-rule="nonzero"/></g></g></g></svg>