<svg xmlns="http://www.w3.org/2000/svg" xmlns:xlink="http://www.w3.org/1999/xlink" width="50" zoomAndPan="magnify" viewBox="0 0 37.5 37.499999" height="50" preserveAspectRatio="xMidYMid meet" version="1.0"><defs><clipPath id="f3bdc3b61d"><path d="M 0 3.0625 L 36 3.0625 L 36 34.148438 L 0 34.148438 Z M 0 3.0625 " clip-rule="nonzero"/></clipPath><clipPath id="4df41b0906"><path d="M 19 3.0625 L 28 3.0625 L 28 10 L 19 10 Z M 19 3.0625 " clip-rule="nonzero"/></clipPath><clipPath id="6893c08fca"><path d="M 1 29 L 8 29 L 8 34.148438 L 1 34.148438 Z M 1 29 " clip-rule="nonzero"/></clipPath><clipPath id="f51774b8d2"><path d="M 6 33 L 8 33 L 8 34.148438 L 6 34.148438 Z M 6 33 " clip-rule="nonzero"/></clipPath><clipPath id="fa44cd9770"><path d="M 22 3.0625 L 28 3.0625 L 28 7 L 22 7 Z M 22 3.0625 " clip-rule="nonzero"/></clipPath><clipPath id="5f546be542"><path d="M 21 3.0625 L 30 3.0625 L 30 9 L 21 9 Z M 21 3.0625 " clip-rule="nonzero"/></clipPath></defs><g clip-path="url(#f3bdc3b61d)"><path fill="#ff2273" d="M 31.34375 10.328125 L 31.316406 10.273438 L 31.210938 10.253906 C 30.785156 8.171875 29.113281 6.507812 26.949219 5.96875 C 26.492188 5.292969 25.910156 4.453125 25.714844 4.261719 C 25.539062 4.085938 25.097656 3.976562 24.53125 3.964844 C 24.492188 3.914062 24.457031 3.875 24.433594 3.851562 C 24.199219 3.617188 23.046875 3.53125 21.976562 3.972656 C 20.902344 4.414062 20.601562 4.832031 20.523438 5.191406 C 20.511719 5.246094 20.503906 5.328125 20.503906 5.425781 C 20.277344 5.664062 20.136719 5.917969 20.078125 6.1875 C 19.996094 6.550781 20.085938 7.699219 20.152344 8.382812 L 9.332031 11.683594 L 9.261719 11.71875 C 8.898438 11.535156 8.515625 11.382812 8.117188 11.269531 C 7.703125 10.589844 7.199219 9.789062 7.023438 9.597656 C 6.851562 9.410156 6.410156 9.28125 5.855469 9.242188 C 5.816406 9.1875 5.785156 9.144531 5.761719 9.121094 C 5.539062 8.878906 4.394531 8.734375 3.300781 9.121094 C 2.207031 9.511719 1.886719 9.914062 1.789062 10.269531 C 1.773438 10.324219 1.765625 10.402344 1.757812 10.5 C 1.523438 10.730469 1.371094 10.972656 1.296875 11.242188 C 1.199219 11.605469 1.234375 12.785156 1.265625 13.464844 C 0.632812 14.308594 0.230469 15.320312 0.15625 16.414062 C 0.15625 16.414062 0.886719 28.535156 1.128906 30.355469 C 1.410156 32.519531 2.820312 33.898438 4.992188 34.027344 C 5.105469 34.03125 6.421875 34.019531 6.894531 33.839844 C 8.246094 33.324219 9.171875 32.101562 9.554688 30.328125 C 10.1875 27.398438 11.542969 21.722656 11.964844 21.328125 C 12.378906 20.941406 15.109375 20.050781 16.917969 19.46875 L 17.570312 19.25 C 18.304688 19.011719 19.039062 18.761719 19.695312 18.539062 C 20.726562 18.191406 21.621094 17.890625 21.933594 17.824219 C 22.09375 17.792969 22.292969 17.753906 22.507812 17.753906 C 23.058594 17.753906 23.515625 18.035156 23.902344 18.613281 C 25.246094 20.628906 28.601562 25.316406 30.71875 25.316406 C 30.746094 25.316406 30.777344 25.316406 30.804688 25.316406 C 33.519531 25.148438 35.015625 23.8125 35.015625 21.558594 C 35.015625 19.03125 31.492188 10.683594 31.34375 10.328125 Z M 31.34375 10.328125 " fill-opacity="1" fill-rule="nonzero"/><path fill="#000000" d="M 5.070312 34.148438 C 5.027344 34.148438 5 34.144531 4.984375 34.144531 C 2.789062 34.015625 1.304688 32.605469 1.011719 30.371094 C 0.773438 28.566406 0.046875 16.542969 0.0390625 16.421875 C 0.113281 15.335938 0.496094 14.308594 1.144531 13.429688 C 1.109375 12.601562 1.085938 11.5625 1.183594 11.210938 C 1.257812 10.9375 1.410156 10.679688 1.644531 10.449219 C 1.652344 10.355469 1.660156 10.289062 1.675781 10.238281 C 1.8125 9.734375 2.316406 9.34375 3.261719 9.007812 C 3.835938 8.804688 4.363281 8.761719 4.703125 8.761719 C 5.25 8.761719 5.691406 8.871094 5.847656 9.039062 C 5.867188 9.058594 5.890625 9.089844 5.917969 9.125 C 6.492188 9.175781 6.925781 9.316406 7.109375 9.515625 C 7.257812 9.675781 7.621094 10.230469 8.195312 11.167969 C 8.5625 11.277344 8.917969 11.417969 9.257812 11.585938 L 9.277344 11.578125 L 20.023438 8.296875 C 19.953125 7.492188 19.886719 6.507812 19.960938 6.164062 C 20.023438 5.878906 20.164062 5.621094 20.386719 5.375 C 20.386719 5.285156 20.394531 5.21875 20.40625 5.167969 C 20.519531 4.65625 21.003906 4.242188 21.929688 3.859375 C 22.433594 3.652344 23.011719 3.539062 23.550781 3.539062 C 24.011719 3.539062 24.371094 3.625 24.515625 3.765625 C 24.535156 3.785156 24.558594 3.8125 24.589844 3.847656 C 24.953125 3.859375 25.542969 3.921875 25.800781 4.175781 C 25.960938 4.335938 26.371094 4.902344 27.023438 5.863281 C 29.183594 6.421875 30.855469 8.09375 31.308594 10.148438 L 31.402344 10.164062 L 31.453125 10.28125 C 31.601562 10.636719 35.132812 19.007812 35.132812 21.558594 C 35.132812 23.886719 33.597656 25.261719 30.8125 25.433594 C 30.78125 25.4375 30.75 25.4375 30.71875 25.4375 C 28.542969 25.4375 25.160156 20.710938 23.804688 18.679688 C 23.441406 18.136719 23.019531 17.871094 22.507812 17.871094 C 22.304688 17.871094 22.117188 17.910156 21.964844 17.941406 C 21.664062 18 20.828125 18.285156 19.859375 18.609375 L 19.3125 18.796875 C 18.769531 18.980469 18.1875 19.175781 17.609375 19.363281 L 16.953125 19.582031 C 15.609375 20.011719 12.464844 21.023438 12.046875 21.414062 C 11.6875 21.75 10.414062 26.914062 9.671875 30.351562 C 9.277344 32.175781 8.332031 33.421875 6.9375 33.949219 C 6.425781 34.144531 5.085938 34.148438 5.070312 34.148438 Z M 4.703125 9 C 4.378906 9 3.882812 9.042969 3.339844 9.234375 C 2.203125 9.636719 1.976562 10.035156 1.902344 10.300781 C 1.894531 10.328125 1.886719 10.390625 1.878906 10.507812 L 1.875 10.554688 L 1.839844 10.585938 C 1.617188 10.800781 1.476562 11.027344 1.410156 11.273438 C 1.34375 11.527344 1.332031 12.324219 1.386719 13.460938 L 1.386719 13.503906 L 1.359375 13.539062 C 0.722656 14.386719 0.347656 15.386719 0.277344 16.421875 C 0.285156 16.527344 1.007812 28.542969 1.246094 30.339844 C 1.527344 32.484375 2.894531 33.785156 4.996094 33.90625 C 5.007812 33.910156 5.035156 33.910156 5.070312 33.910156 C 5.410156 33.910156 6.464844 33.875 6.851562 33.726562 C 8.167969 33.226562 9.0625 32.042969 9.441406 30.300781 C 9.828125 28.507812 11.375 21.714844 11.886719 21.238281 C 12.285156 20.867188 14.523438 20.113281 16.878906 19.355469 L 17.535156 19.136719 C 18.113281 18.949219 18.695312 18.753906 19.234375 18.570312 L 19.78125 18.382812 C 20.757812 18.054688 21.601562 17.769531 21.910156 17.707031 C 22.078125 17.675781 22.28125 17.632812 22.507812 17.632812 C 23.101562 17.632812 23.589844 17.933594 24 18.546875 C 25.335938 20.546875 28.65625 25.199219 30.71875 25.199219 C 30.746094 25.199219 30.769531 25.199219 30.796875 25.195312 C 33.441406 25.035156 34.894531 23.742188 34.894531 21.558594 C 34.894531 19.058594 31.390625 10.746094 31.234375 10.378906 L 31.109375 10.355469 L 31.09375 10.277344 C 30.683594 8.261719 29.042969 6.613281 26.921875 6.082031 L 26.878906 6.074219 L 26.851562 6.035156 C 26.214844 5.089844 25.78125 4.492188 25.632812 4.347656 C 25.515625 4.230469 25.160156 4.097656 24.527344 4.082031 L 24.472656 4.082031 L 24.4375 4.039062 C 24.402344 3.992188 24.371094 3.957031 24.351562 3.933594 C 24.273438 3.859375 23.988281 3.777344 23.550781 3.777344 C 23.253906 3.777344 22.664062 3.816406 22.019531 4.082031 C 20.90625 4.539062 20.695312 4.949219 20.636719 5.21875 C 20.632812 5.246094 20.625 5.308594 20.621094 5.425781 L 20.621094 5.472656 L 20.585938 5.507812 C 20.378906 5.730469 20.246094 5.960938 20.191406 6.214844 C 20.136719 6.46875 20.164062 7.253906 20.269531 8.371094 L 20.277344 8.46875 L 9.367188 11.796875 L 9.261719 11.855469 L 9.207031 11.828125 C 8.851562 11.644531 8.472656 11.496094 8.085938 11.382812 L 8.039062 11.371094 L 8.015625 11.332031 C 7.453125 10.410156 7.070312 9.824219 6.9375 9.675781 C 6.792969 9.519531 6.375 9.398438 5.84375 9.359375 L 5.789062 9.355469 L 5.757812 9.3125 C 5.722656 9.265625 5.695312 9.226562 5.671875 9.203125 C 5.585938 9.105469 5.214844 9 4.703125 9 Z M 4.703125 9 " fill-opacity="1" fill-rule="nonzero"/></g><path fill="#000000" d="M 23.902344 18.613281 C 24.09375 18.894531 24.324219 19.234375 24.582031 19.605469 C 24.640625 19.6875 24.761719 19.5 24.765625 19.449219 C 24.785156 19.246094 24.613281 19.066406 24.570312 18.878906 C 24.515625 18.632812 24.726562 18.449219 24.96875 18.5625 C 25.316406 18.726562 25.519531 19.101562 25.847656 19.296875 C 26.191406 19.5 26.550781 19.441406 26.871094 19.210938 C 27.320312 18.886719 27.496094 18.375 27.363281 17.835938 C 27.128906 16.902344 26.476562 16.25 25.628906 15.835938 C 23.832031 14.949219 21.632812 14.949219 20.394531 16.726562 C 19.992188 17.304688 19.695312 17.945312 19.476562 18.613281 C 19.546875 18.589844 19.625 18.5625 19.695312 18.539062 C 20.726562 18.191406 21.621094 17.886719 21.933594 17.824219 C 22.09375 17.792969 22.292969 17.753906 22.507812 17.753906 C 23.058594 17.753906 23.515625 18.035156 23.902344 18.613281 Z M 23.902344 18.613281 " fill-opacity="1" fill-rule="nonzero"/><path fill="#000000" d="M 32.976562 23.671875 C 32.058594 23.089844 29.503906 22.078125 29.632812 24.074219 C 29.652344 24.328125 29.046875 24.046875 28.945312 24.011719 C 28.796875 23.964844 28.648438 23.917969 28.496094 23.886719 C 28.453125 23.875 28.160156 23.890625 28.144531 23.875 C 29.0625 24.726562 29.96875 25.316406 30.71875 25.316406 C 30.746094 25.316406 30.777344 25.316406 30.804688 25.316406 C 32.0625 25.238281 33.050781 24.90625 33.757812 24.355469 C 33.519531 24.089844 33.261719 23.851562 32.976562 23.671875 Z M 32.976562 23.671875 " fill-opacity="1" fill-rule="nonzero"/><path fill="#000000" d="M 33.109375 25.144531 L 31.179688 25.398438 L 32.191406 23.507812 Z M 33.109375 25.144531 " fill-opacity="1" fill-rule="nonzero"/><g clip-path="url(#4df41b0906)"><path fill="#000000" d="M 19.386719 8.613281 C 20.128906 9.140625 21.023438 9.464844 21.914062 9.589844 C 23.488281 9.808594 24.796875 9.421875 25.894531 8.246094 C 26.492188 7.609375 27.09375 6.929688 27.417969 6.105469 C 27.265625 6.054688 27.109375 6.007812 26.949219 5.96875 C 26.492188 5.292969 25.910156 4.453125 25.714844 4.261719 C 25.539062 4.085938 25.097656 3.976562 24.53125 3.964844 C 24.492188 3.914062 24.457031 3.875 24.433594 3.851562 C 24.199219 3.617188 23.046875 3.53125 21.976562 3.972656 C 20.902344 4.414062 20.601562 4.832031 20.523438 5.191406 C 20.511719 5.246094 20.503906 5.328125 20.503906 5.425781 C 20.277344 5.664062 20.136719 5.917969 20.078125 6.1875 C 19.996094 6.550781 20.085938 7.699219 20.152344 8.382812 Z M 19.386719 8.613281 " fill-opacity="1" fill-rule="nonzero"/></g><g clip-path="url(#6893c08fca)"><path fill="#000000" d="M 7.523438 33.253906 C 6.542969 32.144531 5.476562 30.867188 4.210938 30.074219 C 3.878906 29.863281 3.523438 29.675781 3.199219 29.449219 C 2.84375 29.203125 2.570312 29.125 2.375 29.574219 C 2.289062 29.765625 2.132812 30.289062 1.855469 30.289062 C 1.589844 30.289062 1.539062 29.703125 1.4375 29.558594 C 1.292969 29.351562 1.164062 29.523438 1.066406 29.777344 C 1.089844 30.023438 1.109375 30.21875 1.128906 30.355469 C 1.410156 32.519531 2.820312 33.898438 4.992188 34.027344 C 5.105469 34.035156 6.460938 34.011719 6.945312 33.816406 C 7.203125 33.710938 7.445312 33.582031 7.671875 33.429688 C 7.621094 33.371094 7.574219 33.3125 7.523438 33.253906 Z M 7.523438 33.253906 " fill-opacity="1" fill-rule="nonzero"/></g><g clip-path="url(#f51774b8d2)"><path fill="#000000" d="M 6.226562 34.089844 C 6.535156 34.042969 7.671875 33.839844 7.671875 33.839844 L 6.464844 33.003906 Z M 6.226562 34.089844 " fill-opacity="1" fill-rule="nonzero"/></g><path fill="#000000" d="M 0.234375 17.679688 C 0.269531 17.769531 0.316406 17.847656 0.382812 17.902344 C 0.675781 18.152344 0.804688 17.65625 0.917969 17.488281 C 0.960938 17.429688 1.050781 17.40625 1.105469 17.464844 C 1.527344 17.921875 1.277344 18.871094 2.003906 19.0625 C 3.023438 19.332031 3.691406 18.527344 3.996094 17.652344 C 4.472656 16.289062 4.710938 14.863281 5.367188 13.5625 C 5.953125 12.402344 6.753906 11.417969 7.65625 10.527344 C 7.386719 10.097656 7.136719 9.71875 7.023438 9.597656 C 6.851562 9.414062 6.410156 9.28125 5.855469 9.242188 C 5.816406 9.1875 5.785156 9.148438 5.761719 9.121094 C 5.539062 8.878906 4.394531 8.734375 3.300781 9.121094 C 2.207031 9.511719 1.886719 9.914062 1.789062 10.269531 C 1.773438 10.324219 1.765625 10.402344 1.757812 10.5 C 1.523438 10.730469 1.371094 10.972656 1.296875 11.242188 C 1.199219 11.605469 1.234375 12.785156 1.265625 13.464844 C 0.632812 14.308594 0.230469 15.320312 0.15625 16.414062 C 0.15625 16.414062 0.1875 16.894531 0.234375 17.679688 Z M 0.234375 17.679688 " fill-opacity="1" fill-rule="nonzero"/><g clip-path="url(#fa44cd9770)"><path fill="#000000" d="M 22.347656 6.707031 C 22.347656 6.707031 22.171875 5.117188 22.253906 4.753906 C 22.332031 4.386719 22.640625 3.960938 23.726562 3.511719 C 24.816406 3.066406 25.984375 3.15625 26.222656 3.390625 C 26.460938 3.625 27.554688 5.28125 27.554688 5.28125 Z M 22.347656 6.707031 " fill-opacity="1" fill-rule="nonzero"/></g><g clip-path="url(#5f546be542)"><path fill="#ffd33b" d="M 22.046875 8.507812 C 22.046875 8.507812 21.804688 6.296875 21.917969 5.789062 C 22.027344 5.28125 22.453125 4.6875 23.96875 4.066406 C 25.484375 3.441406 27.113281 3.566406 27.441406 3.894531 C 27.777344 4.21875 29.296875 6.527344 29.296875 6.527344 Z M 22.046875 8.507812 " fill-opacity="1" fill-rule="nonzero"/><path fill="#000000" d="M 21.945312 8.660156 L 21.929688 8.523438 C 21.921875 8.429688 21.6875 6.285156 21.800781 5.765625 C 21.957031 5.0625 22.628906 4.488281 23.925781 3.953125 C 24.878906 3.5625 25.757812 3.503906 26.195312 3.503906 C 26.835938 3.503906 27.332031 3.617188 27.527344 3.808594 C 27.863281 4.140625 29.332031 6.367188 29.394531 6.460938 L 29.484375 6.597656 Z M 26.195312 3.742188 C 25.773438 3.742188 24.929688 3.796875 24.015625 4.175781 C 22.417969 4.832031 22.117188 5.425781 22.03125 5.816406 C 21.949219 6.1875 22.078125 7.664062 22.152344 8.355469 L 29.105469 6.453125 C 28.558594 5.628906 27.601562 4.21875 27.359375 3.980469 C 27.242188 3.859375 26.835938 3.742188 26.195312 3.742188 Z M 26.195312 3.742188 " fill-opacity="1" fill-rule="nonzero"/></g><path fill="#000000" d="M 3.234375 11.863281 C 3.234375 11.863281 3.136719 10.265625 3.234375 9.90625 C 3.332031 9.546875 3.660156 9.136719 4.769531 8.742188 C 5.878906 8.347656 7.039062 8.496094 7.265625 8.742188 C 7.492188 8.988281 8.503906 10.695312 8.503906 10.695312 Z M 3.234375 11.863281 " fill-opacity="1" fill-rule="nonzero"/><path fill="#ffd33b" d="M 2.847656 13.648438 C 2.847656 13.648438 2.710938 11.429688 2.847656 10.925781 C 2.984375 10.425781 3.441406 9.855469 4.984375 9.304688 C 6.527344 8.757812 8.144531 8.960938 8.460938 9.304688 C 8.777344 9.648438 10.183594 12.027344 10.183594 12.027344 Z M 2.847656 13.648438 " fill-opacity="1" fill-rule="nonzero"/><path fill="#000000" d="M 2.738281 13.796875 L 2.730469 13.65625 C 2.726562 13.566406 2.59375 11.410156 2.734375 10.894531 C 2.921875 10.203125 3.625 9.660156 4.945312 9.191406 C 5.75 8.90625 6.488281 8.847656 6.964844 8.847656 C 7.714844 8.847656 8.335938 8.996094 8.546875 9.222656 C 8.867188 9.570312 10.230469 11.867188 10.285156 11.964844 L 10.371094 12.105469 Z M 6.964844 9.085938 C 6.507812 9.085938 5.796875 9.144531 5.023438 9.417969 C 3.394531 9.996094 3.066406 10.574219 2.964844 10.957031 C 2.863281 11.328125 2.921875 12.808594 2.960938 13.503906 L 10 11.945312 C 9.492188 11.09375 8.605469 9.636719 8.375 9.386719 C 8.238281 9.238281 7.710938 9.085938 6.964844 9.085938 Z M 6.964844 9.085938 " fill-opacity="1" fill-rule="nonzero"/><path fill="#ffd33b" d="M 1.566406 16.285156 C 1.566406 16.285156 2.4375 28.410156 2.679688 30.273438 C 2.925781 32.140625 4.078125 33.6875 6.492188 33.828125 C 8.90625 33.972656 10.480469 32.597656 11.003906 30.167969 C 11.527344 27.738281 12.996094 21.472656 13.484375 21.015625 C 13.976562 20.558594 17.261719 19.535156 19.222656 18.902344 C 21.179688 18.269531 23.136719 17.566406 23.664062 17.460938 C 24.1875 17.355469 25.035156 17.191406 25.78125 18.308594 C 26.53125 19.429688 30.414062 25.199219 32.683594 25.0625 C 34.957031 24.921875 36.847656 23.9375 36.847656 21.367188 C 36.847656 18.796875 33.128906 10.015625 33.128906 10.015625 L 22.113281 8.042969 L 10.945312 11.449219 Z M 1.566406 16.285156 " fill-opacity="1" fill-rule="nonzero"/><path fill="#000000" d="M 6.828125 33.90625 C 6.828125 33.90625 6.828125 33.90625 6.824219 33.90625 C 6.714844 33.90625 6.601562 33.929688 6.484375 33.921875 C 4.28125 33.792969 2.851562 32.472656 2.5625 30.277344 C 2.320312 28.429688 1.457031 16.40625 1.445312 16.285156 L 10.890625 11.335938 L 22.109375 7.917969 L 33.210938 9.90625 L 33.238281 9.96875 C 33.390625 10.328125 36.964844 18.800781 36.964844 21.367188 C 36.964844 23.65625 35.449219 25.011719 32.691406 25.179688 C 32.664062 25.183594 32.632812 25.183594 32.605469 25.183594 C 30.457031 25.183594 27.050781 20.421875 25.683594 18.375 C 25.292969 17.789062 24.828125 17.503906 24.265625 17.503906 C 24.050781 17.503906 23.847656 17.542969 23.6875 17.578125 C 23.367188 17.640625 22.460938 17.945312 21.414062 18.300781 C 20.746094 18.523438 20.003906 18.773438 19.257812 19.015625 L 18.59375 19.230469 C 16.757812 19.820312 13.984375 20.710938 13.566406 21.101562 C 13.136719 21.503906 11.761719 27.195312 11.121094 30.167969 C 10.59375 32.59375 9.070312 33.90625 6.828125 33.90625 Z M 1.6875 16.355469 C 1.765625 17.402344 2.566406 28.496094 2.796875 30.257812 C 3.070312 32.332031 4.417969 33.589844 6.5 33.710938 C 8.804688 33.847656 10.363281 32.566406 10.886719 30.144531 C 10.90625 30.058594 12.773438 21.519531 13.40625 20.929688 C 13.828125 20.53125 15.972656 19.824219 18.519531 19.003906 L 19.183594 18.789062 C 19.929688 18.546875 20.671875 18.296875 21.339844 18.074219 C 22.4375 17.703125 23.308594 17.410156 23.640625 17.34375 C 23.800781 17.308594 24.027344 17.265625 24.265625 17.265625 C 24.914062 17.265625 25.441406 17.585938 25.882812 18.242188 C 27.226562 20.257812 30.570312 24.945312 32.601562 24.945312 C 32.628906 24.945312 32.652344 24.945312 32.679688 24.941406 C 34.527344 24.832031 36.726562 24.117188 36.726562 21.367188 C 36.726562 18.960938 33.371094 10.894531 33.042969 10.121094 L 22.121094 8.164062 L 10.980469 11.5625 Z M 1.6875 16.355469 " fill-opacity="1" fill-rule="nonzero"/><path fill="#ffd33b" d="M 33.210938 10.949219 C 33.210938 14.042969 30.535156 16.550781 27.230469 16.550781 C 23.925781 16.550781 21.246094 14.042969 21.246094 10.949219 C 21.246094 7.855469 23.925781 5.347656 27.230469 5.347656 C 30.535156 5.347656 33.210938 7.855469 33.210938 10.949219 Z M 33.210938 10.949219 " fill-opacity="1" fill-rule="nonzero"/><path fill="#000000" d="M 27.230469 16.667969 C 23.863281 16.667969 21.128906 14.101562 21.128906 10.949219 C 21.128906 7.796875 23.863281 5.230469 27.230469 5.230469 C 30.59375 5.230469 33.332031 7.796875 33.332031 10.949219 C 33.332031 14.101562 30.59375 16.667969 27.230469 16.667969 Z M 27.230469 5.46875 C 23.996094 5.46875 21.363281 7.925781 21.363281 10.949219 C 21.363281 13.972656 23.996094 16.429688 27.230469 16.429688 C 30.464844 16.429688 33.09375 13.972656 33.09375 10.949219 C 33.09375 7.925781 30.464844 5.46875 27.230469 5.46875 Z M 27.230469 5.46875 " fill-opacity="1" fill-rule="nonzero"/><path fill="#ffd33b" d="M 14.078125 16.519531 C 14.078125 19.753906 11.277344 22.378906 7.820312 22.378906 C 4.367188 22.378906 1.566406 19.753906 1.566406 16.519531 C 1.566406 13.285156 4.367188 10.664062 7.820312 10.664062 C 11.277344 10.664062 14.078125 13.285156 14.078125 16.519531 Z M 14.078125 16.519531 " fill-opacity="1" fill-rule="nonzero"/><path fill="#000000" d="M 7.820312 22.496094 C 4.304688 22.496094 1.445312 19.816406 1.445312 16.519531 C 1.445312 13.226562 4.304688 10.546875 7.820312 10.546875 C 11.335938 10.546875 14.195312 13.226562 14.195312 16.519531 C 14.195312 19.816406 11.335938 22.496094 7.820312 22.496094 Z M 7.820312 10.785156 C 4.4375 10.785156 1.683594 13.359375 1.683594 16.519531 C 1.683594 19.683594 4.4375 22.257812 7.820312 22.257812 C 11.207031 22.257812 13.960938 19.683594 13.960938 16.519531 C 13.960938 13.359375 11.207031 10.785156 7.820312 10.785156 Z M 7.820312 10.785156 " fill-opacity="1" fill-rule="nonzero"/><path fill="#ffffff" d="M 8.097656 20.894531 C 7.839844 20.894531 7.609375 20.734375 7.527344 20.488281 L 6.804688 18.433594 L 4.300781 19.160156 C 3.988281 19.25 3.648438 19.058594 3.558594 18.746094 L 2.9375 16.570312 C 2.890625 16.414062 2.910156 16.25 2.988281 16.109375 C 3.066406 15.96875 3.191406 15.867188 3.347656 15.820312 L 5.644531 15.15625 L 4.945312 13.175781 C 4.839844 12.855469 5.011719 12.511719 5.324219 12.40625 L 7.460938 11.691406 C 7.769531 11.585938 8.117188 11.765625 8.21875 12.074219 L 8.96875 14.195312 L 11.691406 13.40625 C 12.003906 13.316406 12.347656 13.507812 12.433594 13.820312 L 13.058594 15.996094 C 13.101562 16.152344 13.082031 16.316406 13.003906 16.457031 C 12.925781 16.597656 12.800781 16.703125 12.644531 16.746094 L 10.128906 17.476562 L 10.804688 19.394531 C 10.855469 19.550781 10.84375 19.714844 10.773438 19.855469 C 10.699219 20 10.578125 20.109375 10.425781 20.160156 L 8.289062 20.871094 C 8.226562 20.890625 8.164062 20.894531 8.097656 20.894531 Z M 6.953125 18.148438 L 7.753906 20.417969 C 7.804688 20.570312 7.941406 20.671875 8.097656 20.671875 C 8.136719 20.671875 8.175781 20.664062 8.214844 20.652344 L 10.347656 19.933594 C 10.441406 19.902344 10.515625 19.839844 10.558594 19.75 C 10.605469 19.664062 10.609375 19.5625 10.582031 19.472656 L 9.820312 17.316406 L 12.582031 16.515625 C 12.671875 16.488281 12.75 16.429688 12.796875 16.34375 C 12.84375 16.257812 12.855469 16.15625 12.828125 16.0625 L 12.207031 13.886719 C 12.152344 13.695312 11.949219 13.582031 11.757812 13.632812 L 8.820312 14.484375 L 7.996094 12.152344 C 7.933594 11.960938 7.722656 11.855469 7.535156 11.917969 L 5.398438 12.632812 C 5.210938 12.699219 5.105469 12.90625 5.167969 13.097656 L 5.953125 15.316406 L 3.414062 16.050781 C 3.320312 16.078125 3.242188 16.140625 3.195312 16.226562 C 3.148438 16.308594 3.136719 16.410156 3.164062 16.503906 L 3.785156 18.683594 C 3.839844 18.871094 4.046875 18.988281 4.238281 18.933594 Z M 6.953125 18.148438 " fill-opacity="1" fill-rule="nonzero"/><path fill="#ffffff" d="M 27.394531 15.082031 C 27.136719 15.082031 26.90625 14.914062 26.824219 14.667969 L 26.097656 12.609375 L 23.597656 13.335938 C 23.285156 13.425781 22.941406 13.230469 22.851562 12.921875 L 22.230469 10.742188 C 22.140625 10.421875 22.324219 10.085938 22.644531 9.992188 L 24.941406 9.328125 L 24.242188 7.347656 C 24.136719 7.027344 24.304688 6.683594 24.621094 6.578125 L 26.753906 5.863281 C 27.066406 5.761719 27.414062 5.9375 27.515625 6.246094 L 28.265625 8.367188 L 30.988281 7.578125 C 31.300781 7.488281 31.640625 7.679688 31.730469 7.992188 L 32.351562 10.171875 C 32.445312 10.492188 32.257812 10.828125 31.941406 10.917969 L 29.421875 11.648438 L 30.101562 13.566406 C 30.207031 13.886719 30.035156 14.226562 29.71875 14.332031 L 27.585938 15.050781 C 27.523438 15.070312 27.457031 15.082031 27.394531 15.082031 Z M 26.246094 12.320312 L 27.046875 14.589844 C 27.109375 14.777344 27.320312 14.886719 27.507812 14.824219 L 29.644531 14.105469 C 29.835938 14.042969 29.9375 13.835938 29.875 13.644531 L 29.113281 11.488281 L 31.875 10.691406 C 32.066406 10.632812 32.179688 10.429688 32.125 10.234375 L 31.503906 8.058594 C 31.449219 7.867188 31.242188 7.753906 31.050781 7.808594 L 28.113281 8.65625 L 27.292969 6.324219 C 27.230469 6.132812 27.019531 6.027344 26.832031 6.089844 L 24.695312 6.804688 C 24.503906 6.871094 24.402344 7.078125 24.464844 7.269531 L 25.246094 9.488281 L 22.707031 10.222656 C 22.515625 10.277344 22.402344 10.480469 22.460938 10.675781 L 23.082031 12.855469 C 23.136719 13.042969 23.34375 13.160156 23.53125 13.105469 Z M 26.246094 12.320312 " fill-opacity="1" fill-rule="nonzero"/><path fill="#000000" d="M 25.632812 11.222656 C 25.632812 11.382812 25.601562 11.535156 25.539062 11.683594 C 25.480469 11.832031 25.394531 11.960938 25.28125 12.074219 C 25.167969 12.1875 25.039062 12.273438 24.890625 12.335938 C 24.746094 12.394531 24.59375 12.425781 24.433594 12.425781 C 24.273438 12.425781 24.121094 12.394531 23.976562 12.335938 C 23.828125 12.273438 23.699219 12.1875 23.585938 12.074219 C 23.472656 11.960938 23.386719 11.832031 23.328125 11.683594 C 23.265625 11.535156 23.234375 11.382812 23.234375 11.222656 C 23.234375 11.0625 23.265625 10.90625 23.328125 10.757812 C 23.386719 10.613281 23.472656 10.480469 23.585938 10.367188 C 23.699219 10.253906 23.828125 10.167969 23.976562 10.105469 C 24.121094 10.046875 24.273438 10.015625 24.433594 10.015625 C 24.59375 10.015625 24.746094 10.046875 24.890625 10.105469 C 25.039062 10.167969 25.167969 10.253906 25.28125 10.367188 C 25.394531 10.480469 25.480469 10.613281 25.539062 10.757812 C 25.601562 10.90625 25.632812 11.0625 25.632812 11.222656 Z M 25.632812 11.222656 " fill-opacity="1" fill-rule="nonzero"/><path fill="#000000" d="M 24.433594 12.546875 C 23.707031 12.546875 23.117188 11.953125 23.117188 11.222656 C 23.117188 10.492188 23.707031 9.894531 24.433594 9.894531 C 25.160156 9.894531 25.75 10.492188 25.75 11.222656 C 25.75 11.953125 25.160156 12.546875 24.433594 12.546875 Z M 24.433594 10.132812 C 23.839844 10.132812 23.355469 10.621094 23.355469 11.222656 C 23.355469 11.820312 23.839844 12.308594 24.433594 12.308594 C 25.027344 12.308594 25.511719 11.820312 25.511719 11.222656 C 25.511719 10.621094 25.027344 10.132812 24.433594 10.132812 Z M 24.433594 10.132812 " fill-opacity="1" fill-rule="nonzero"/><path fill="#000000" d="M 27.546875 7.898438 C 27.546875 8.054688 27.515625 8.207031 27.457031 8.355469 C 27.398438 8.5 27.3125 8.628906 27.199219 8.742188 C 27.089844 8.851562 26.960938 8.9375 26.816406 9 C 26.671875 9.058594 26.519531 9.089844 26.363281 9.089844 C 26.207031 9.089844 26.054688 9.058594 25.910156 9 C 25.765625 8.9375 25.636719 8.851562 25.527344 8.742188 C 25.414062 8.628906 25.328125 8.5 25.269531 8.355469 C 25.207031 8.207031 25.179688 8.054688 25.179688 7.898438 C 25.179688 7.738281 25.207031 7.589844 25.269531 7.441406 C 25.328125 7.296875 25.414062 7.167969 25.527344 7.054688 C 25.636719 6.945312 25.765625 6.855469 25.910156 6.796875 C 26.054688 6.734375 26.207031 6.707031 26.363281 6.707031 C 26.519531 6.707031 26.671875 6.734375 26.816406 6.796875 C 26.960938 6.855469 27.089844 6.945312 27.199219 7.054688 C 27.3125 7.167969 27.398438 7.296875 27.457031 7.441406 C 27.515625 7.589844 27.546875 7.738281 27.546875 7.898438 Z M 27.546875 7.898438 " fill-opacity="1" fill-rule="nonzero"/><path fill="#000000" d="M 26.363281 9.210938 C 25.644531 9.210938 25.058594 8.621094 25.058594 7.898438 C 25.058594 7.175781 25.644531 6.585938 26.363281 6.585938 C 27.082031 6.585938 27.664062 7.175781 27.664062 7.898438 C 27.664062 8.621094 27.082031 9.210938 26.363281 9.210938 Z M 26.363281 6.824219 C 25.777344 6.824219 25.296875 7.304688 25.296875 7.898438 C 25.296875 8.488281 25.777344 8.972656 26.363281 8.972656 C 26.949219 8.972656 27.429688 8.488281 27.429688 7.898438 C 27.429688 7.304688 26.949219 6.824219 26.363281 6.824219 Z M 26.363281 6.824219 " fill-opacity="1" fill-rule="nonzero"/><path fill="#000000" d="M 31.417969 9.601562 C 31.417969 10.269531 30.882812 10.808594 30.222656 10.808594 C 29.5625 10.808594 29.023438 10.269531 29.023438 9.601562 C 29.023438 8.9375 29.5625 8.394531 30.222656 8.394531 C 30.882812 8.394531 31.417969 8.9375 31.417969 9.601562 Z M 31.417969 9.601562 " fill-opacity="1" fill-rule="nonzero"/><path fill="#000000" d="M 30.222656 10.925781 C 29.496094 10.925781 28.90625 10.332031 28.90625 9.601562 C 28.90625 8.871094 29.496094 8.277344 30.222656 8.277344 C 30.949219 8.277344 31.539062 8.871094 31.539062 9.601562 C 31.539062 10.332031 30.949219 10.925781 30.222656 10.925781 Z M 30.222656 8.515625 C 29.625 8.515625 29.144531 9.003906 29.144531 9.601562 C 29.144531 10.203125 29.625 10.6875 30.222656 10.6875 C 30.816406 10.6875 31.300781 10.203125 31.300781 9.601562 C 31.300781 9.003906 30.816406 8.515625 30.222656 8.515625 Z M 30.222656 8.515625 " fill-opacity="1" fill-rule="nonzero"/><path fill="#ff2273" d="M 30.011719 10.65625 C 30 10.65625 29.988281 10.652344 29.976562 10.648438 C 29.941406 10.640625 29.914062 10.613281 29.902344 10.578125 L 29.710938 10.078125 L 29.292969 9.746094 C 29.265625 9.722656 29.25 9.6875 29.25 9.652344 C 29.25 9.613281 29.265625 9.582031 29.292969 9.558594 L 29.710938 9.222656 L 29.894531 8.71875 C 29.90625 8.683594 29.933594 8.65625 29.96875 8.644531 C 30.003906 8.632812 30.039062 8.640625 30.070312 8.660156 L 30.515625 8.953125 L 31.050781 8.972656 C 31.085938 8.976562 31.117188 8.992188 31.140625 9.023438 C 31.160156 9.050781 31.167969 9.089844 31.160156 9.125 L 31.019531 9.644531 L 31.164062 10.160156 C 31.171875 10.195312 31.167969 10.234375 31.144531 10.261719 C 31.125 10.292969 31.089844 10.308594 31.054688 10.3125 L 30.523438 10.335938 L 30.078125 10.636719 C 30.058594 10.648438 30.035156 10.65625 30.011719 10.65625 Z M 29.558594 9.648438 L 29.886719 9.910156 C 29.902344 9.921875 29.914062 9.941406 29.921875 9.960938 L 30.070312 10.355469 L 30.417969 10.121094 C 30.4375 10.109375 30.457031 10.101562 30.476562 10.101562 L 30.894531 10.082031 L 30.78125 9.675781 C 30.777344 9.65625 30.777344 9.632812 30.78125 9.613281 L 30.890625 9.207031 L 30.472656 9.191406 C 30.453125 9.191406 30.433594 9.183594 30.414062 9.171875 L 30.066406 8.941406 L 29.921875 9.335938 C 29.914062 9.355469 29.898438 9.375 29.882812 9.386719 Z M 29.558594 9.648438 " fill-opacity="1" fill-rule="nonzero"/><path fill="#000000" d="M 29.316406 12.839844 C 29.316406 13 29.285156 13.148438 29.226562 13.296875 C 29.164062 13.441406 29.082031 13.570312 28.96875 13.683594 C 28.859375 13.792969 28.730469 13.882812 28.585938 13.941406 C 28.441406 14.003906 28.289062 14.03125 28.132812 14.03125 C 27.976562 14.03125 27.824219 14.003906 27.679688 13.941406 C 27.535156 13.882812 27.40625 13.792969 27.292969 13.683594 C 27.183594 13.570312 27.097656 13.441406 27.039062 13.296875 C 26.976562 13.148438 26.949219 13 26.949219 12.839844 C 26.949219 12.683594 26.976562 12.53125 27.039062 12.382812 C 27.097656 12.238281 27.183594 12.109375 27.292969 11.996094 C 27.40625 11.886719 27.535156 11.800781 27.679688 11.738281 C 27.824219 11.679688 27.976562 11.648438 28.132812 11.648438 C 28.289062 11.648438 28.441406 11.679688 28.585938 11.738281 C 28.730469 11.800781 28.859375 11.886719 28.96875 11.996094 C 29.082031 12.109375 29.164062 12.238281 29.226562 12.382812 C 29.285156 12.53125 29.316406 12.683594 29.316406 12.839844 Z M 29.316406 12.839844 " fill-opacity="1" fill-rule="nonzero"/><path fill="#000000" d="M 28.132812 14.152344 C 27.414062 14.152344 26.828125 13.5625 26.828125 12.839844 C 26.828125 12.117188 27.414062 11.527344 28.132812 11.527344 C 28.851562 11.527344 29.433594 12.117188 29.433594 12.839844 C 29.433594 13.5625 28.851562 14.152344 28.132812 14.152344 Z M 28.132812 11.765625 C 27.542969 11.765625 27.066406 12.25 27.066406 12.839844 C 27.066406 13.433594 27.542969 13.914062 28.132812 13.914062 C 28.71875 13.914062 29.199219 13.433594 29.199219 12.839844 C 29.199219 12.25 28.71875 11.765625 28.132812 11.765625 Z M 28.132812 11.765625 " fill-opacity="1" fill-rule="nonzero"/><path fill="#ff2273" d="M 24.796875 12.222656 C 24.773438 12.222656 24.746094 12.214844 24.726562 12.203125 L 23.78125 11.507812 C 23.738281 11.480469 23.722656 11.425781 23.738281 11.378906 L 24.0625 10.328125 C 24.082031 10.265625 24.148438 10.230469 24.210938 10.25 C 24.273438 10.269531 24.308594 10.335938 24.289062 10.398438 L 23.988281 11.367188 L 24.867188 12.007812 C 24.917969 12.046875 24.929688 12.121094 24.890625 12.175781 C 24.867188 12.207031 24.832031 12.222656 24.796875 12.222656 Z M 24.796875 12.222656 " fill-opacity="1" fill-rule="nonzero"/><path fill="#ff2273" d="M 24.796875 12.222656 C 24.785156 12.222656 24.777344 12.222656 24.765625 12.21875 C 24.703125 12.203125 24.664062 12.136719 24.679688 12.074219 L 24.953125 11.019531 L 24.113281 10.464844 C 24.058594 10.429688 24.042969 10.355469 24.078125 10.300781 C 24.113281 10.242188 24.1875 10.230469 24.242188 10.265625 L 25.15625 10.867188 C 25.199219 10.894531 25.21875 10.945312 25.207031 10.996094 L 24.910156 12.132812 C 24.898438 12.1875 24.847656 12.222656 24.796875 12.222656 Z M 24.796875 12.222656 " fill-opacity="1" fill-rule="nonzero"/><path fill="#000000" d="M 6.917969 17.292969 C 6.816406 17.535156 6.53125 17.800781 6.285156 17.886719 L 5.484375 18.15625 C 5.238281 18.242188 4.96875 18.105469 4.882812 17.859375 L 4.476562 16.664062 C 4.394531 16.417969 4.527344 16.144531 4.773438 16.0625 L 5.570312 15.789062 C 5.820312 15.707031 6.207031 15.742188 6.433594 15.871094 L 6.890625 16.132812 C 7.117188 16.261719 7.21875 16.566406 7.117188 16.808594 Z M 6.917969 17.292969 " fill-opacity="1" fill-rule="nonzero"/><path fill="#000000" d="M 8.9375 17.179688 C 9.175781 17.28125 9.441406 17.566406 9.523438 17.816406 L 9.796875 18.617188 C 9.878906 18.867188 9.746094 19.140625 9.5 19.222656 L 8.3125 19.632812 C 8.066406 19.71875 7.796875 19.582031 7.714844 19.335938 L 7.441406 18.53125 C 7.359375 18.28125 7.398438 17.894531 7.527344 17.664062 L 7.785156 17.203125 C 7.914062 16.976562 8.214844 16.875 8.457031 16.976562 Z M 8.9375 17.179688 " fill-opacity="1" fill-rule="nonzero"/><path fill="#000000" d="M 17.980469 16.628906 C 18.019531 16.753906 17.953125 16.890625 17.828125 16.933594 L 16.402344 17.417969 C 16.277344 17.460938 16.144531 17.394531 16.105469 17.269531 L 15.917969 16.667969 C 15.878906 16.542969 15.945312 16.40625 16.070312 16.363281 L 17.496094 15.878906 C 17.621094 15.835938 17.753906 15.90625 17.792969 16.03125 Z M 17.980469 16.628906 " fill-opacity="1" fill-rule="nonzero"/><path fill="#000000" d="M 19.449219 16.40625 C 19.34375 16.480469 19.222656 16.4375 19.183594 16.3125 L 18.996094 15.710938 C 18.957031 15.585938 19.03125 15.480469 19.160156 15.472656 L 20.726562 15.378906 C 20.859375 15.375 20.875 15.425781 20.769531 15.5 Z M 19.449219 16.40625 " fill-opacity="1" fill-rule="nonzero"/><path fill="#000000" d="M 8.824219 15.144531 C 8.921875 14.902344 9.207031 14.636719 9.453125 14.550781 L 10.253906 14.28125 C 10.5 14.195312 10.769531 14.332031 10.855469 14.578125 L 11.261719 15.773438 C 11.34375 16.019531 11.210938 16.292969 10.964844 16.375 L 10.167969 16.648438 C 9.921875 16.730469 9.53125 16.695312 9.304688 16.566406 L 8.847656 16.304688 C 8.621094 16.171875 8.519531 15.871094 8.621094 15.628906 Z M 8.824219 15.144531 " fill-opacity="1" fill-rule="nonzero"/><path fill="#000000" d="M 6.800781 15.257812 C 6.5625 15.15625 6.296875 14.871094 6.214844 14.621094 L 5.945312 13.820312 C 5.859375 13.570312 5.992188 13.296875 6.242188 13.210938 L 7.425781 12.804688 C 7.671875 12.71875 7.941406 12.855469 8.027344 13.101562 L 8.296875 13.90625 C 8.378906 14.152344 8.34375 14.542969 8.214844 14.773438 L 7.953125 15.230469 C 7.824219 15.460938 7.523438 15.5625 7.28125 15.460938 Z M 6.800781 15.257812 " fill-opacity="1" fill-rule="nonzero"/><path fill="#00bfc3" d="M 16.476562 17.933594 C 16.425781 17.933594 16.378906 17.898438 16.363281 17.851562 C 16.34375 17.785156 16.378906 17.71875 16.441406 17.699219 L 18.058594 17.175781 C 18.121094 17.15625 18.1875 17.191406 18.207031 17.253906 C 18.230469 17.316406 18.195312 17.382812 18.132812 17.402344 L 16.511719 17.925781 C 16.5 17.929688 16.488281 17.933594 16.476562 17.933594 Z M 16.476562 17.933594 " fill-opacity="1" fill-rule="nonzero"/><path fill="#00bfc3" d="M 19.554688 16.980469 C 19.503906 16.980469 19.457031 16.945312 19.441406 16.894531 C 19.425781 16.832031 19.460938 16.765625 19.523438 16.746094 L 21.101562 16.257812 C 21.164062 16.238281 21.230469 16.273438 21.25 16.339844 C 21.269531 16.402344 21.234375 16.46875 21.171875 16.488281 L 19.589844 16.972656 C 19.578125 16.976562 19.566406 16.980469 19.554688 16.980469 Z M 19.554688 16.980469 " fill-opacity="1" fill-rule="nonzero"/><path fill="#00bfc3" d="M 26.640625 8.738281 C 26.625 8.738281 26.609375 8.734375 26.597656 8.726562 C 26.101562 8.527344 25.609375 8.300781 25.472656 7.953125 C 25.417969 7.820312 25.425781 7.679688 25.484375 7.542969 C 25.554688 7.390625 25.660156 7.335938 25.738281 7.316406 C 26 7.25 26.304688 7.46875 26.335938 7.496094 C 26.390625 7.535156 26.402344 7.609375 26.363281 7.660156 C 26.324219 7.714844 26.25 7.726562 26.195312 7.6875 C 26.132812 7.640625 25.925781 7.511719 25.796875 7.546875 C 25.769531 7.554688 25.734375 7.570312 25.703125 7.640625 C 25.667969 7.71875 25.664062 7.789062 25.691406 7.863281 C 25.804688 8.144531 26.355469 8.371094 26.683594 8.507812 C 26.746094 8.53125 26.773438 8.601562 26.75 8.664062 C 26.730469 8.707031 26.6875 8.738281 26.640625 8.738281 Z M 26.640625 8.738281 " fill-opacity="1" fill-rule="nonzero"/><path fill="#00bfc3" d="M 26.640625 8.738281 C 26.621094 8.738281 26.601562 8.730469 26.585938 8.722656 C 26.527344 8.691406 26.503906 8.621094 26.535156 8.5625 C 26.699219 8.246094 26.976562 7.714844 26.882812 7.425781 C 26.855469 7.351562 26.808594 7.296875 26.730469 7.261719 C 26.660156 7.226562 26.621094 7.242188 26.597656 7.253906 C 26.484375 7.308594 26.402344 7.523438 26.382812 7.617188 C 26.367188 7.679688 26.304688 7.722656 26.238281 7.707031 C 26.175781 7.691406 26.136719 7.628906 26.152344 7.5625 C 26.160156 7.523438 26.25 7.15625 26.496094 7.039062 C 26.566406 7.003906 26.683594 6.976562 26.832031 7.046875 C 26.96875 7.109375 27.0625 7.214844 27.105469 7.351562 C 27.222656 7.703125 26.992188 8.199219 26.746094 8.671875 C 26.722656 8.714844 26.683594 8.738281 26.640625 8.738281 Z M 26.640625 8.738281 " fill-opacity="1" fill-rule="nonzero"/><path fill="#00bfc3" d="M 27.996094 13.585938 C 27.972656 13.585938 27.949219 13.578125 27.925781 13.5625 L 27.351562 13.144531 C 27.316406 13.117188 27.296875 13.066406 27.308594 13.019531 L 27.460938 12.324219 C 27.472656 12.285156 27.5 12.253906 27.535156 12.238281 L 28.265625 11.960938 C 28.304688 11.949219 28.34375 11.953125 28.375 11.976562 L 28.949219 12.394531 C 28.988281 12.421875 29.007812 12.472656 28.996094 12.519531 L 28.84375 13.214844 C 28.832031 13.253906 28.804688 13.285156 28.769531 13.300781 L 28.039062 13.578125 C 28.023438 13.582031 28.011719 13.585938 27.996094 13.585938 Z M 27.554688 12.996094 L 28.015625 13.332031 L 28.625 13.097656 L 28.75 12.542969 L 28.289062 12.207031 L 27.679688 12.441406 Z M 27.554688 12.996094 " fill-opacity="1" fill-rule="nonzero"/><path fill="#ff2273" d="M 14.597656 12.886719 C 14.445312 12.886719 14.304688 12.785156 14.257812 12.632812 C 14.199219 12.441406 14.304688 12.242188 14.492188 12.1875 L 19.679688 10.609375 C 19.863281 10.550781 20.066406 10.65625 20.121094 10.847656 C 20.179688 11.035156 20.070312 11.234375 19.882812 11.292969 L 14.699219 12.871094 C 14.664062 12.882812 14.628906 12.886719 14.597656 12.886719 Z M 14.597656 12.886719 " fill-opacity="1" fill-rule="nonzero"/><path fill="#00bfc3" d="M 15.636719 13.832031 C 15.484375 13.832031 15.34375 13.734375 15.296875 13.578125 C 15.242188 13.390625 15.347656 13.191406 15.535156 13.132812 L 19.101562 12.042969 C 19.289062 11.984375 19.488281 12.09375 19.546875 12.28125 C 19.601562 12.46875 19.496094 12.671875 19.308594 12.726562 L 15.742188 13.816406 C 15.707031 13.828125 15.671875 13.832031 15.636719 13.832031 Z M 15.636719 13.832031 " fill-opacity="1" fill-rule="nonzero"/><path fill="#ffffff" d="M 5.851562 32.683594 C 5.386719 32.675781 4.816406 32.3125 4.546875 32.101562 C 4.105469 31.753906 3.777344 31.1875 3.625 30.652344 C 3.503906 30.222656 3.542969 28.960938 4.339844 29.234375 C 4.769531 29.382812 4.851562 30.15625 5.066406 30.503906 C 5.363281 30.984375 5.808594 31.355469 6.25 31.691406 C 6.492188 31.875 6.539062 32.265625 6.332031 32.492188 C 6.203125 32.632812 6.039062 32.683594 5.851562 32.683594 Z M 5.851562 32.683594 " fill-opacity="1" fill-rule="nonzero"/><path fill="#000000" d="M 5.863281 32.714844 L 5.851562 32.714844 C 5.265625 32.714844 4.601562 32.253906 4.476562 32.152344 C 4.046875 31.816406 3.683594 31.273438 3.511719 30.660156 C 3.433594 30.382812 3.398438 29.679688 3.683594 29.300781 C 3.84375 29.082031 4.089844 29.019531 4.378906 29.117188 C 4.722656 29.234375 4.863281 29.648438 4.992188 30.015625 C 5.050781 30.179688 5.105469 30.335938 5.167969 30.441406 C 5.453125 30.902344 5.890625 31.269531 6.324219 31.597656 C 6.46875 31.707031 6.5625 31.878906 6.578125 32.074219 C 6.59375 32.261719 6.539062 32.398438 6.421875 32.527344 C 6.28125 32.679688 6.09375 32.714844 5.863281 32.714844 Z M 4.132812 29.316406 C 4.027344 29.316406 3.941406 29.359375 3.871094 29.453125 C 3.667969 29.722656 3.660156 30.332031 3.738281 30.617188 C 3.898438 31.179688 4.230469 31.703125 4.621094 32.007812 C 4.945312 32.261719 5.503906 32.566406 5.898438 32.566406 L 5.949219 32.566406 C 5.949219 32.566406 6.195312 32.515625 6.289062 32.414062 C 6.363281 32.332031 6.375 32.214844 6.363281 32.09375 C 6.351562 31.96875 6.28125 31.855469 6.191406 31.789062 C 5.742188 31.445312 5.277344 31.0625 4.972656 30.566406 C 4.894531 30.441406 4.832031 30.273438 4.769531 30.097656 C 4.664062 29.78125 4.539062 29.425781 4.304688 29.347656 C 4.242188 29.328125 4.183594 29.316406 4.132812 29.316406 Z M 4.132812 29.316406 " fill-opacity="1" fill-rule="nonzero"/><path fill="#ffffff" d="M 35.460938 19.664062 C 35.75 20.035156 35.828125 20.707031 35.835938 21.050781 C 35.847656 21.617188 35.613281 22.230469 35.292969 22.6875 C 35.042969 23.050781 34.039062 23.8125 33.746094 23.015625 C 33.589844 22.582031 34.140625 22.03125 34.273438 21.648438 C 34.457031 21.113281 34.464844 20.53125 34.445312 19.972656 C 34.433594 19.667969 34.707031 19.386719 35.011719 19.40625 C 35.199219 19.417969 35.347656 19.515625 35.460938 19.664062 Z M 35.460938 19.664062 " fill-opacity="1" fill-rule="nonzero"/><path fill="#000000" d="M 34.199219 23.484375 C 34.015625 23.484375 33.765625 23.410156 33.636719 23.054688 C 33.511719 22.710938 33.742188 22.339844 33.941406 22.011719 C 34.035156 21.863281 34.121094 21.722656 34.160156 21.609375 C 34.335938 21.09375 34.34375 20.519531 34.324219 19.976562 C 34.320312 19.800781 34.386719 19.625 34.515625 19.492188 C 34.652344 19.351562 34.835938 19.273438 35.019531 19.289062 C 35.226562 19.300781 35.40625 19.402344 35.554688 19.589844 C 35.917969 20.054688 35.953125 20.886719 35.953125 21.050781 C 35.964844 21.597656 35.753906 22.234375 35.390625 22.753906 C 35.21875 23 34.675781 23.484375 34.199219 23.484375 Z M 35 19.628906 C 34.871094 19.628906 34.765625 19.625 34.6875 19.710938 C 34.601562 19.796875 34.558594 19.882812 34.5625 19.992188 C 34.582031 20.558594 34.574219 21.148438 34.382812 21.699219 C 34.335938 21.839844 34.242188 21.984375 34.144531 22.144531 C 33.96875 22.425781 33.773438 22.742188 33.859375 22.976562 C 33.925781 23.160156 34.035156 23.246094 34.199219 23.246094 C 34.535156 23.246094 35.023438 22.867188 35.199219 22.617188 C 35.53125 22.140625 35.726562 21.554688 35.714844 21.054688 C 35.710938 20.644531 35.613281 20.101562 35.367188 19.789062 C 35.261719 19.65625 35.144531 19.628906 35.003906 19.628906 C 35.003906 19.628906 35 19.628906 35 19.628906 Z M 35 19.628906 " fill-opacity="1" fill-rule="nonzero"/></svg>