<svg xmlns="http://www.w3.org/2000/svg" xmlns:xlink="http://www.w3.org/1999/xlink" width="1920" zoomAndPan="magnify" viewBox="0 0 1440 809.999993" height="1080" preserveAspectRatio="xMidYMid meet" version="1.0"><defs><clipPath id="4acd8536a2"><path d="M 384 429.359375 L 1055.894531 429.359375 L 1055.894531 607 L 384 607 Z M 384 429.359375 " clip-rule="nonzero"/></clipPath><clipPath id="812dd7ce3f"><path d="M 384 632 L 1055.894531 632 L 1055.894531 810 L 384 810 Z M 384 632 " clip-rule="nonzero"/></clipPath><clipPath id="822d787cb2"><path d="M 534.339844 0 L 905.589844 0 L 905.589844 390 L 534.339844 390 Z M 534.339844 0 " clip-rule="nonzero"/></clipPath></defs><path fill="#fcac3d" d="M 533.023438 706.550781 L 533.023438 695.359375 C 533.023438 694.4375 532.976562 693.515625 532.886719 692.59375 C 532.796875 691.675781 532.660156 690.761719 532.480469 689.855469 C 532.300781 688.949219 532.078125 688.054688 531.808594 687.167969 C 531.539062 686.285156 531.230469 685.414062 530.875 684.5625 C 530.523438 683.707031 530.128906 682.875 529.691406 682.058594 C 529.257812 681.242188 528.78125 680.453125 528.269531 679.683594 C 527.753906 678.914062 527.207031 678.175781 526.617188 677.460938 C 526.03125 676.746094 525.414062 676.0625 524.757812 675.40625 C 524.105469 674.753906 523.421875 674.136719 522.707031 673.546875 C 521.992188 672.960938 521.25 672.414062 520.484375 671.898438 C 519.714844 671.386719 518.921875 670.910156 518.109375 670.476562 C 517.292969 670.039062 516.460938 669.644531 515.605469 669.292969 C 514.75 668.9375 513.882812 668.628906 513 668.359375 C 512.113281 668.089844 511.21875 667.867188 510.3125 667.6875 C 509.40625 667.503906 508.492188 667.371094 507.574219 667.28125 C 506.652344 667.1875 505.730469 667.144531 504.808594 667.144531 C 503.882812 667.144531 502.960938 667.1875 502.042969 667.28125 C 501.121094 667.371094 500.210938 667.503906 499.300781 667.6875 C 498.394531 667.867188 497.5 668.089844 496.617188 668.359375 C 495.730469 668.628906 494.863281 668.9375 494.007812 669.292969 C 493.15625 669.644531 492.320312 670.039062 491.507812 670.476562 C 490.691406 670.910156 489.898438 671.386719 489.132812 671.898438 C 488.363281 672.414062 487.621094 672.960938 486.90625 673.546875 C 486.191406 674.136719 485.507812 674.753906 484.855469 675.40625 C 484.203125 676.0625 483.582031 676.746094 482.996094 677.460938 C 482.410156 678.175781 481.859375 678.914062 481.347656 679.683594 C 480.832031 680.453125 480.359375 681.242188 479.921875 682.058594 C 479.488281 682.875 479.09375 683.707031 478.738281 684.5625 C 478.386719 685.414062 478.074219 686.285156 477.804688 687.167969 C 477.539062 688.054688 477.3125 688.949219 477.132812 689.855469 C 476.953125 690.761719 476.816406 691.675781 476.726562 692.59375 C 476.636719 693.515625 476.589844 694.4375 476.589844 695.359375 L 476.589844 706.550781 C 475.730469 706.914062 474.902344 707.332031 474.101562 707.816406 C 473.304688 708.296875 472.542969 708.835938 471.824219 709.429688 C 471.105469 710.023438 470.429688 710.667969 469.804688 711.359375 C 469.179688 712.050781 468.609375 712.785156 468.09375 713.5625 C 467.574219 714.339844 467.117188 715.148438 466.71875 715.992188 C 466.320312 716.835938 465.984375 717.707031 465.714844 718.597656 C 465.445312 719.492188 465.238281 720.398438 465.101562 721.320312 C 464.964844 722.246094 464.894531 723.171875 464.894531 724.105469 L 464.894531 748.503906 C 464.894531 749.125 464.925781 749.746094 464.988281 750.367188 C 465.050781 750.988281 465.140625 751.601562 465.261719 752.214844 C 465.386719 752.824219 465.539062 753.429688 465.71875 754.027344 C 465.898438 754.621094 466.109375 755.207031 466.347656 755.78125 C 466.585938 756.359375 466.855469 756.921875 467.148438 757.46875 C 467.441406 758.019531 467.761719 758.554688 468.109375 759.070312 C 468.453125 759.589844 468.824219 760.089844 469.222656 760.570312 C 469.617188 761.054688 470.035156 761.515625 470.476562 761.953125 C 470.914062 762.394531 471.375 762.8125 471.859375 763.207031 C 472.339844 763.605469 472.839844 763.976562 473.359375 764.320312 C 473.875 764.667969 474.410156 764.988281 474.957031 765.28125 C 475.507812 765.574219 476.070312 765.84375 476.644531 766.082031 C 477.222656 766.320312 477.808594 766.53125 478.402344 766.710938 C 479 766.890625 479.605469 767.042969 480.214844 767.164062 C 480.824219 767.289062 481.441406 767.378906 482.0625 767.441406 C 482.679688 767.503906 483.304688 767.535156 483.925781 767.535156 L 525.6875 767.535156 C 526.3125 767.535156 526.933594 767.503906 527.554688 767.441406 C 528.171875 767.378906 528.789062 767.289062 529.398438 767.164062 C 530.011719 767.042969 530.613281 766.890625 531.210938 766.710938 C 531.808594 766.53125 532.394531 766.320312 532.96875 766.082031 C 533.542969 765.84375 534.105469 765.574219 534.65625 765.28125 C 535.207031 764.988281 535.738281 764.667969 536.257812 764.320312 C 536.773438 763.976562 537.273438 763.605469 537.757812 763.207031 C 538.238281 762.8125 538.699219 762.394531 539.140625 761.953125 C 539.582031 761.515625 540 761.054688 540.394531 760.570312 C 540.789062 760.089844 541.160156 759.589844 541.507812 759.070312 C 541.851562 758.554688 542.171875 758.019531 542.46875 757.46875 C 542.761719 756.921875 543.027344 756.359375 543.265625 755.78125 C 543.503906 755.207031 543.714844 754.621094 543.894531 754.027344 C 544.078125 753.429688 544.230469 752.824219 544.351562 752.214844 C 544.472656 751.601562 544.566406 750.988281 544.625 750.367188 C 544.6875 749.746094 544.71875 749.125 544.71875 748.503906 L 544.71875 724.105469 C 544.71875 723.171875 544.648438 722.246094 544.511719 721.320312 C 544.375 720.398438 544.171875 719.492188 543.898438 718.597656 C 543.628906 717.707031 543.292969 716.835938 542.894531 715.992188 C 542.496094 715.148438 542.039062 714.339844 541.523438 713.5625 C 541.003906 712.785156 540.433594 712.050781 539.808594 711.359375 C 539.183594 710.667969 538.511719 710.023438 537.789062 709.429688 C 537.070312 708.835938 536.3125 708.296875 535.511719 707.816406 C 534.714844 707.332031 533.882812 706.914062 533.023438 706.550781 Z M 489.277344 695.359375 C 489.28125 694.339844 489.378906 693.332031 489.578125 692.332031 C 489.78125 691.332031 490.074219 690.363281 490.464844 689.421875 C 490.855469 688.480469 491.335938 687.585938 491.902344 686.738281 C 492.46875 685.894531 493.113281 685.109375 493.832031 684.390625 C 494.554688 683.667969 495.335938 683.027344 496.183594 682.460938 C 497.03125 681.894531 497.925781 681.417969 498.867188 681.027344 C 499.808594 680.636719 500.78125 680.34375 501.78125 680.144531 C 502.777344 679.945312 503.789062 679.847656 504.808594 679.847656 C 505.828125 679.847656 506.835938 679.945312 507.835938 680.144531 C 508.835938 680.34375 509.804688 680.636719 510.746094 681.027344 C 511.6875 681.417969 512.582031 681.894531 513.429688 682.460938 C 514.277344 683.027344 515.0625 683.667969 515.78125 684.390625 C 516.503906 685.109375 517.148438 685.894531 517.714844 686.742188 C 518.28125 687.585938 518.757812 688.480469 519.148438 689.421875 C 519.539062 690.363281 519.835938 691.332031 520.035156 692.332031 C 520.234375 693.332031 520.335938 694.339844 520.335938 695.359375 L 520.335938 705.074219 L 489.277344 705.074219 Z M 532.03125 748.503906 C 532.03125 748.917969 531.992188 749.332031 531.910156 749.738281 C 531.828125 750.148438 531.707031 750.546875 531.546875 750.929688 C 531.386719 751.3125 531.191406 751.679688 530.960938 752.027344 C 530.730469 752.371094 530.464844 752.691406 530.171875 752.988281 C 529.878906 753.28125 529.558594 753.542969 529.210938 753.773438 C 528.863281 754.007812 528.5 754.203125 528.113281 754.363281 C 527.730469 754.523438 527.332031 754.640625 526.925781 754.722656 C 526.515625 754.804688 526.105469 754.847656 525.6875 754.847656 L 483.925781 754.847656 C 483.511719 754.847656 483.097656 754.804688 482.6875 754.722656 C 482.28125 754.640625 481.882812 754.523438 481.5 754.363281 C 481.117188 754.203125 480.75 754.007812 480.402344 753.777344 C 480.058594 753.542969 479.738281 753.28125 479.441406 752.988281 C 479.148438 752.691406 478.886719 752.371094 478.652344 752.027344 C 478.421875 751.679688 478.226562 751.3125 478.066406 750.929688 C 477.90625 750.546875 477.789062 750.148438 477.707031 749.738281 C 477.625 749.332031 477.582031 748.917969 477.582031 748.503906 L 477.582031 724.105469 C 477.582031 723.691406 477.625 723.277344 477.707031 722.871094 C 477.789062 722.460938 477.90625 722.0625 478.066406 721.679688 C 478.226562 721.296875 478.421875 720.929688 478.652344 720.582031 C 478.886719 720.238281 479.148438 719.917969 479.441406 719.621094 C 479.738281 719.328125 480.058594 719.066406 480.402344 718.835938 C 480.75 718.601562 481.117188 718.40625 481.5 718.246094 C 481.882812 718.085938 482.28125 717.96875 482.6875 717.886719 C 483.097656 717.804688 483.511719 717.761719 483.925781 717.761719 L 525.6875 717.761719 C 526.105469 717.761719 526.515625 717.804688 526.925781 717.886719 C 527.332031 717.96875 527.730469 718.085938 528.113281 718.246094 C 528.5 718.40625 528.863281 718.601562 529.210938 718.832031 C 529.558594 719.066406 529.878906 719.328125 530.171875 719.621094 C 530.464844 719.917969 530.730469 720.238281 530.960938 720.582031 C 531.191406 720.929688 531.386719 721.296875 531.546875 721.679688 C 531.707031 722.0625 531.828125 722.460938 531.910156 722.867188 C 531.992188 723.277344 532.03125 723.691406 532.03125 724.105469 Z M 532.03125 748.503906 " fill-opacity="1" fill-rule="nonzero"/><g clip-path="url(#4acd8536a2)"><path fill="#fcac3d" d="M 473.214844 606.992188 L 968.042969 606.992188 C 969.496094 606.992188 970.949219 606.957031 972.398438 606.882812 C 973.851562 606.8125 975.300781 606.707031 976.746094 606.5625 C 978.195312 606.421875 979.636719 606.242188 981.074219 606.03125 C 982.511719 605.816406 983.945312 605.566406 985.371094 605.285156 C 986.792969 605 988.210938 604.683594 989.621094 604.328125 C 991.03125 603.976562 992.433594 603.589844 993.824219 603.167969 C 995.214844 602.746094 996.59375 602.289062 997.964844 601.800781 C 999.332031 601.308594 1000.6875 600.785156 1002.03125 600.230469 C 1003.375 599.675781 1004.703125 599.085938 1006.015625 598.464844 C 1007.328125 597.84375 1008.628906 597.1875 1009.910156 596.503906 C 1011.191406 595.820312 1012.457031 595.101562 1013.703125 594.355469 C 1014.949219 593.609375 1016.175781 592.832031 1017.386719 592.023438 C 1018.59375 591.214844 1019.78125 590.378906 1020.949219 589.511719 C 1022.117188 588.648438 1023.261719 587.753906 1024.386719 586.832031 C 1025.511719 585.910156 1026.609375 584.960938 1027.6875 583.984375 C 1028.765625 583.007812 1029.816406 582.003906 1030.84375 580.976562 C 1031.871094 579.949219 1032.875 578.898438 1033.851562 577.820312 C 1034.828125 576.742188 1035.773438 575.644531 1036.699219 574.519531 C 1037.621094 573.394531 1038.511719 572.25 1039.378906 571.082031 C 1040.246094 569.914062 1041.082031 568.726562 1041.890625 567.519531 C 1042.695312 566.308594 1043.472656 565.082031 1044.222656 563.835938 C 1044.96875 562.589844 1045.683594 561.324219 1046.371094 560.042969 C 1047.054688 558.761719 1047.707031 557.464844 1048.332031 556.148438 C 1048.953125 554.835938 1049.539062 553.507812 1050.097656 552.164062 C 1050.652344 550.820312 1051.175781 549.464844 1051.664062 548.097656 C 1052.15625 546.726562 1052.609375 545.347656 1053.035156 543.957031 C 1053.457031 542.566406 1053.84375 541.167969 1054.195312 539.757812 C 1054.550781 538.347656 1054.867188 536.929688 1055.152344 535.503906 C 1055.433594 534.078125 1055.683594 532.644531 1055.894531 531.207031 C 1056.109375 529.769531 1056.289062 528.328125 1056.429688 526.882812 C 1056.574219 525.433594 1056.679688 523.984375 1056.75 522.535156 C 1056.820312 521.082031 1056.859375 519.628906 1056.859375 518.175781 C 1056.859375 516.722656 1056.820312 515.269531 1056.75 513.816406 C 1056.679688 512.367188 1056.574219 510.917969 1056.429688 509.46875 C 1056.289062 508.023438 1056.109375 506.582031 1055.894531 505.144531 C 1055.683594 503.707031 1055.433594 502.273438 1055.152344 500.847656 C 1054.867188 499.421875 1054.550781 498.003906 1054.195312 496.59375 C 1053.84375 495.183594 1053.457031 493.785156 1053.035156 492.394531 C 1052.609375 491.003906 1052.15625 489.625 1051.664062 488.253906 C 1051.175781 486.886719 1050.652344 485.53125 1050.097656 484.1875 C 1049.539062 482.84375 1048.953125 481.515625 1048.332031 480.203125 C 1047.707031 478.886719 1047.054688 477.589844 1046.371094 476.308594 C 1045.683594 475.027344 1044.96875 473.761719 1044.222656 472.515625 C 1043.472656 471.269531 1042.695312 470.042969 1041.890625 468.832031 C 1041.082031 467.625 1040.246094 466.4375 1039.378906 465.269531 C 1038.511719 464.101562 1037.621094 462.957031 1036.699219 461.832031 C 1035.777344 460.707031 1034.828125 459.609375 1033.851562 458.53125 C 1032.875 457.453125 1031.871094 456.402344 1030.84375 455.375 C 1029.816406 454.347656 1028.765625 453.34375 1027.6875 452.367188 C 1026.609375 451.390625 1025.511719 450.441406 1024.386719 449.519531 C 1023.261719 448.597656 1022.117188 447.703125 1020.949219 446.839844 C 1019.78125 445.972656 1018.59375 445.136719 1017.386719 444.328125 C 1016.175781 443.519531 1014.949219 442.742188 1013.703125 441.996094 C 1012.457031 441.25 1011.191406 440.53125 1009.910156 439.847656 C 1008.628906 439.164062 1007.328125 438.507812 1006.015625 437.886719 C 1004.703125 437.265625 1003.375 436.675781 1002.03125 436.121094 C 1000.6875 435.566406 999.332031 435.042969 997.964844 434.550781 C 996.59375 434.0625 995.214844 433.605469 993.824219 433.183594 C 992.433594 432.761719 991.03125 432.375 989.621094 432.023438 C 988.210938 431.667969 986.792969 431.351562 985.371094 431.066406 C 983.945312 430.785156 982.511719 430.535156 981.074219 430.320312 C 979.636719 430.109375 978.195312 429.929688 976.746094 429.789062 C 975.300781 429.644531 973.851562 429.539062 972.398438 429.46875 C 970.949219 429.394531 969.496094 429.359375 968.042969 429.359375 L 473.214844 429.359375 C 471.761719 429.359375 470.308594 429.394531 468.855469 429.46875 C 467.40625 429.539062 465.957031 429.644531 464.507812 429.789062 C 463.0625 429.929688 461.621094 430.109375 460.183594 430.320312 C 458.746094 430.535156 457.3125 430.785156 455.886719 431.066406 C 454.460938 431.351562 453.042969 431.667969 451.632812 432.023438 C 450.222656 432.375 448.824219 432.761719 447.433594 433.183594 C 446.042969 433.605469 444.664062 434.0625 443.292969 434.550781 C 441.925781 435.042969 440.570312 435.566406 439.226562 436.121094 C 437.882812 436.675781 436.554688 437.265625 435.242188 437.886719 C 433.925781 438.507812 432.628906 439.164062 431.347656 439.847656 C 430.066406 440.53125 428.800781 441.25 427.554688 441.996094 C 426.308594 442.742188 425.082031 443.519531 423.871094 444.328125 C 422.664062 445.136719 421.476562 445.972656 420.308594 446.839844 C 419.140625 447.703125 417.996094 448.597656 416.871094 449.519531 C 415.746094 450.441406 414.648438 451.390625 413.570312 452.367188 C 412.492188 453.34375 411.441406 454.347656 410.414062 455.375 C 409.386719 456.402344 408.382812 457.453125 407.40625 458.53125 C 406.429688 459.609375 405.480469 460.707031 404.558594 461.832031 C 403.636719 462.957031 402.742188 464.101562 401.878906 465.269531 C 401.011719 466.4375 400.175781 467.625 399.367188 468.832031 C 398.558594 470.042969 397.78125 471.269531 397.035156 472.515625 C 396.289062 473.761719 395.570312 475.027344 394.886719 476.308594 C 394.203125 477.589844 393.546875 478.886719 392.925781 480.203125 C 392.304688 481.515625 391.714844 482.84375 391.160156 484.1875 C 390.605469 485.53125 390.082031 486.886719 389.589844 488.253906 C 389.101562 489.625 388.644531 491.003906 388.222656 492.394531 C 387.800781 493.785156 387.414062 495.183594 387.0625 496.59375 C 386.707031 498.003906 386.390625 499.421875 386.105469 500.847656 C 385.824219 502.273438 385.574219 503.707031 385.359375 505.144531 C 385.148438 506.582031 384.96875 508.023438 384.828125 509.46875 C 384.683594 510.917969 384.578125 512.367188 384.507812 513.816406 C 384.433594 515.269531 384.398438 516.722656 384.398438 518.175781 C 384.398438 519.628906 384.433594 521.082031 384.507812 522.535156 C 384.578125 523.984375 384.683594 525.433594 384.828125 526.882812 C 384.96875 528.328125 385.148438 529.769531 385.359375 531.207031 C 385.574219 532.644531 385.824219 534.078125 386.105469 535.503906 C 386.390625 536.929688 386.707031 538.347656 387.0625 539.757812 C 387.414062 541.167969 387.800781 542.566406 388.222656 543.957031 C 388.644531 545.347656 389.101562 546.726562 389.589844 548.097656 C 390.082031 549.464844 390.605469 550.820312 391.160156 552.164062 C 391.714844 553.507812 392.304688 554.835938 392.925781 556.148438 C 393.546875 557.464844 394.203125 558.761719 394.886719 560.042969 C 395.570312 561.324219 396.289062 562.589844 397.035156 563.835938 C 397.78125 565.082031 398.558594 566.308594 399.367188 567.519531 C 400.175781 568.726562 401.011719 569.914062 401.878906 571.082031 C 402.742188 572.25 403.636719 573.394531 404.558594 574.519531 C 405.480469 575.644531 406.429688 576.742188 407.40625 577.820312 C 408.382812 578.898438 409.386719 579.949219 410.414062 580.976562 C 411.441406 582.003906 412.492188 583.007812 413.570312 583.984375 C 414.648438 584.960938 415.746094 585.910156 416.871094 586.832031 C 417.996094 587.753906 419.140625 588.648438 420.308594 589.511719 C 421.476562 590.378906 422.664062 591.214844 423.871094 592.023438 C 425.082031 592.832031 426.308594 593.609375 427.554688 594.355469 C 428.800781 595.101562 430.066406 595.820312 431.347656 596.503906 C 432.628906 597.1875 433.925781 597.84375 435.242188 598.464844 C 436.554688 599.085938 437.882812 599.675781 439.226562 600.230469 C 440.570312 600.785156 441.925781 601.308594 443.292969 601.800781 C 444.664062 602.289062 446.042969 602.746094 447.433594 603.167969 C 448.824219 603.589844 450.222656 603.976562 451.632812 604.328125 C 453.042969 604.683594 454.460938 605 455.886719 605.285156 C 457.3125 605.566406 458.746094 605.816406 460.183594 606.03125 C 461.621094 606.242188 463.0625 606.421875 464.507812 606.5625 C 465.957031 606.707031 467.40625 606.8125 468.855469 606.882812 C 470.308594 606.957031 471.761719 606.992188 473.214844 606.992188 Z M 1044.167969 518.175781 C 1044.167969 519.421875 1044.136719 520.664062 1044.074219 521.910156 C 1044.011719 523.152344 1043.917969 524.394531 1043.796875 525.636719 C 1043.671875 526.875 1043.519531 528.109375 1043.335938 529.34375 C 1043.152344 530.574219 1042.9375 531.800781 1042.691406 533.023438 C 1042.449219 534.242188 1042.175781 535.457031 1041.871094 536.664062 C 1041.566406 537.875 1041.234375 539.074219 1040.871094 540.265625 C 1040.511719 541.457031 1040.121094 542.640625 1039.699219 543.8125 C 1039.277344 544.984375 1038.828125 546.144531 1038.351562 547.296875 C 1037.875 548.445312 1037.371094 549.585938 1036.835938 550.710938 C 1036.304688 551.835938 1035.742188 552.949219 1035.15625 554.046875 C 1034.570312 555.144531 1033.953125 556.226562 1033.3125 557.296875 C 1032.671875 558.363281 1032.007812 559.414062 1031.3125 560.449219 C 1030.621094 561.484375 1029.90625 562.503906 1029.164062 563.503906 C 1028.421875 564.503906 1027.65625 565.484375 1026.863281 566.449219 C 1026.074219 567.410156 1025.261719 568.351562 1024.425781 569.277344 C 1023.585938 570.199219 1022.730469 571.101562 1021.847656 571.980469 C 1020.96875 572.863281 1020.066406 573.722656 1019.144531 574.558594 C 1018.21875 575.394531 1017.277344 576.207031 1016.316406 576.996094 C 1015.351562 577.789062 1014.371094 578.554688 1013.371094 579.296875 C 1012.371094 580.039062 1011.351562 580.753906 1010.316406 581.449219 C 1009.28125 582.140625 1008.230469 582.804688 1007.160156 583.445312 C 1006.09375 584.085938 1005.011719 584.703125 1003.910156 585.289062 C 1002.8125 585.878906 1001.703125 586.4375 1000.578125 586.96875 C 999.449219 587.503906 998.3125 588.007812 997.164062 588.484375 C 996.011719 588.964844 994.851562 589.410156 993.679688 589.832031 C 992.503906 590.253906 991.324219 590.644531 990.132812 591.007812 C 988.941406 591.367188 987.738281 591.703125 986.53125 592.003906 C 985.324219 592.308594 984.109375 592.582031 982.886719 592.828125 C 981.667969 593.070312 980.441406 593.285156 979.207031 593.46875 C 977.976562 593.652344 976.742188 593.804688 975.5 593.929688 C 974.261719 594.050781 973.019531 594.144531 971.777344 594.207031 C 970.53125 594.269531 969.289062 594.300781 968.042969 594.304688 L 604.660156 594.304688 L 604.660156 442.046875 L 968.042969 442.046875 C 969.289062 442.050781 970.53125 442.082031 971.777344 442.144531 C 973.019531 442.207031 974.261719 442.300781 975.5 442.421875 C 976.742188 442.546875 977.976562 442.699219 979.207031 442.882812 C 980.441406 443.066406 981.667969 443.28125 982.886719 443.523438 C 984.109375 443.769531 985.324219 444.042969 986.53125 444.347656 C 987.738281 444.648438 988.941406 444.984375 990.132812 445.34375 C 991.324219 445.707031 992.503906 446.097656 993.679688 446.519531 C 994.851562 446.941406 996.011719 447.386719 997.164062 447.867188 C 998.3125 448.34375 999.449219 448.847656 1000.578125 449.382812 C 1001.703125 449.914062 1002.8125 450.472656 1003.910156 451.0625 C 1005.011719 451.648438 1006.09375 452.265625 1007.160156 452.90625 C 1008.230469 453.546875 1009.28125 454.210938 1010.316406 454.902344 C 1011.351562 455.597656 1012.371094 456.3125 1013.371094 457.054688 C 1014.371094 457.796875 1015.351562 458.5625 1016.316406 459.355469 C 1017.277344 460.144531 1018.21875 460.957031 1019.144531 461.792969 C 1020.066406 462.628906 1020.96875 463.488281 1021.847656 464.371094 C 1022.730469 465.25 1023.585938 466.152344 1024.425781 467.074219 C 1025.261719 467.996094 1026.074219 468.941406 1026.863281 469.902344 C 1027.652344 470.867188 1028.421875 471.847656 1029.164062 472.847656 C 1029.90625 473.847656 1030.621094 474.867188 1031.3125 475.902344 C 1032.007812 476.9375 1032.671875 477.988281 1033.3125 479.054688 C 1033.953125 480.125 1034.570312 481.207031 1035.15625 482.304688 C 1035.742188 483.402344 1036.304688 484.515625 1036.835938 485.640625 C 1037.371094 486.765625 1037.875 487.90625 1038.351562 489.054688 C 1038.828125 490.207031 1039.277344 491.367188 1039.699219 492.539062 C 1040.121094 493.710938 1040.511719 494.894531 1040.871094 496.085938 C 1041.234375 497.277344 1041.566406 498.476562 1041.871094 499.6875 C 1042.175781 500.894531 1042.449219 502.109375 1042.691406 503.328125 C 1042.9375 504.550781 1043.152344 505.777344 1043.335938 507.007812 C 1043.519531 508.242188 1043.671875 509.476562 1043.796875 510.714844 C 1043.917969 511.957031 1044.011719 513.199219 1044.074219 514.441406 C 1044.136719 515.683594 1044.167969 516.929688 1044.167969 518.175781 Z M 473.214844 442.046875 L 591.972656 442.046875 L 591.972656 594.304688 L 473.214844 594.304688 C 471.96875 594.304688 470.722656 594.273438 469.480469 594.210938 C 468.234375 594.148438 466.992188 594.058594 465.753906 593.9375 C 464.511719 593.8125 463.277344 593.660156 462.042969 593.480469 C 460.8125 593.296875 459.585938 593.082031 458.363281 592.839844 C 457.140625 592.597656 455.925781 592.324219 454.71875 592.023438 C 453.507812 591.71875 452.308594 591.386719 451.117188 591.023438 C 449.925781 590.664062 448.742188 590.273438 447.566406 589.851562 C 446.394531 589.433594 445.234375 588.984375 444.082031 588.507812 C 442.929688 588.03125 441.792969 587.527344 440.667969 586.992188 C 439.539062 586.460938 438.425781 585.902344 437.328125 585.3125 C 436.230469 584.726562 435.144531 584.113281 434.078125 583.472656 C 433.007812 582.832031 431.957031 582.164062 430.921875 581.472656 C 429.882812 580.78125 428.867188 580.0625 427.867188 579.320312 C 426.863281 578.578125 425.882812 577.8125 424.921875 577.023438 C 423.957031 576.234375 423.015625 575.417969 422.089844 574.582031 C 421.167969 573.746094 420.265625 572.886719 419.382812 572.007812 C 418.503906 571.125 417.644531 570.222656 416.808594 569.300781 C 415.972656 568.375 415.15625 567.433594 414.367188 566.46875 C 413.578125 565.507812 412.8125 564.527344 412.070312 563.523438 C 411.328125 562.523438 410.609375 561.503906 409.917969 560.46875 C 409.226562 559.433594 408.558594 558.382812 407.917969 557.3125 C 407.277344 556.246094 406.664062 555.160156 406.078125 554.0625 C 405.488281 552.964844 404.929688 551.851562 404.394531 550.722656 C 403.863281 549.597656 403.359375 548.460938 402.882812 547.308594 C 402.40625 546.15625 401.957031 544.996094 401.539062 543.824219 C 401.117188 542.648438 400.726562 541.464844 400.367188 540.273438 C 400.003906 539.082031 399.671875 537.882812 399.367188 536.671875 C 399.066406 535.464844 398.792969 534.25 398.550781 533.027344 C 398.308594 531.804688 398.09375 530.578125 397.910156 529.347656 C 397.726562 528.113281 397.574219 526.878906 397.453125 525.636719 C 397.332031 524.398438 397.238281 523.15625 397.179688 521.910156 C 397.117188 520.667969 397.085938 519.421875 397.085938 518.175781 C 397.085938 516.929688 397.117188 515.683594 397.179688 514.441406 C 397.238281 513.195312 397.332031 511.953125 397.453125 510.714844 C 397.574219 509.472656 397.726562 508.238281 397.910156 507.003906 C 398.09375 505.773438 398.308594 504.546875 398.550781 503.324219 C 398.792969 502.101562 399.066406 500.886719 399.367188 499.679688 C 399.671875 498.46875 400.003906 497.269531 400.367188 496.078125 C 400.726562 494.886719 401.117188 493.703125 401.539062 492.527344 C 401.957031 491.355469 402.40625 490.195312 402.882812 489.042969 C 403.359375 487.890625 403.863281 486.753906 404.394531 485.628906 C 404.929688 484.5 405.488281 483.386719 406.078125 482.289062 C 406.664062 481.191406 407.277344 480.105469 407.917969 479.039062 C 408.558594 477.96875 409.226562 476.917969 409.917969 475.882812 C 410.609375 474.847656 411.328125 473.828125 412.070312 472.828125 C 412.8125 471.824219 413.578125 470.84375 414.367188 469.882812 C 415.15625 468.917969 415.972656 467.976562 416.808594 467.050781 C 417.644531 466.128906 418.503906 465.226562 419.382812 464.34375 C 420.265625 463.464844 421.167969 462.605469 422.089844 461.769531 C 423.015625 460.933594 423.957031 460.117188 424.921875 459.328125 C 425.882812 458.539062 426.863281 457.773438 427.867188 457.03125 C 428.867188 456.289062 429.882812 455.570312 430.921875 454.878906 C 431.957031 454.1875 433.007812 453.519531 434.078125 452.878906 C 435.144531 452.238281 436.230469 451.625 437.328125 451.039062 C 438.425781 450.449219 439.539062 449.890625 440.667969 449.359375 C 441.792969 448.824219 442.929688 448.320312 444.082031 447.84375 C 445.234375 447.367188 446.394531 446.917969 447.566406 446.5 C 448.742188 446.078125 449.925781 445.6875 451.117188 445.328125 C 452.308594 444.964844 453.507812 444.632812 454.71875 444.328125 C 455.925781 444.027344 457.140625 443.753906 458.363281 443.511719 C 459.585938 443.269531 460.8125 443.054688 462.042969 442.871094 C 463.277344 442.691406 464.511719 442.539062 465.753906 442.414062 C 466.992188 442.292969 468.234375 442.203125 469.480469 442.140625 C 470.722656 442.078125 471.96875 442.046875 473.214844 442.046875 Z M 473.214844 442.046875 " fill-opacity="1" fill-rule="nonzero"/></g><path fill="#fcac3d" d="M 503.558594 514.148438 C 504.527344 514.148438 505.496094 514.101562 506.460938 514.007812 C 507.425781 513.910156 508.386719 513.769531 509.335938 513.582031 C 510.289062 513.390625 511.230469 513.15625 512.15625 512.875 C 513.085938 512.59375 514 512.269531 514.894531 511.898438 C 515.789062 511.527344 516.667969 511.113281 517.523438 510.65625 C 518.378906 510.199219 519.210938 509.699219 520.015625 509.160156 C 520.824219 508.621094 521.601562 508.042969 522.351562 507.429688 C 523.101562 506.8125 523.820312 506.164062 524.503906 505.476562 C 525.191406 504.792969 525.84375 504.074219 526.457031 503.324219 C 527.074219 502.574219 527.648438 501.796875 528.191406 500.992188 C 528.730469 500.183594 529.226562 499.351562 529.683594 498.496094 C 530.140625 497.640625 530.554688 496.765625 530.925781 495.871094 C 531.300781 494.972656 531.625 494.0625 531.90625 493.132812 C 532.1875 492.207031 532.425781 491.265625 532.613281 490.3125 C 532.804688 489.363281 532.945312 488.402344 533.042969 487.4375 C 533.136719 486.472656 533.183594 485.503906 533.183594 484.535156 C 533.183594 483.566406 533.136719 482.597656 533.042969 481.632812 C 532.949219 480.667969 532.804688 479.707031 532.617188 478.757812 C 532.429688 477.804688 532.191406 476.867188 531.910156 475.9375 C 531.628906 475.007812 531.304688 474.097656 530.933594 473.199219 C 530.5625 472.304688 530.148438 471.429688 529.691406 470.574219 C 529.234375 469.714844 528.734375 468.886719 528.195312 468.078125 C 527.65625 467.273438 527.082031 466.492188 526.464844 465.742188 C 525.851562 464.992188 525.199219 464.277344 524.515625 463.589844 C 523.828125 462.902344 523.109375 462.253906 522.359375 461.636719 C 521.609375 461.023438 520.832031 460.445312 520.027344 459.90625 C 519.21875 459.367188 518.390625 458.867188 517.535156 458.410156 C 516.679688 457.953125 515.800781 457.539062 514.90625 457.167969 C 514.011719 456.796875 513.097656 456.46875 512.167969 456.1875 C 511.242188 455.90625 510.300781 455.667969 509.351562 455.480469 C 508.398438 455.289062 507.441406 455.148438 506.476562 455.054688 C 505.507812 454.957031 504.542969 454.910156 503.570312 454.910156 C 502.601562 454.910156 501.632812 454.957031 500.667969 455.050781 C 499.703125 455.148438 498.746094 455.289062 497.792969 455.476562 C 496.839844 455.667969 495.902344 455.902344 494.972656 456.183594 C 494.042969 456.464844 493.132812 456.789062 492.234375 457.160156 C 491.339844 457.53125 490.464844 457.945312 489.609375 458.402344 C 488.753906 458.859375 487.921875 459.359375 487.113281 459.898438 C 486.308594 460.4375 485.53125 461.011719 484.78125 461.628906 C 484.03125 462.246094 483.3125 462.894531 482.625 463.582031 C 481.9375 464.265625 481.289062 464.984375 480.671875 465.734375 C 480.058594 466.484375 479.480469 467.261719 478.941406 468.066406 C 478.402344 468.875 477.902344 469.707031 477.445312 470.5625 C 476.988281 471.417969 476.574219 472.292969 476.203125 473.1875 C 475.832031 474.085938 475.503906 474.996094 475.222656 475.925781 C 474.941406 476.851562 474.707031 477.792969 474.515625 478.746094 C 474.328125 479.695312 474.183594 480.652344 474.089844 481.621094 C 473.992188 482.585938 473.945312 483.550781 473.945312 484.523438 C 473.945312 485.492188 473.996094 486.460938 474.089844 487.425781 C 474.1875 488.390625 474.328125 489.347656 474.519531 490.300781 C 474.710938 491.25 474.945312 492.1875 475.226562 493.117188 C 475.507812 494.046875 475.835938 494.957031 476.207031 495.851562 C 476.578125 496.75 476.992188 497.625 477.449219 498.480469 C 477.90625 499.335938 478.40625 500.164062 478.945312 500.972656 C 479.484375 501.777344 480.058594 502.554688 480.675781 503.304688 C 481.289062 504.054688 481.941406 504.773438 482.625 505.457031 C 483.3125 506.144531 484.03125 506.796875 484.777344 507.410156 C 485.527344 508.027344 486.304688 508.605469 487.113281 509.144531 C 487.917969 509.683594 488.75 510.179688 489.605469 510.636719 C 490.457031 511.097656 491.335938 511.511719 492.230469 511.882812 C 493.125 512.253906 494.039062 512.582031 494.964844 512.863281 C 495.894531 513.144531 496.832031 513.382812 497.78125 513.574219 C 498.734375 513.761719 499.691406 513.90625 500.65625 514.003906 C 501.621094 514.097656 502.589844 514.148438 503.558594 514.148438 Z M 503.558594 467.597656 C 504.113281 467.597656 504.667969 467.625 505.21875 467.679688 C 505.769531 467.734375 506.320312 467.8125 506.863281 467.921875 C 507.40625 468.03125 507.945312 468.164062 508.476562 468.324219 C 509.003906 468.484375 509.527344 468.671875 510.039062 468.882812 C 510.550781 469.097656 511.054688 469.332031 511.542969 469.59375 C 512.03125 469.855469 512.507812 470.140625 512.96875 470.449219 C 513.429688 470.757812 513.875 471.085938 514.304688 471.4375 C 514.730469 471.789062 515.140625 472.160156 515.535156 472.554688 C 515.925781 472.945312 516.300781 473.355469 516.652344 473.785156 C 517.003906 474.214844 517.332031 474.660156 517.640625 475.121094 C 517.949219 475.582031 518.234375 476.054688 518.496094 476.546875 C 518.757812 477.035156 518.996094 477.535156 519.207031 478.046875 C 519.417969 478.558594 519.605469 479.082031 519.765625 479.613281 C 519.929688 480.140625 520.0625 480.679688 520.171875 481.222656 C 520.277344 481.769531 520.359375 482.316406 520.414062 482.867188 C 520.46875 483.417969 520.496094 483.972656 520.496094 484.527344 C 520.496094 485.082031 520.46875 485.636719 520.414062 486.1875 C 520.359375 486.738281 520.28125 487.289062 520.171875 487.832031 C 520.0625 488.375 519.929688 488.914062 519.769531 489.441406 C 519.605469 489.972656 519.421875 490.496094 519.207031 491.007812 C 518.996094 491.519531 518.757812 492.019531 518.496094 492.511719 C 518.238281 493 517.953125 493.476562 517.644531 493.9375 C 517.335938 494.398438 517.003906 494.84375 516.652344 495.269531 C 516.300781 495.699219 515.929688 496.109375 515.539062 496.503906 C 515.144531 496.894531 514.734375 497.265625 514.304688 497.617188 C 513.878906 497.96875 513.433594 498.300781 512.972656 498.609375 C 512.511719 498.917969 512.035156 499.199219 511.546875 499.460938 C 511.058594 499.722656 510.554688 499.960938 510.042969 500.171875 C 509.53125 500.386719 509.007812 500.570312 508.480469 500.734375 C 507.949219 500.894531 507.410156 501.027344 506.867188 501.136719 C 506.324219 501.246094 505.773438 501.324219 505.222656 501.378906 C 504.671875 501.433594 504.117188 501.460938 503.5625 501.460938 C 503.007812 501.460938 502.457031 501.433594 501.902344 501.378906 C 501.351562 501.324219 500.804688 501.242188 500.257812 501.136719 C 499.714844 501.027344 499.179688 500.890625 498.648438 500.730469 C 498.117188 500.570312 497.59375 500.382812 497.082031 500.171875 C 496.570312 499.957031 496.070312 499.722656 495.582031 499.460938 C 495.089844 499.199219 494.617188 498.914062 494.15625 498.605469 C 493.695312 498.296875 493.25 497.96875 492.820312 497.617188 C 492.390625 497.261719 491.980469 496.890625 491.589844 496.5 C 491.199219 496.105469 490.824219 495.695312 490.472656 495.265625 C 490.121094 494.839844 489.792969 494.394531 489.484375 493.933594 C 489.175781 493.472656 488.890625 492.996094 488.628906 492.507812 C 488.367188 492.015625 488.132812 491.515625 487.921875 491.003906 C 487.707031 490.492188 487.523438 489.96875 487.359375 489.4375 C 487.199219 488.910156 487.066406 488.371094 486.957031 487.828125 C 486.847656 487.28125 486.769531 486.734375 486.714844 486.183594 C 486.660156 485.632812 486.632812 485.078125 486.632812 484.523438 C 486.632812 483.96875 486.660156 483.417969 486.71875 482.863281 C 486.773438 482.3125 486.855469 481.765625 486.960938 481.222656 C 487.070312 480.679688 487.207031 480.144531 487.367188 479.613281 C 487.527344 479.082031 487.714844 478.5625 487.929688 478.050781 C 488.140625 477.539062 488.378906 477.039062 488.636719 476.550781 C 488.898438 476.058594 489.183594 475.585938 489.492188 475.125 C 489.800781 474.664062 490.128906 474.21875 490.480469 473.792969 C 490.832031 473.363281 491.207031 472.953125 491.597656 472.5625 C 491.988281 472.167969 492.398438 471.796875 492.828125 471.445312 C 493.253906 471.09375 493.699219 470.765625 494.160156 470.457031 C 494.621094 470.148438 495.097656 469.863281 495.585938 469.601562 C 496.074219 469.339844 496.574219 469.105469 497.085938 468.890625 C 497.597656 468.679688 498.117188 468.492188 498.648438 468.332031 C 499.179688 468.171875 499.714844 468.035156 500.257812 467.925781 C 500.800781 467.816406 501.347656 467.734375 501.902344 467.679688 C 502.453125 467.625 503.003906 467.597656 503.558594 467.597656 Z M 503.558594 467.597656 " fill-opacity="1" fill-rule="nonzero"/><path fill="#fcac3d" d="M 454.183594 576.0625 L 553.082031 576.0625 C 553.460938 576.0625 553.832031 576.03125 554.199219 575.964844 C 554.570312 575.898438 554.929688 575.800781 555.28125 575.671875 C 555.636719 575.539062 555.972656 575.378906 556.296875 575.191406 C 556.621094 575 556.925781 574.785156 557.210938 574.539062 C 557.496094 574.296875 557.757812 574.027344 557.992188 573.738281 C 558.230469 573.449219 558.441406 573.140625 558.625 572.8125 C 558.808594 572.484375 558.960938 572.140625 559.082031 571.789062 C 559.207031 571.433594 559.296875 571.070312 559.355469 570.699219 C 559.527344 569.378906 559.648438 568.054688 559.710938 566.726562 C 559.777344 565.398438 559.785156 564.066406 559.738281 562.738281 C 559.695312 561.40625 559.59375 560.082031 559.441406 558.757812 C 559.285156 557.4375 559.074219 556.125 558.8125 554.820312 C 558.550781 553.515625 558.234375 552.222656 557.863281 550.945312 C 557.492188 549.664062 557.070312 548.40625 556.597656 547.160156 C 556.125 545.917969 555.597656 544.695312 555.023438 543.496094 C 554.449219 542.292969 553.824219 541.121094 553.152344 539.972656 C 552.480469 538.820312 551.765625 537.703125 551 536.613281 C 550.234375 535.523438 549.425781 534.46875 548.574219 533.445312 C 547.722656 532.421875 546.832031 531.433594 545.898438 530.484375 C 544.964844 529.535156 543.996094 528.628906 542.988281 527.757812 C 541.980469 526.890625 540.9375 526.0625 539.859375 525.28125 C 538.785156 524.496094 537.679688 523.761719 536.542969 523.070312 C 535.402344 522.378906 534.242188 521.734375 533.050781 521.136719 C 531.859375 520.542969 530.648438 519.996094 529.410156 519.5 C 525.40625 517.847656 521.28125 516.574219 517.039062 515.6875 C 512.796875 514.804688 508.507812 514.316406 504.175781 514.230469 C 499.839844 514.140625 495.539062 514.457031 491.261719 515.171875 C 486.988281 515.886719 482.816406 516.992188 478.746094 518.484375 C 477.460938 518.960938 476.199219 519.488281 474.957031 520.074219 C 473.714844 520.65625 472.503906 521.292969 471.316406 521.980469 C 470.132812 522.667969 468.976562 523.402344 467.851562 524.191406 C 466.730469 524.976562 465.644531 525.808594 464.589844 526.6875 C 463.539062 527.570312 462.527344 528.492188 461.554688 529.457031 C 460.582031 530.421875 459.652344 531.429688 458.765625 532.476562 C 457.878906 533.519531 457.039062 534.601562 456.246094 535.71875 C 455.453125 536.839844 454.707031 537.988281 454.011719 539.167969 C 453.316406 540.351562 452.671875 541.558594 452.082031 542.796875 C 451.488281 544.03125 450.953125 545.292969 450.46875 546.574219 C 449.984375 547.859375 449.554688 549.160156 449.183594 550.480469 C 448.8125 551.796875 448.496094 553.132812 448.238281 554.476562 C 447.980469 555.824219 447.777344 557.179688 447.636719 558.542969 C 447.496094 559.90625 447.410156 561.273438 447.386719 562.644531 C 447.359375 564.015625 447.394531 565.382812 447.488281 566.75 C 447.578125 568.121094 447.730469 569.480469 447.9375 570.835938 C 448.070312 571.570312 448.320312 572.257812 448.695312 572.902344 C 449.066406 573.546875 449.539062 574.105469 450.109375 574.585938 C 450.683594 575.0625 451.316406 575.429688 452.015625 575.683594 C 452.714844 575.9375 453.4375 576.0625 454.183594 576.0625 Z M 483.542969 530.230469 C 486.820312 529.0625 490.171875 528.203125 493.605469 527.644531 C 497.039062 527.089844 500.496094 526.847656 503.972656 526.921875 C 507.449219 526.992188 510.890625 527.378906 514.296875 528.082031 C 517.707031 528.78125 521.019531 529.78125 524.246094 531.085938 C 525.878906 531.722656 527.453125 532.472656 528.976562 533.335938 C 530.5 534.199219 531.953125 535.171875 533.332031 536.246094 C 534.714844 537.324219 536.007812 538.492188 537.21875 539.757812 C 538.429688 541.023438 539.542969 542.367188 540.558594 543.796875 C 541.574219 545.222656 542.480469 546.714844 543.277344 548.273438 C 544.074219 549.832031 544.753906 551.441406 545.316406 553.097656 C 545.882812 554.757812 546.320312 556.445312 546.636719 558.167969 C 546.957031 559.890625 547.144531 561.625 547.210938 563.375 L 459.914062 563.375 C 459.933594 561.566406 460.089844 559.769531 460.382812 557.984375 C 460.675781 556.199219 461.101562 554.449219 461.664062 552.726562 C 462.222656 551.007812 462.914062 549.339844 463.726562 547.726562 C 464.542969 546.109375 465.472656 544.566406 466.523438 543.09375 C 467.574219 541.621094 468.730469 540.234375 469.992188 538.941406 C 471.253906 537.644531 472.605469 536.449219 474.046875 535.359375 C 475.492188 534.269531 477.007812 533.292969 478.597656 532.433594 C 480.191406 531.574219 481.839844 530.839844 483.542969 530.230469 Z M 483.542969 530.230469 " fill-opacity="1" fill-rule="nonzero"/><g clip-path="url(#812dd7ce3f)"><path fill="#fcac3d" d="M 968.042969 632.367188 L 473.214844 632.367188 C 471.761719 632.367188 470.308594 632.402344 468.855469 632.472656 C 467.40625 632.546875 465.957031 632.652344 464.507812 632.792969 C 463.0625 632.9375 461.621094 633.113281 460.183594 633.328125 C 458.746094 633.542969 457.3125 633.789062 455.886719 634.074219 C 454.460938 634.355469 453.042969 634.675781 451.632812 635.027344 C 450.222656 635.382812 448.824219 635.769531 447.433594 636.191406 C 446.042969 636.613281 444.664062 637.070312 443.292969 637.558594 C 441.925781 638.046875 440.570312 638.570312 439.226562 639.128906 C 437.882812 639.683594 436.554688 640.273438 435.242188 640.894531 C 433.925781 641.515625 432.628906 642.167969 431.347656 642.855469 C 430.066406 643.539062 428.800781 644.253906 427.554688 645.003906 C 426.308594 645.75 425.082031 646.527344 423.871094 647.335938 C 422.664062 648.140625 421.476562 648.980469 420.308594 649.84375 C 419.140625 650.710938 417.996094 651.605469 416.871094 652.527344 C 415.746094 653.449219 414.648438 654.398438 413.570312 655.375 C 412.492188 656.351562 411.441406 657.351562 410.414062 658.378906 C 409.386719 659.40625 408.382812 660.460938 407.40625 661.539062 C 406.429688 662.613281 405.480469 663.714844 404.558594 664.839844 C 403.636719 665.960938 402.742188 667.105469 401.878906 668.273438 C 401.011719 669.441406 400.175781 670.628906 399.367188 671.839844 C 398.558594 673.046875 397.78125 674.273438 397.035156 675.523438 C 396.289062 676.769531 395.570312 678.03125 394.886719 679.316406 C 394.203125 680.597656 393.546875 681.894531 392.925781 683.207031 C 392.304688 684.523438 391.714844 685.851562 391.160156 687.195312 C 390.605469 688.535156 390.082031 689.890625 389.589844 691.261719 C 389.101562 692.628906 388.644531 694.007812 388.222656 695.398438 C 387.800781 696.792969 387.414062 698.191406 387.0625 699.601562 C 386.707031 701.011719 386.390625 702.429688 386.105469 703.855469 C 385.824219 705.28125 385.574219 706.710938 385.359375 708.148438 C 385.148438 709.589844 384.96875 711.03125 384.828125 712.476562 C 384.683594 713.921875 384.578125 715.371094 384.507812 716.824219 C 384.433594 718.277344 384.398438 719.726562 384.398438 721.183594 C 384.398438 722.636719 384.433594 724.089844 384.507812 725.539062 C 384.578125 726.992188 384.683594 728.441406 384.828125 729.886719 C 384.96875 731.332031 385.148438 732.777344 385.359375 734.214844 C 385.574219 735.652344 385.824219 737.082031 386.105469 738.507812 C 386.390625 739.933594 386.707031 741.351562 387.0625 742.761719 C 387.414062 744.171875 387.800781 745.574219 388.222656 746.964844 C 388.644531 748.355469 389.101562 749.734375 389.589844 751.101562 C 390.082031 752.472656 390.605469 753.828125 391.160156 755.171875 C 391.714844 756.511719 392.304688 757.839844 392.925781 759.15625 C 393.546875 760.46875 394.203125 761.765625 394.886719 763.050781 C 395.570312 764.332031 396.289062 765.59375 397.035156 766.84375 C 397.78125 768.089844 398.558594 769.316406 399.367188 770.523438 C 400.175781 771.734375 401.011719 772.921875 401.878906 774.089844 C 402.742188 775.257812 403.636719 776.402344 404.558594 777.527344 C 405.480469 778.648438 406.429688 779.75 407.40625 780.828125 C 408.382812 781.902344 409.386719 782.957031 410.414062 783.984375 C 411.441406 785.011719 412.492188 786.011719 413.570312 786.988281 C 414.648438 787.964844 415.746094 788.914062 416.871094 789.835938 C 417.996094 790.757812 419.140625 791.652344 420.308594 792.519531 C 421.476562 793.386719 422.664062 794.222656 423.871094 795.027344 C 425.082031 795.835938 426.308594 796.613281 427.554688 797.363281 C 428.800781 798.109375 430.066406 798.824219 431.347656 799.511719 C 432.628906 800.195312 433.925781 800.847656 435.242188 801.46875 C 436.554688 802.089844 437.882812 802.679688 439.226562 803.238281 C 440.570312 803.792969 441.925781 804.316406 443.292969 804.804688 C 444.664062 805.296875 446.042969 805.75 447.433594 806.171875 C 448.824219 806.59375 450.222656 806.980469 451.632812 807.335938 C 453.042969 807.6875 454.460938 808.007812 455.886719 808.289062 C 457.3125 808.574219 458.746094 808.824219 460.183594 809.035156 C 461.621094 809.25 463.0625 809.425781 464.507812 809.570312 C 465.957031 809.710938 467.40625 809.820312 468.855469 809.890625 C 470.308594 809.960938 471.761719 809.996094 473.214844 809.996094 L 968.042969 809.996094 C 969.496094 809.996094 970.949219 809.960938 972.398438 809.890625 C 973.851562 809.820312 975.300781 809.710938 976.746094 809.570312 C 978.195312 809.425781 979.636719 809.25 981.074219 809.035156 C 982.511719 808.824219 983.945312 808.574219 985.371094 808.289062 C 986.792969 808.007812 988.210938 807.6875 989.621094 807.335938 C 991.03125 806.980469 992.433594 806.59375 993.824219 806.171875 C 995.214844 805.75 996.59375 805.296875 997.964844 804.804688 C 999.332031 804.316406 1000.6875 803.792969 1002.03125 803.238281 C 1003.375 802.679688 1004.703125 802.089844 1006.015625 801.46875 C 1007.328125 800.847656 1008.628906 800.195312 1009.910156 799.511719 C 1011.191406 798.824219 1012.457031 798.109375 1013.703125 797.363281 C 1014.949219 796.613281 1016.175781 795.835938 1017.386719 795.027344 C 1018.59375 794.222656 1019.78125 793.386719 1020.949219 792.519531 C 1022.117188 791.652344 1023.261719 790.757812 1024.386719 789.835938 C 1025.511719 788.914062 1026.609375 787.964844 1027.6875 786.988281 C 1028.765625 786.011719 1029.816406 785.011719 1030.84375 783.984375 C 1031.871094 782.957031 1032.875 781.902344 1033.851562 780.828125 C 1034.828125 779.75 1035.773438 778.648438 1036.699219 777.527344 C 1037.621094 776.402344 1038.511719 775.257812 1039.378906 774.089844 C 1040.246094 772.921875 1041.082031 771.734375 1041.890625 770.523438 C 1042.695312 769.316406 1043.472656 768.089844 1044.222656 766.84375 C 1044.96875 765.59375 1045.683594 764.332031 1046.371094 763.050781 C 1047.054688 761.765625 1047.707031 760.46875 1048.332031 759.15625 C 1048.953125 757.839844 1049.539062 756.511719 1050.097656 755.171875 C 1050.652344 753.828125 1051.175781 752.472656 1051.664062 751.101562 C 1052.15625 749.734375 1052.609375 748.355469 1053.035156 746.964844 C 1053.457031 745.574219 1053.84375 744.171875 1054.195312 742.761719 C 1054.550781 741.351562 1054.867188 739.933594 1055.152344 738.507812 C 1055.433594 737.082031 1055.683594 735.652344 1055.894531 734.214844 C 1056.109375 732.777344 1056.289062 731.332031 1056.429688 729.886719 C 1056.574219 728.441406 1056.679688 726.992188 1056.75 725.539062 C 1056.820312 724.089844 1056.859375 722.636719 1056.859375 721.183594 C 1056.859375 719.726562 1056.820312 718.277344 1056.75 716.824219 C 1056.679688 715.371094 1056.574219 713.921875 1056.429688 712.476562 C 1056.289062 711.03125 1056.109375 709.589844 1055.894531 708.148438 C 1055.683594 706.710938 1055.433594 705.28125 1055.152344 703.855469 C 1054.867188 702.429688 1054.550781 701.011719 1054.195312 699.601562 C 1053.84375 698.191406 1053.457031 696.792969 1053.035156 695.398438 C 1052.609375 694.007812 1052.15625 692.628906 1051.664062 691.261719 C 1051.175781 689.890625 1050.652344 688.535156 1050.097656 687.195312 C 1049.539062 685.851562 1048.953125 684.523438 1048.332031 683.207031 C 1047.707031 681.894531 1047.054688 680.597656 1046.371094 679.316406 C 1045.683594 678.03125 1044.96875 676.769531 1044.222656 675.523438 C 1043.472656 674.273438 1042.695312 673.046875 1041.890625 671.839844 C 1041.082031 670.628906 1040.246094 669.441406 1039.378906 668.273438 C 1038.511719 667.105469 1037.621094 665.960938 1036.699219 664.839844 C 1035.777344 663.714844 1034.828125 662.613281 1033.851562 661.539062 C 1032.875 660.460938 1031.871094 659.40625 1030.84375 658.378906 C 1029.816406 657.351562 1028.765625 656.351562 1027.6875 655.375 C 1026.609375 654.398438 1025.511719 653.449219 1024.386719 652.527344 C 1023.261719 651.605469 1022.117188 650.710938 1020.949219 649.84375 C 1019.78125 648.980469 1018.59375 648.140625 1017.386719 647.335938 C 1016.175781 646.527344 1014.949219 645.75 1013.703125 645.003906 C 1012.457031 644.253906 1011.191406 643.539062 1009.910156 642.855469 C 1008.628906 642.167969 1007.328125 641.515625 1006.015625 640.894531 C 1004.703125 640.273438 1003.375 639.683594 1002.03125 639.128906 C 1000.6875 638.570312 999.332031 638.046875 997.964844 637.558594 C 996.59375 637.070312 995.214844 636.613281 993.824219 636.191406 C 992.433594 635.769531 991.03125 635.382812 989.621094 635.027344 C 988.210938 634.675781 986.792969 634.355469 985.371094 634.074219 C 983.945312 633.789062 982.511719 633.542969 981.074219 633.328125 C 979.636719 633.113281 978.195312 632.9375 976.746094 632.792969 C 975.300781 632.652344 973.851562 632.546875 972.398438 632.472656 C 970.949219 632.402344 969.496094 632.367188 968.042969 632.367188 Z M 397.085938 721.183594 C 397.089844 719.9375 397.121094 718.691406 397.183594 717.449219 C 397.246094 716.203125 397.339844 714.960938 397.460938 713.722656 C 397.585938 712.484375 397.738281 711.246094 397.921875 710.015625 C 398.105469 708.785156 398.320312 707.558594 398.5625 706.335938 C 398.808594 705.113281 399.082031 703.898438 399.386719 702.691406 C 399.6875 701.484375 400.023438 700.285156 400.382812 699.09375 C 400.746094 697.902344 401.136719 696.71875 401.558594 695.546875 C 401.976562 694.375 402.425781 693.210938 402.90625 692.0625 C 403.382812 690.910156 403.886719 689.773438 404.421875 688.648438 C 404.953125 687.523438 405.511719 686.410156 406.101562 685.3125 C 406.6875 684.214844 407.300781 683.132812 407.941406 682.0625 C 408.582031 680.996094 409.25 679.941406 409.941406 678.90625 C 410.636719 677.871094 411.351562 676.855469 412.09375 675.855469 C 412.835938 674.855469 413.601562 673.871094 414.394531 672.910156 C 415.183594 671.945312 415.996094 671.003906 416.832031 670.082031 C 417.667969 669.160156 418.527344 668.257812 419.410156 667.375 C 420.289062 666.496094 421.191406 665.636719 422.113281 664.800781 C 423.035156 663.964844 423.980469 663.152344 424.941406 662.359375 C 425.90625 661.570312 426.886719 660.804688 427.886719 660.0625 C 428.886719 659.320312 429.90625 658.601562 430.941406 657.910156 C 431.976562 657.21875 433.027344 656.550781 434.09375 655.910156 C 435.164062 655.269531 436.246094 654.65625 437.34375 654.066406 C 438.441406 653.480469 439.554688 652.921875 440.679688 652.386719 C 441.804688 651.855469 442.945312 651.347656 444.09375 650.871094 C 445.246094 650.394531 446.40625 649.945312 447.578125 649.523438 C 448.75 649.105469 449.933594 648.714844 451.125 648.351562 C 452.316406 647.988281 453.515625 647.65625 454.726562 647.351562 C 455.933594 647.050781 457.148438 646.773438 458.367188 646.53125 C 459.589844 646.289062 460.816406 646.074219 462.046875 645.890625 C 463.28125 645.707031 464.515625 645.550781 465.753906 645.429688 C 466.996094 645.304688 468.238281 645.210938 469.480469 645.148438 C 470.722656 645.089844 471.96875 645.054688 473.214844 645.054688 L 591.972656 645.054688 L 591.972656 797.308594 L 473.214844 797.308594 C 471.96875 797.308594 470.722656 797.277344 469.480469 797.214844 C 468.238281 797.152344 466.996094 797.058594 465.753906 796.933594 C 464.515625 796.8125 463.28125 796.660156 462.046875 796.476562 C 460.816406 796.289062 459.589844 796.078125 458.367188 795.832031 C 457.148438 795.589844 455.933594 795.316406 454.726562 795.011719 C 453.515625 794.707031 452.316406 794.375 451.125 794.011719 C 449.933594 793.648438 448.75 793.257812 447.578125 792.839844 C 446.40625 792.417969 445.246094 791.96875 444.09375 791.492188 C 442.945312 791.015625 441.804688 790.511719 440.679688 789.976562 C 439.554688 789.445312 438.441406 788.882812 437.34375 788.296875 C 436.246094 787.707031 435.164062 787.09375 434.09375 786.453125 C 433.027344 785.8125 431.976562 785.144531 430.941406 784.453125 C 429.90625 783.761719 428.886719 783.042969 427.886719 782.300781 C 426.886719 781.558594 425.90625 780.792969 424.941406 780.003906 C 423.980469 779.214844 423.035156 778.398438 422.113281 777.5625 C 421.191406 776.726562 420.289062 775.867188 419.410156 774.988281 C 418.527344 774.105469 417.667969 773.207031 416.832031 772.28125 C 415.996094 771.359375 415.183594 770.417969 414.394531 769.453125 C 413.601562 768.492188 412.835938 767.511719 412.09375 766.511719 C 411.351562 765.507812 410.636719 764.492188 409.941406 763.457031 C 409.25 762.421875 408.582031 761.371094 407.941406 760.300781 C 407.300781 759.234375 406.6875 758.148438 406.101562 757.050781 C 405.511719 755.953125 404.953125 754.839844 404.421875 753.714844 C 403.886719 752.589844 403.382812 751.453125 402.90625 750.300781 C 402.425781 749.152344 401.976562 747.988281 401.558594 746.816406 C 401.136719 745.644531 400.746094 744.464844 400.382812 743.269531 C 400.023438 742.078125 399.6875 740.878906 399.386719 739.671875 C 399.082031 738.464844 398.808594 737.25 398.5625 736.027344 C 398.320312 734.804688 398.105469 733.578125 397.921875 732.347656 C 397.738281 731.117188 397.585938 729.878906 397.460938 728.640625 C 397.339844 727.402344 397.246094 726.160156 397.183594 724.917969 C 397.121094 723.671875 397.089844 722.425781 397.085938 721.183594 Z M 968.042969 797.308594 L 604.660156 797.308594 L 604.660156 645.054688 L 968.042969 645.054688 C 969.289062 645.054688 970.535156 645.085938 971.777344 645.144531 C 973.023438 645.207031 974.265625 645.300781 975.503906 645.421875 C 976.742188 645.542969 977.980469 645.695312 979.210938 645.878906 C 980.445312 646.0625 981.671875 646.273438 982.894531 646.515625 C 984.117188 646.761719 985.332031 647.035156 986.539062 647.335938 C 987.75 647.640625 988.949219 647.972656 990.140625 648.332031 C 991.332031 648.695312 992.515625 649.085938 993.6875 649.503906 C 994.863281 649.925781 996.023438 650.371094 997.175781 650.847656 C 998.324219 651.328125 999.464844 651.832031 1000.589844 652.363281 C 1001.71875 652.894531 1002.828125 653.457031 1003.929688 654.042969 C 1005.027344 654.632812 1006.109375 655.246094 1007.179688 655.886719 C 1008.25 656.527344 1009.300781 657.191406 1010.335938 657.882812 C 1011.371094 658.578125 1012.390625 659.292969 1013.390625 660.035156 C 1014.390625 660.777344 1015.375 661.542969 1016.335938 662.335938 C 1017.300781 663.125 1018.242188 663.9375 1019.167969 664.773438 C 1020.089844 665.613281 1020.992188 666.472656 1021.871094 667.351562 C 1022.753906 668.234375 1023.613281 669.136719 1024.449219 670.058594 C 1025.285156 670.980469 1026.097656 671.925781 1026.890625 672.886719 C 1027.679688 673.851562 1028.445312 674.832031 1029.1875 675.832031 C 1029.929688 676.832031 1030.648438 677.851562 1031.339844 678.886719 C 1032.03125 679.921875 1032.699219 680.976562 1033.339844 682.042969 C 1033.980469 683.113281 1034.59375 684.195312 1035.179688 685.296875 C 1035.769531 686.394531 1036.328125 687.507812 1036.859375 688.632812 C 1037.394531 689.757812 1037.898438 690.898438 1038.375 692.050781 C 1038.851562 693.199219 1039.300781 694.363281 1039.71875 695.535156 C 1040.140625 696.707031 1040.53125 697.890625 1040.890625 699.082031 C 1041.253906 700.277344 1041.585938 701.476562 1041.886719 702.683594 C 1042.191406 703.894531 1042.464844 705.109375 1042.707031 706.332031 C 1042.949219 707.550781 1043.164062 708.78125 1043.347656 710.011719 C 1043.527344 711.246094 1043.679688 712.480469 1043.804688 713.71875 C 1043.925781 714.960938 1044.015625 716.203125 1044.078125 717.445312 C 1044.140625 718.691406 1044.167969 719.9375 1044.167969 721.183594 C 1044.167969 722.429688 1044.140625 723.671875 1044.078125 724.917969 C 1044.015625 726.160156 1043.925781 727.402344 1043.804688 728.644531 C 1043.679688 729.882812 1043.527344 731.121094 1043.34375 732.351562 C 1043.164062 733.585938 1042.949219 734.8125 1042.707031 736.035156 C 1042.464844 737.253906 1042.191406 738.472656 1041.886719 739.679688 C 1041.585938 740.886719 1041.253906 742.089844 1040.890625 743.28125 C 1040.53125 744.472656 1040.140625 745.65625 1039.71875 746.828125 C 1039.300781 748 1038.851562 749.164062 1038.375 750.316406 C 1037.898438 751.464844 1037.394531 752.605469 1036.859375 753.730469 C 1036.328125 754.855469 1035.769531 755.96875 1035.179688 757.066406 C 1034.59375 758.167969 1033.980469 759.25 1033.339844 760.320312 C 1032.699219 761.386719 1032.03125 762.441406 1031.339844 763.476562 C 1030.648438 764.511719 1029.929688 765.53125 1029.1875 766.53125 C 1028.445312 767.53125 1027.679688 768.511719 1026.890625 769.476562 C 1026.097656 770.441406 1025.285156 771.382812 1024.449219 772.304688 C 1023.613281 773.230469 1022.753906 774.132812 1021.871094 775.011719 C 1020.992188 775.894531 1020.089844 776.753906 1019.167969 777.589844 C 1018.242188 778.425781 1017.300781 779.238281 1016.335938 780.027344 C 1015.375 780.820312 1014.390625 781.585938 1013.390625 782.328125 C 1012.390625 783.070312 1011.371094 783.789062 1010.335938 784.480469 C 1009.300781 785.171875 1008.25 785.839844 1007.179688 786.480469 C 1006.109375 787.117188 1005.027344 787.734375 1003.929688 788.320312 C 1002.828125 788.90625 1001.71875 789.46875 1000.589844 790 C 999.464844 790.53125 998.324219 791.039062 997.175781 791.515625 C 996.023438 791.992188 994.863281 792.4375 993.6875 792.859375 C 992.515625 793.277344 991.332031 793.667969 990.140625 794.03125 C 988.949219 794.394531 987.75 794.726562 986.539062 795.027344 C 985.332031 795.332031 984.117188 795.601562 982.894531 795.847656 C 981.671875 796.089844 980.445312 796.300781 979.210938 796.484375 C 977.980469 796.667969 976.742188 796.820312 975.503906 796.941406 C 974.265625 797.066406 973.023438 797.15625 971.777344 797.21875 C 970.535156 797.277344 969.289062 797.308594 968.042969 797.308594 Z M 968.042969 797.308594 " fill-opacity="1" fill-rule="nonzero"/></g><path fill="#5271ff" d="M 720.003906 96.613281 C 678.988281 96.613281 645.738281 131.535156 645.738281 174.617188 C 645.738281 217.699219 678.988281 252.621094 720.003906 252.621094 C 761.023438 252.621094 794.269531 217.699219 794.269531 174.617188 C 794.269531 131.535156 761.023438 96.613281 720.003906 96.613281 " fill-opacity="1" fill-rule="nonzero"/><g clip-path="url(#822d787cb2)"><path fill="#5271ff" d="M 843.347656 329.796875 C 826.898438 289.648438 792.371094 264.535156 719.890625 264.535156 C 647.511719 264.535156 612.980469 289.582031 596.507812 329.640625 C 562.980469 295.65625 542.125 247.972656 542.125 195.171875 C 542.125 91.980469 621.765625 8.332031 720.003906 8.332031 C 818.246094 8.332031 897.886719 91.980469 897.886719 195.171875 C 897.886719 248.054688 876.964844 295.804688 843.347656 329.796875 Z M 720.003906 0.15625 C 617.464844 0.15625 534.339844 87.46875 534.339844 195.171875 C 534.339844 251.5 557.078125 302.253906 593.445312 337.855469 C 626.605469 370.320312 671.09375 390.183594 720.003906 390.183594 C 768.828125 390.183594 813.253906 370.386719 846.398438 338.019531 C 882.859375 302.414062 905.671875 251.589844 905.671875 195.171875 C 905.671875 87.46875 822.542969 0.15625 720.003906 0.15625 " fill-opacity="1" fill-rule="nonzero"/></g></svg>