<svg xmlns="http://www.w3.org/2000/svg" xmlns:xlink="http://www.w3.org/1999/xlink" width="50" zoomAndPan="magnify" viewBox="0 0 37.5 37.499999" height="50" preserveAspectRatio="xMidYMid meet" version="1.0"><defs><filter x="0%" y="0%" width="100%" height="100%" id="713b8a2dd5"><feColorMatrix values="0 0 0 0 1 0 0 0 0 1 0 0 0 0 1 0 0 0 1 0" color-interpolation-filters="sRGB"/></filter><mask id="1ce1c5b120"><g filter="url(#713b8a2dd5)"><rect x="-3.75" width="45" fill="#000000" y="-3.75" height="44.999999" fill-opacity="0.42"/></g></mask><clipPath id="e701f40e00"><path d="M 1 0.527344 L 5.210938 0.527344 L 5.210938 2.65625 L 1 2.65625 Z M 1 0.527344 " clip-rule="nonzero"/></clipPath><clipPath id="7cae870222"><path d="M 0.949219 0.527344 L 5.210938 0.527344 L 5.210938 2.65625 L 0.949219 2.65625 Z M 0.949219 0.527344 " clip-rule="nonzero"/></clipPath><clipPath id="c7f77427e8"><rect x="0" width="6" y="0" height="3"/></clipPath><clipPath id="1d963a41d9"><path d="M 2 24 L 36 24 L 36 34.996094 L 2 34.996094 Z M 2 24 " clip-rule="nonzero"/></clipPath><mask id="fcc26dc211"><g filter="url(#713b8a2dd5)"><rect x="-3.75" width="45" fill="#000000" y="-3.75" height="44.999999" fill-opacity="0.35"/></g></mask><clipPath id="e0e29035d4"><path d="M 0.0273438 0.710938 L 29.867188 0.710938 L 29.867188 11 L 0.0273438 11 Z M 0.0273438 0.710938 " clip-rule="nonzero"/></clipPath><clipPath id="02831e0cb1"><path d="M 0.0273438 0.710938 L 29.867188 0.710938 L 29.867188 11.132812 L 0.0273438 11.132812 Z M 0.0273438 0.710938 " clip-rule="nonzero"/></clipPath><clipPath id="b74a775caf"><rect x="0" width="30" y="0" height="12"/></clipPath><clipPath id="abe2728f0a"><path d="M 1 23 L 37 23 L 37 34.996094 L 1 34.996094 Z M 1 23 " clip-rule="nonzero"/></clipPath><clipPath id="f32e6a47d1"><path d="M 11 24 L 36 24 L 36 34.996094 L 11 34.996094 Z M 11 24 " clip-rule="nonzero"/></clipPath><mask id="e4277802aa"><g filter="url(#713b8a2dd5)"><rect x="-3.75" width="45" fill="#000000" y="-3.75" height="44.999999" fill-opacity="0.19"/></g></mask><clipPath id="d228459b51"><path d="M 0.605469 1 L 24.761719 1 L 24.761719 10 L 0.605469 10 Z M 0.605469 1 " clip-rule="nonzero"/></clipPath><clipPath id="c8593617b5"><path d="M 0.605469 0.867188 L 24.761719 0.867188 L 24.761719 10.105469 L 0.605469 10.105469 Z M 0.605469 0.867188 " clip-rule="nonzero"/></clipPath><clipPath id="aeca7acf65"><rect x="0" width="25" y="0" height="11"/></clipPath><mask id="ae6065660d"><g filter="url(#713b8a2dd5)"><rect x="-3.75" width="45" fill="#000000" y="-3.75" height="44.999999" fill-opacity="0.62"/></g></mask><clipPath id="aed098fca9"><path d="M 0.316406 0.261719 L 30.867188 0.261719 L 30.867188 10.683594 L 0.316406 10.683594 Z M 0.316406 0.261719 " clip-rule="nonzero"/></clipPath><clipPath id="4fa0cab83d"><rect x="0" width="31" y="0" height="11"/></clipPath><mask id="58134c6608"><g filter="url(#713b8a2dd5)"><rect x="-3.75" width="45" fill="#000000" y="-3.75" height="44.999999" fill-opacity="0.35"/></g></mask><clipPath id="4ce17eeef8"><path d="M 0.738281 0.0507812 L 30.578125 0.0507812 L 30.578125 10.472656 L 0.738281 10.472656 Z M 0.738281 0.0507812 " clip-rule="nonzero"/></clipPath><clipPath id="777a7e5502"><rect x="0" width="31" y="0" height="11"/></clipPath><clipPath id="87a4153828"><path d="M 2 12 L 37.007812 12 L 37.007812 25 L 2 25 Z M 2 12 " clip-rule="nonzero"/></clipPath><mask id="b4d7844b4e"><g filter="url(#713b8a2dd5)"><rect x="-3.75" width="45" fill="#000000" y="-3.75" height="44.999999" fill-opacity="0.19"/></g></mask><clipPath id="34a00a0041"><path d="M 0.550781 0.210938 L 24.472656 0.210938 L 24.472656 9.449219 L 0.550781 9.449219 Z M 0.550781 0.210938 " clip-rule="nonzero"/></clipPath><clipPath id="b53951f893"><rect x="0" width="25" y="0" height="10"/></clipPath><clipPath id="4418019b2c"><path d="M 36 16 L 37.007812 16 L 37.007812 18 L 36 18 Z M 36 16 " clip-rule="nonzero"/></clipPath><clipPath id="6ecb48e75a"><path d="M 2 1.6875 L 36 1.6875 L 36 14 L 2 14 Z M 2 1.6875 " clip-rule="nonzero"/></clipPath><clipPath id="0d56e87e6e"><path d="M 2 1.6875 L 37 1.6875 L 37 14 L 2 14 Z M 2 1.6875 " clip-rule="nonzero"/></clipPath><mask id="d128ad5b2d"><g filter="url(#713b8a2dd5)"><rect x="-3.75" width="45" fill="#000000" y="-3.75" height="44.999999" fill-opacity="0.52"/></g></mask><clipPath id="07ab513d55"><path d="M 0.261719 0.132812 L 30 0.132812 L 30 10.550781 L 0.261719 10.550781 Z M 0.261719 0.132812 " clip-rule="nonzero"/></clipPath><clipPath id="72522b621f"><path d="M 0.261719 0.132812 L 30.105469 0.132812 L 30.105469 10.550781 L 0.261719 10.550781 Z M 0.261719 0.132812 " clip-rule="nonzero"/></clipPath><clipPath id="5fe88094fc"><rect x="0" width="31" y="0" height="11"/></clipPath><mask id="3ca19f5682"><g filter="url(#713b8a2dd5)"><rect x="-3.75" width="45" fill="#000000" y="-3.75" height="44.999999" fill-opacity="0.19"/></g></mask><clipPath id="ab8ce6a576"><path d="M 0.367188 0.289062 L 24.289062 0.289062 L 24.289062 9.761719 L 0.367188 9.761719 Z M 0.367188 0.289062 " clip-rule="nonzero"/></clipPath><clipPath id="eb8e88667a"><rect x="0" width="25" y="0" height="10"/></clipPath><mask id="ee342ccbaf"><g filter="url(#713b8a2dd5)"><rect x="-3.75" width="45" fill="#000000" y="-3.75" height="44.999999" fill-opacity="0.16"/></g></mask><clipPath id="6c5753e373"><path d="M 1 0.550781 L 4.238281 0.550781 L 4.238281 2.449219 L 1 2.449219 Z M 1 0.550781 " clip-rule="nonzero"/></clipPath><clipPath id="4c44cefe3c"><path d="M 0.921875 0.550781 L 4.238281 0.550781 L 4.238281 2.449219 L 0.921875 2.449219 Z M 0.921875 0.550781 " clip-rule="nonzero"/></clipPath><clipPath id="73c08ee05d"><rect x="0" width="5" y="0" height="3"/></clipPath></defs><g mask="url(#1ce1c5b120)"><g transform="matrix(1, 0, 0, 1, 0, 17)"><g clip-path="url(#c7f77427e8)"><g clip-path="url(#e701f40e00)"><path fill="#010101" d="M 2.5625 0.703125 L 1.070312 1.480469 L 5.058594 2.398438 Z M 2.5625 0.703125 " fill-opacity="1" fill-rule="nonzero"/></g><g clip-path="url(#7cae870222)"><path stroke-linecap="butt" transform="matrix(0.0192986, 0, 0, 0.0191128, -0.611967, -17.872687)" fill="none" stroke-linejoin="miter" d="M 164.492153 971.905558 L 87.171095 1012.576982 L 293.832875 1060.606051 Z M 164.492153 971.905558 " stroke="#000000" stroke-width="1" stroke-opacity="1" stroke-miterlimit="10"/></g></g></g></g><path fill="#ffffff" d="M 35.570312 28.21875 L 35.503906 25 L 12.125 30.320312 L 3.207031 25.117188 C 3.207031 25.117188 3.011719 24.953125 2.84375 25.03125 C 2.679688 25.109375 2.664062 25.253906 2.664062 25.253906 L 2.542969 27.894531 C 2.542969 27.894531 2.527344 28.0625 2.648438 28.140625 C 2.773438 28.21875 11.910156 33.882812 11.910156 33.882812 Z M 35.570312 28.21875 " fill-opacity="1" fill-rule="nonzero"/><g clip-path="url(#1d963a41d9)"><path stroke-linecap="butt" transform="matrix(0.0192986, 0, 0, 0.0191128, -0.611967, -0.872687)" fill="none" stroke-linejoin="miter" d="M 1874.866339 1522.093869 L 1871.42535 1353.68556 L 659.994641 1632.049779 L 197.889994 1359.816931 C 197.889994 1359.816931 187.769437 1351.233012 179.065758 1355.320592 C 170.56449 1359.408173 169.754845 1366.970196 169.754845 1366.970196 L 163.4801 1505.130411 C 163.4801 1505.130411 162.670455 1513.918708 168.945201 1518.006289 C 175.422357 1522.093869 648.862028 1818.443442 648.862028 1818.443442 Z M 1874.866339 1522.093869 " stroke="#000000" stroke-width="1" stroke-opacity="1" stroke-miterlimit="10"/></g><path stroke-linecap="butt" transform="matrix(0.0192986, 0, 0, 0.0191128, -0.611967, -0.872687)" fill-opacity="1" fill="#f26822" fill-rule="nonzero" stroke-linejoin="miter" d="M 1293.743939 998.066073 L 1888.630297 1299.7295 L 665.054919 1591.787113 L 148.299264 1281.335389 Z M 1293.743939 998.066073 " stroke="#000000" stroke-width="1" stroke-opacity="1" stroke-miterlimit="10"/><g mask="url(#fcc26dc211)"><g transform="matrix(1, 0, 0, 1, 4, 18)"><g clip-path="url(#b74a775caf)"><g clip-path="url(#e0e29035d4)"><path fill="#f9a11b" d="M 8.351562 10.839844 C 8.328125 10.839844 8.308594 10.835938 8.289062 10.824219 L 0.214844 6.019531 C 0.175781 5.996094 0.152344 5.949219 0.160156 5.902344 C 0.167969 5.855469 0.203125 5.820312 0.25 5.808594 L 20.234375 0.910156 C 20.261719 0.902344 20.289062 0.90625 20.3125 0.921875 L 29.632812 5.601562 C 29.679688 5.621094 29.703125 5.667969 29.699219 5.71875 C 29.691406 5.765625 29.65625 5.804688 29.609375 5.816406 L 8.378906 10.835938 C 8.367188 10.839844 8.359375 10.839844 8.351562 10.839844 Z M 0.582031 5.964844 L 8.371094 10.601562 L 29.242188 5.664062 L 20.246094 1.144531 Z M 0.582031 5.964844 " fill-opacity="1" fill-rule="nonzero"/></g><g clip-path="url(#02831e0cb1)"><path stroke-linecap="butt" transform="matrix(0.0192986, 0, 0, 0.0191128, -4.611967, -18.872687)" fill="none" stroke-linejoin="miter" d="M 671.734481 1554.590131 C 670.520014 1554.590131 669.507958 1554.385752 668.495903 1553.772615 L 250.112064 1302.386426 C 248.087952 1301.160152 246.873486 1298.707604 247.278308 1296.255056 C 247.68313 1293.802508 249.50483 1291.963096 251.933764 1291.349959 L 1287.469187 1035.058674 C 1288.886065 1034.649916 1290.302943 1034.854295 1291.51741 1035.671811 L 1774.470405 1280.517872 C 1776.899338 1281.539767 1778.113805 1283.992315 1777.911394 1286.649242 C 1777.506572 1289.10179 1775.684871 1291.14558 1773.255938 1291.758717 L 673.151359 1554.385752 C 672.544126 1554.590131 672.139303 1554.590131 671.734481 1554.590131 Z M 269.138712 1299.52512 L 672.746537 1542.123011 L 1754.22929 1283.787936 L 1288.076421 1047.321415 Z M 269.138712 1299.52512 " stroke="#000000" stroke-width="1" stroke-opacity="1" stroke-miterlimit="10"/></g></g></g></g><g clip-path="url(#abe2728f0a)"><path stroke-linecap="butt" transform="matrix(0.0192986, 0, 0, 0.0191128, -0.611967, -0.872687)" fill-opacity="1" fill="#cd5928" fill-rule="nonzero" stroke-linejoin="miter" d="M 1898.953265 1516.166878 L 1898.953265 1564.809083 L 654.52954 1876.078324 L 126.236449 1536.604779 C 126.236449 1536.604779 88.183153 1402.736524 148.299264 1281.335389 L 665.054919 1591.787113 L 1888.630297 1299.7295 L 1888.630297 1349.802359 L 659.994641 1632.049779 L 192.020071 1356.342488 C 182.304336 1350.619875 170.159667 1357.364383 169.552434 1368.400849 L 163.4801 1506.356685 C 163.075277 1511.261781 165.706622 1515.962499 169.754845 1518.619426 L 648.862028 1818.443442 Z M 1898.953265 1516.166878 " stroke="#000000" stroke-width="1" stroke-opacity="1" stroke-miterlimit="10"/></g><g clip-path="url(#f32e6a47d1)"><g mask="url(#e4277802aa)"><g transform="matrix(1, 0, 0, 1, 11, 24)"><g clip-path="url(#aeca7acf65)"><g clip-path="url(#d228459b51)"><path fill="#f9a11b" d="M 0.910156 9.882812 L 1.125 6.320312 L 24.503906 1 L 24.570312 4.21875 Z M 0.910156 9.882812 " fill-opacity="1" fill-rule="nonzero"/></g><g clip-path="url(#c8593617b5)"><path stroke-linecap="butt" transform="matrix(0.0192986, 0, 0, 0.0191128, -11.611967, -24.872687)" fill="none" stroke-linejoin="miter" d="M 648.862022 1818.44344 L 659.994635 1632.049778 L 1871.425343 1353.685559 L 1874.866333 1522.093868 Z M 648.862022 1818.44344 " stroke="#000000" stroke-width="1" stroke-opacity="1" stroke-miterlimit="10"/></g></g></g></g></g><path stroke-linecap="butt" transform="matrix(0.0192986, 0, 0, 0.0191128, -0.611967, -0.872687)" fill-opacity="1" fill="#e98d24" fill-rule="nonzero" stroke-linejoin="miter" d="M 1898.953265 1516.166878 L 1874.461517 1503.086621 L 1874.866339 1522.093869 Z M 1898.953265 1516.166878 " stroke="#000000" stroke-width="1" stroke-opacity="1" stroke-miterlimit="10"/><path stroke-linecap="butt" transform="matrix(0.0192986, 0, 0, 0.0191128, -0.611967, -0.872687)" fill-opacity="1" fill="#e98d24" fill-rule="nonzero" stroke-linejoin="miter" d="M 1888.630297 1349.802359 L 1871.42535 1357.160004 L 1871.42535 1353.68556 Z M 1888.630297 1349.802359 " stroke="#000000" stroke-width="1" stroke-opacity="1" stroke-miterlimit="10"/><path stroke-linecap="butt" transform="matrix(0.0192986, 0, 0, 0.0191128, -0.611967, -0.872687)" fill-opacity="1" fill="#fce586" fill-rule="nonzero" stroke-linejoin="miter" d="M 1251.844832 1086.766566 L 1572.464087 1263.145656 L 1450.005344 1306.06525 L 1146.591036 1115.379628 Z M 1251.844832 1086.766566 " stroke="#000000" stroke-width="1" stroke-opacity="1" stroke-miterlimit="10"/><path stroke-linecap="butt" transform="matrix(0.0192986, 0, 0, 0.0191128, -0.611967, -0.872687)" fill-opacity="1" fill="#fce586" fill-rule="nonzero" stroke-linejoin="miter" d="M 1050.24333 1150.737198 L 1354.06246 1331.203869 L 1341.715381 1338.357134 L 1038.301073 1156.664189 Z M 1050.24333 1150.737198 " stroke="#000000" stroke-width="1" stroke-opacity="1" stroke-miterlimit="10"/><path stroke-linecap="butt" transform="matrix(0.0192986, 0, 0, 0.0191128, -0.611967, -0.872687)" fill-opacity="1" fill="#e5e1d3" fill-rule="nonzero" stroke-linejoin="miter" d="M 195.461061 1397.627049 C 231.490245 1418.06495 267.114606 1439.115989 302.536557 1460.371406 C 320.348738 1470.999115 337.958507 1481.831203 355.568277 1492.663291 L 408.599997 1525.159554 L 461.226895 1558.064576 C 478.634254 1569.101043 496.041612 1580.137509 513.448971 1591.378355 C 548.263688 1613.655668 583.078405 1636.341739 617.285889 1659.640947 C 581.256705 1639.203045 545.632343 1618.152006 510.210393 1596.69221 C 492.398212 1586.26888 474.788442 1575.232413 457.178672 1564.604704 L 404.146952 1532.108441 L 351.722465 1498.99904 C 334.112696 1487.962573 316.705337 1476.926107 299.297979 1465.685261 C 264.483261 1443.407948 229.668544 1420.926256 195.461061 1397.627049 Z M 195.461061 1397.627049 " stroke="#000000" stroke-width="1" stroke-opacity="1" stroke-miterlimit="10"/><path stroke-linecap="butt" transform="matrix(0.0192986, 0, 0, 0.0191128, -0.611967, -0.872687)" fill-opacity="1" fill="#e5e1d3" fill-rule="nonzero" stroke-linejoin="miter" d="M 193.63936 1443.203569 C 229.668544 1463.641471 265.292906 1484.692509 300.714857 1505.947927 C 318.527037 1516.575636 336.136807 1527.407723 353.746577 1538.239811 L 406.575886 1570.736075 L 459.202784 1603.641096 C 476.812554 1614.881942 494.219912 1625.71403 511.627271 1636.954876 C 546.441988 1659.436567 581.256705 1681.918259 615.464189 1705.217467 C 579.435005 1684.779565 543.810643 1663.728527 508.388692 1642.473109 C 490.576512 1631.8454 472.966742 1621.013313 455.154561 1610.181225 L 402.325252 1577.684961 L 349.698354 1544.77994 C 332.290995 1533.539094 314.681226 1522.707006 297.476278 1511.46616 C 262.45915 1488.984469 227.846844 1466.502777 193.63936 1443.203569 Z M 193.63936 1443.203569 " stroke="#000000" stroke-width="1" stroke-opacity="1" stroke-miterlimit="10"/><path stroke-linecap="butt" transform="matrix(0.0192986, 0, 0, 0.0191128, -0.611967, -0.872687)" fill-opacity="1" fill="#e5e1d3" fill-rule="nonzero" stroke-linejoin="miter" d="M 195.461061 1490.415122 C 231.490245 1510.853023 267.114606 1531.904062 302.536557 1553.363858 C 320.348738 1563.991567 337.958507 1574.823655 355.568277 1585.451364 L 408.599997 1618.152006 L 461.226895 1651.057028 C 478.634254 1662.093495 496.041612 1673.129962 513.448971 1684.370807 C 548.263688 1706.64812 583.078405 1729.334191 617.285889 1752.42902 C 581.256705 1732.195497 545.632343 1710.940079 510.210393 1689.684662 C 492.398212 1679.056953 474.788442 1668.224865 457.178672 1657.597156 L 404.146952 1624.896514 L 351.722465 1591.991492 C 334.112696 1580.955026 316.705337 1569.918559 299.297979 1558.677713 C 264.483261 1536.4004 229.668544 1513.714329 195.461061 1490.415122 Z M 195.461061 1490.415122 " stroke="#000000" stroke-width="1" stroke-opacity="1" stroke-miterlimit="10"/><path stroke-linecap="butt" transform="matrix(0.0192986, 0, 0, 0.0191128, -0.611967, -0.872687)" fill-opacity="1" fill="#e5e1d3" fill-rule="nonzero" stroke-linejoin="miter" d="M 721.325218 1662.911011 C 813.624701 1637.363634 906.329005 1613.24691 999.235721 1589.743323 C 1045.587874 1577.88934 1092.142437 1566.648494 1138.49459 1554.998891 L 1278.158281 1521.071974 L 1417.821971 1487.962573 L 1487.856228 1471.612252 L 1557.890484 1455.670689 C 1651.202023 1434.415271 1744.918383 1413.772991 1838.634744 1394.765742 C 1746.335261 1420.517498 1653.630957 1444.429843 1560.926652 1467.93343 L 1526.111935 1476.926107 L 1491.297217 1485.510025 L 1421.465372 1502.882242 L 1282.004092 1536.809158 L 1142.137991 1569.918559 C 1095.583427 1580.546268 1048.826452 1591.582734 1002.271889 1602.006064 C 908.757939 1623.261482 815.24399 1643.903762 721.325218 1662.911011 Z M 721.325218 1662.911011 " stroke="#000000" stroke-width="1" stroke-opacity="1" stroke-miterlimit="10"/><path stroke-linecap="butt" transform="matrix(0.0192986, 0, 0, 0.0191128, -0.611967, -0.872687)" fill-opacity="1" fill="#e5e1d3" fill-rule="nonzero" stroke-linejoin="miter" d="M 721.325218 1705.830604 C 813.624701 1680.078848 906.329005 1656.166503 999.235721 1632.662916 C 1045.587874 1620.604555 1092.142437 1609.363709 1138.49459 1597.714105 L 1278.158281 1563.787188 L 1417.821971 1530.677788 L 1487.856228 1514.531846 L 1522.873356 1506.356685 L 1557.890484 1498.385903 C 1651.202023 1477.334865 1744.918383 1456.692584 1838.634744 1437.480957 C 1746.335261 1463.232713 1653.630957 1487.145057 1560.926652 1510.648644 L 1526.111935 1519.641321 L 1491.297217 1528.22524 L 1421.465372 1545.597456 L 1282.004092 1579.524372 L 1142.137991 1612.633773 C 1095.583427 1623.465861 1048.826452 1634.297949 1002.271889 1644.925657 C 908.757939 1665.976696 815.24399 1686.618977 721.325218 1705.830604 Z M 721.325218 1705.830604 " stroke="#000000" stroke-width="1" stroke-opacity="1" stroke-miterlimit="10"/><path stroke-linecap="butt" transform="matrix(0.0192986, 0, 0, 0.0191128, -0.611967, -0.872687)" fill-opacity="1" fill="#e5e1d3" fill-rule="nonzero" stroke-linejoin="miter" d="M 721.325218 1753.246536 C 813.624701 1727.49478 906.329005 1703.378056 999.235721 1679.874469 C 1045.587874 1668.020486 1092.142437 1656.77964 1138.49459 1645.130036 L 1278.158281 1611.20312 L 1417.821971 1578.093719 L 1487.856228 1561.947777 L 1522.873356 1553.772616 L 1557.890484 1545.801835 C 1651.202023 1524.546417 1744.918383 1503.904137 1838.634744 1484.896888 C 1746.335261 1510.648644 1653.630957 1534.560989 1560.926652 1558.064576 L 1526.111935 1567.057252 L 1491.297217 1575.641171 L 1421.465372 1593.013387 L 1282.004092 1626.940304 L 1142.137991 1660.049705 C 1095.583427 1670.677413 1048.826452 1681.71388 1002.271889 1692.13721 C 908.757939 1713.392628 815.24399 1734.034908 721.325218 1753.246536 Z M 721.325218 1753.246536 " stroke="#000000" stroke-width="1" stroke-opacity="1" stroke-miterlimit="10"/><path stroke-linecap="butt" transform="matrix(0.0192986, 0, 0, 0.0191128, -0.611967, -0.872687)" fill-opacity="1" fill="#f04d6e" fill-rule="nonzero" stroke-linejoin="miter" d="M 1588.454567 1460.575785 L 1675.086538 1438.707231 C 1675.086538 1438.707231 1688.040851 1488.371332 1676.098594 1528.429619 L 1642.700755 1500.429693 L 1611.731849 1542.123013 C 1611.731849 1542.123013 1611.327027 1477.743623 1588.454567 1460.575785 Z M 1588.454567 1460.575785 " stroke="#000000" stroke-width="1" stroke-opacity="1" stroke-miterlimit="10"/><path stroke-linecap="butt" transform="matrix(0.0192986, 0, 0, 0.0191128, -0.611967, -0.872687)" fill-opacity="1" fill="#f04d6e" fill-rule="nonzero" stroke-linejoin="miter" d="M 1041.33724 1633.071674 L 1128.374033 1613.451289 C 1128.374033 1613.451289 1141.328346 1662.297874 1129.183677 1702.356161 L 1095.988249 1674.356236 L 1065.019344 1716.049555 C 1065.019344 1716.049555 1064.209699 1650.239512 1041.33724 1633.071674 Z M 1041.33724 1633.071674 " stroke="#000000" stroke-width="1" stroke-opacity="1" stroke-miterlimit="10"/><path stroke-linecap="butt" transform="matrix(0.0192986, 0, 0, 0.0191128, -0.611967, -0.872687)" fill-opacity="1" fill="#ffffff" fill-rule="nonzero" stroke-linejoin="miter" d="M 1887.820652 1002.97117 L 1896.524332 1220.021684 L 1390.294056 1522.707006 C 1390.294056 1522.707006 1319.450154 1466.911535 1366.40954 1320.167402 Z M 1887.820652 1002.97117 " stroke="#000000" stroke-width="1" stroke-opacity="1" stroke-miterlimit="10"/><path stroke-linecap="butt" transform="matrix(0.0192986, 0, 0, 0.0191128, -0.611967, -0.872687)" fill-opacity="1" fill="#55c1ae" fill-rule="nonzero" stroke-linejoin="miter" d="M 1892.880931 985.598953 L 1353.657638 1313.422894 L 87.171098 1012.576983 L 653.315073 714.592379 Z M 1892.880931 985.598953 " stroke="#000000" stroke-width="1" stroke-opacity="1" stroke-miterlimit="10"/><g mask="url(#ae6065660d)"><g transform="matrix(1, 0, 0, 1, 3, 13)"><g clip-path="url(#4fa0cab83d)"><g clip-path="url(#aed098fca9)"><path stroke-linecap="butt" transform="matrix(0.0192986, 0, 0, 0.0191128, -3.611967, -13.872687)" fill-opacity="1" fill="#07b28f" fill-rule="nonzero" stroke-linejoin="miter" d="M 1345.763601 1271.729574 C 1345.156368 1271.729574 1344.346723 1271.729574 1343.73949 1271.525195 L 218.535929 1004.401822 C 215.094939 1003.584306 212.261183 1000.51862 211.856361 996.839798 C 211.451539 993.160976 213.273239 989.686532 216.511817 987.847121 L 655.946415 756.694455 C 657.970527 755.67256 659.994638 755.263802 662.01875 755.876939 L 1769.41013 997.861693 C 1772.851119 998.679209 1775.684875 1001.540515 1776.292109 1005.014959 C 1776.899342 1008.489402 1775.280053 1012.168224 1772.041474 1014.007635 L 1350.419057 1270.5033 C 1349.002179 1271.320816 1347.38289 1271.729574 1345.763601 1271.729574 Z M 245.659022 992.547839 L 1344.346723 1253.335462 L 1743.906325 1010.328813 L 661.411516 773.862292 Z M 245.659022 992.547839 " stroke="#000000" stroke-width="1" stroke-opacity="1" stroke-miterlimit="10"/></g></g></g></g><path stroke-linecap="butt" transform="matrix(0.0192986, 0, 0, 0.0191128, -0.611967, -0.872687)" fill-opacity="1" fill="#00b59c" fill-rule="nonzero" stroke-linejoin="miter" d="M 87.171098 1012.576983 C 87.171098 1012.576983 32.115266 1178.737123 97.089244 1234.736973 C 162.063222 1290.736824 1364.58784 1565.42222 1364.58784 1565.42222 L 1922.230547 1240.255207 L 1923.242603 1204.080121 L 1390.294056 1522.707006 C 1390.294056 1522.707006 1352.443171 1496.95525 1353.657638 1429.101417 C 1355.074516 1361.451963 1366.40954 1320.167402 1366.40954 1320.167402 L 1887.618241 1002.97117 L 1891.666464 985.190195 L 1353.657638 1313.422894 Z M 87.171098 1012.576983 " stroke="#000000" stroke-width="1" stroke-opacity="1" stroke-miterlimit="10"/><path stroke-linecap="butt" transform="matrix(0.0192986, 0, 0, 0.0191128, -0.611967, -0.872687)" fill-opacity="1" fill="#039e84" fill-rule="nonzero" stroke-linejoin="miter" d="M 1923.242603 1204.080121 L 1895.714687 1204.080121 L 1896.524332 1220.021684 Z M 1923.242603 1204.080121 " stroke="#000000" stroke-width="1" stroke-opacity="1" stroke-miterlimit="10"/><path stroke-linecap="butt" transform="matrix(0.0192986, 0, 0, 0.0191128, -0.611967, -0.872687)" fill-opacity="1" fill="#65c5b3" fill-rule="nonzero" stroke-linejoin="miter" d="M 288.97501 1060.606052 C 288.97501 1060.606052 200.521339 1221.452337 290.594299 1301.160153 L 337.756096 1314.24041 C 337.756096 1314.24041 259.220572 1220.226063 359.211678 1077.160752 Z M 288.97501 1060.606052 " stroke="#000000" stroke-width="1" stroke-opacity="1" stroke-miterlimit="10"/><path stroke-linecap="butt" transform="matrix(0.0192986, 0, 0, 0.0191128, -0.611967, -0.872687)" fill-opacity="1" fill="#65c5b3" fill-rule="nonzero" stroke-linejoin="miter" d="M 397.467384 1086.357808 C 397.467384 1086.357808 309.013714 1251.087295 399.086674 1330.795111 L 447.058115 1343.46661 C 447.058115 1343.46661 367.712946 1245.977819 467.704052 1102.912508 Z M 397.467384 1086.357808 " stroke="#000000" stroke-width="1" stroke-opacity="1" stroke-miterlimit="10"/><path stroke-linecap="butt" transform="matrix(0.0192986, 0, 0, 0.0191128, -0.611967, -0.872687)" fill-opacity="1" fill="#65c5b3" fill-rule="nonzero" stroke-linejoin="miter" d="M 923.938775 1210.620249 C 923.938775 1210.620249 836.49716 1382.91176 926.57012 1462.619576 L 973.731917 1473.860421 C 973.731917 1473.860421 894.184337 1370.240261 994.175443 1227.379329 Z M 923.938775 1210.620249 " stroke="#000000" stroke-width="1" stroke-opacity="1" stroke-miterlimit="10"/><path stroke-linecap="butt" transform="matrix(0.0192986, 0, 0, 0.0191128, -0.611967, -0.872687)" fill-opacity="1" fill="#65c5b3" fill-rule="nonzero" stroke-linejoin="miter" d="M 1032.431149 1236.372005 C 1032.431149 1236.372005 944.989534 1408.663515 1035.062494 1488.371332 L 1083.033936 1499.816556 C 1083.033936 1499.816556 1002.676711 1395.992017 1102.667817 1253.131085 Z M 1032.431149 1236.372005 " stroke="#000000" stroke-width="1" stroke-opacity="1" stroke-miterlimit="10"/><path stroke-linecap="butt" transform="matrix(0.0192986, 0, 0, 0.0191128, -0.611967, -0.872687)" fill-opacity="1" fill="#e5e1d3" fill-rule="nonzero" stroke-linejoin="miter" d="M 1874.461517 1060.197294 C 1836.813044 1087.788461 1798.152515 1113.744596 1759.289575 1139.087594 C 1739.858105 1151.963472 1720.224224 1164.226213 1700.590342 1176.897712 L 1641.486288 1213.685935 L 1581.775 1249.86102 C 1561.736296 1261.510624 1541.900004 1273.568986 1521.658889 1285.014211 C 1481.379071 1308.313419 1440.694431 1330.99949 1399.200146 1352.050528 C 1436.848619 1324.66374 1475.509148 1298.707605 1514.372088 1273.364607 C 1533.803558 1260.488729 1553.437439 1248.021609 1573.07132 1235.554489 L 1632.175375 1198.561888 L 1691.886663 1162.591181 C 1711.925367 1150.737198 1731.761659 1138.883215 1752.002773 1127.43799 C 1792.282592 1104.138782 1832.967232 1081.452712 1874.461517 1060.197294 Z M 1874.461517 1060.197294 " stroke="#000000" stroke-width="1" stroke-opacity="1" stroke-miterlimit="10"/><path stroke-linecap="butt" transform="matrix(0.0192986, 0, 0, 0.0191128, -0.611967, -0.872687)" fill-opacity="1" fill="#e5e1d3" fill-rule="nonzero" stroke-linejoin="miter" d="M 1867.98436 1171.992616 C 1830.335887 1199.379404 1791.877769 1225.335539 1752.812418 1250.678537 C 1733.380948 1263.554414 1713.747067 1276.021534 1694.113186 1288.488654 L 1635.009131 1325.481256 L 1575.297843 1361.451963 C 1555.25914 1373.305946 1535.422847 1385.364308 1515.181733 1396.809533 C 1474.901915 1419.904361 1434.217274 1442.590432 1392.722989 1463.84585 C 1430.371462 1436.254683 1469.031991 1410.298548 1507.894931 1384.95555 C 1527.326401 1372.079672 1546.960283 1359.816931 1566.594164 1347.145432 L 1625.698218 1310.357209 L 1685.409506 1274.182123 C 1705.44821 1262.532519 1725.486913 1250.474157 1745.728028 1239.028933 C 1786.007846 1215.729725 1826.490075 1193.043654 1867.98436 1171.992616 Z M 1867.98436 1171.992616 " stroke="#000000" stroke-width="1" stroke-opacity="1" stroke-miterlimit="10"/><path stroke-linecap="butt" transform="matrix(0.0192986, 0, 0, 0.0191128, -0.611967, -0.872687)" fill-opacity="1" fill="#e5e1d3" fill-rule="nonzero" stroke-linejoin="miter" d="M 1869.80606 1116.810281 C 1831.550354 1143.175174 1792.687414 1168.722551 1753.419651 1193.656791 C 1714.3543 1218.79541 1674.884127 1243.320892 1635.211542 1267.846374 C 1595.538958 1291.963098 1555.866373 1316.079821 1515.788966 1339.583408 C 1475.711559 1363.291374 1435.22933 1386.386203 1394.54469 1408.663515 C 1433.002807 1382.503001 1471.663336 1356.751246 1510.931099 1331.817006 C 1549.99645 1306.678387 1589.466623 1282.152905 1629.139208 1257.831802 C 1668.811792 1233.510699 1708.484377 1209.393975 1748.561784 1185.890389 C 1788.639191 1162.182423 1829.12142 1139.291973 1869.80606 1116.810281 Z M 1869.80606 1116.810281 " stroke="#000000" stroke-width="1" stroke-opacity="1" stroke-miterlimit="10"/><path stroke-linecap="butt" transform="matrix(0.0192986, 0, 0, 0.0191128, -0.611967, -0.872687)" fill-opacity="1" fill="#ffffff" fill-rule="nonzero" stroke-linejoin="miter" d="M 1914.741335 963.934778 L 1911.097934 795.526469 L 699.869637 1073.890688 L 237.562579 801.657839 C 237.562579 801.657839 227.442022 793.073921 218.940754 797.161501 C 210.237074 801.044702 209.629841 808.606726 209.629841 808.606726 L 203.152684 946.76694 C 203.152684 946.76694 202.34304 955.759617 208.820196 959.847197 C 215.297353 963.934778 688.737023 1260.28435 688.737023 1260.28435 Z M 1914.741335 963.934778 " stroke="#000000" stroke-width="1" stroke-opacity="1" stroke-miterlimit="10"/><path stroke-linecap="butt" transform="matrix(0.0192986, 0, 0, 0.0191128, -0.611967, -0.872687)" fill-opacity="1" fill="#fecf09" fill-rule="nonzero" stroke-linejoin="miter" d="M 1333.618935 439.906982 L 1928.302882 741.36603 L 704.727504 1033.628022 L 188.174259 723.176298 Z M 1333.618935 439.906982 " stroke="#000000" stroke-width="1" stroke-opacity="1" stroke-miterlimit="10"/><g mask="url(#58134c6608)"><g transform="matrix(1, 0, 0, 1, 4, 8)"><g clip-path="url(#777a7e5502)"><g clip-path="url(#4ce17eeef8)"><path stroke-linecap="butt" transform="matrix(0.0192986, 0, 0, 0.0191128, -4.611967, -8.872687)" fill-opacity="1" fill="#f9a11b" fill-rule="nonzero" stroke-linejoin="miter" d="M 711.407066 996.43104 C 710.39501 996.43104 709.180543 996.022282 708.370898 995.409145 L 289.98706 744.227335 C 287.760537 743.001061 286.748481 740.548513 287.153304 738.095964 C 287.558126 735.643416 289.177415 733.599626 291.606349 733.190868 L 1327.141772 476.899583 C 1328.55865 476.490825 1330.177939 476.695204 1331.392406 477.308341 L 1814.3454 722.35878 C 1816.571923 723.380675 1817.988801 725.833223 1817.583979 728.490151 C 1817.381567 730.942699 1815.559867 732.986489 1812.928522 733.599626 L 712.823944 996.226661 C 712.419121 996.226661 712.014299 996.43104 711.407066 996.43104 Z M 308.811296 741.366029 L 712.419121 983.759541 L 1794.104286 725.628844 L 1327.951416 489.162324 Z M 308.811296 741.366029 " stroke="#000000" stroke-width="1" stroke-opacity="1" stroke-miterlimit="10"/></g></g></g></g><path fill="#f9a11b" d="M 36.804688 17.4375 L 36.804688 18.367188 L 12.785156 24.316406 L 2.59375 17.828125 C 2.59375 17.828125 1.855469 15.265625 3.019531 12.949219 L 12.988281 18.882812 L 36.601562 13.300781 L 36.601562 14.253906 L 12.894531 19.652344 L 3.863281 14.382812 C 3.675781 14.273438 3.4375 14.398438 3.429688 14.613281 L 3.308594 17.246094 C 3.304688 17.339844 3.351562 17.429688 3.433594 17.480469 L 12.679688 23.214844 Z M 36.804688 17.4375 " fill-opacity="1" fill-rule="nonzero"/><g clip-path="url(#87a4153828)"><path stroke-linecap="butt" transform="matrix(0.0192986, 0, 0, 0.0191128, -0.611967, -0.872687)" fill="none" stroke-linejoin="miter" d="M 1938.828261 958.007786 L 1938.828261 1006.649992 L 694.202124 1317.919233 L 166.111444 978.445688 C 166.111444 978.445688 127.855738 844.373054 188.174259 723.176298 L 704.727504 1033.628022 L 1928.302882 741.570409 L 1928.302882 791.438889 L 699.869637 1073.890688 L 231.895067 798.183396 C 222.179332 792.460784 209.832252 799.000912 209.42743 810.241758 L 203.152684 947.993215 C 202.950273 952.898311 205.379207 957.599028 209.629841 960.255955 L 688.737023 1260.28435 Z M 1938.828261 958.007786 " stroke="#000000" stroke-width="1" stroke-opacity="1" stroke-miterlimit="10"/></g><g mask="url(#b4d7844b4e)"><g transform="matrix(1, 0, 0, 1, 12, 14)"><g clip-path="url(#b53951f893)"><g clip-path="url(#34a00a0041)"><path stroke-linecap="butt" transform="matrix(0.0192986, 0, 0, 0.0191128, -12.611967, -14.872687)" fill-opacity="1" fill="#f9a11b" fill-rule="nonzero" stroke-linejoin="miter" d="M 688.737017 1260.284349 L 699.86963 1073.890687 L 1911.097928 795.526468 L 1914.741329 963.934777 Z M 688.737017 1260.284349 " stroke="#000000" stroke-width="1" stroke-opacity="1" stroke-miterlimit="10"/></g></g></g></g><path fill="#e98d24" d="M 36.804688 17.4375 L 36.332031 17.183594 L 36.339844 17.550781 Z M 36.804688 17.4375 " fill-opacity="1" fill-rule="nonzero"/><g clip-path="url(#4418019b2c)"><path stroke-linecap="butt" transform="matrix(0.0192986, 0, 0, 0.0191128, -0.611967, -0.872687)" fill="none" stroke-linejoin="miter" d="M 1938.828261 958.007786 L 1914.336513 944.72315 L 1914.741335 963.934778 Z M 1938.828261 958.007786 " stroke="#000000" stroke-width="1" stroke-opacity="1" stroke-miterlimit="10"/></g><path stroke-linecap="butt" transform="matrix(0.0192986, 0, 0, 0.0191128, -0.611967, -0.872687)" fill-opacity="1" fill="#e98d24" fill-rule="nonzero" stroke-linejoin="miter" d="M 1928.302882 791.438889 L 1911.300345 799.000912 L 1911.097934 795.526469 Z M 1928.302882 791.438889 " stroke="#000000" stroke-width="1" stroke-opacity="1" stroke-miterlimit="10"/><path stroke-linecap="butt" transform="matrix(0.0192986, 0, 0, 0.0191128, -0.611967, -0.872687)" fill-opacity="1" fill="#fce586" fill-rule="nonzero" stroke-linejoin="miter" d="M 1291.517416 528.607475 L 1612.339083 704.782186 L 1489.880339 747.906158 L 1186.466032 557.220537 Z M 1291.517416 528.607475 " stroke="#000000" stroke-width="1" stroke-opacity="1" stroke-miterlimit="10"/><path stroke-linecap="butt" transform="matrix(0.0192986, 0, 0, 0.0191128, -0.611967, -0.872687)" fill-opacity="1" fill="#fce586" fill-rule="nonzero" stroke-linejoin="miter" d="M 1090.118326 592.373728 L 1393.937456 772.840398 L 1381.590376 780.198043 L 1078.176068 598.505098 Z M 1090.118326 592.373728 " stroke="#000000" stroke-width="1" stroke-opacity="1" stroke-miterlimit="10"/><path stroke-linecap="butt" transform="matrix(0.0192986, 0, 0, 0.0191128, -0.611967, -0.872687)" fill-opacity="1" fill="#e5e1d3" fill-rule="nonzero" stroke-linejoin="miter" d="M 235.133645 839.263578 C 271.36524 859.70148 306.989602 880.956897 342.411553 902.212315 C 360.021322 912.840024 377.833503 923.672112 395.443273 934.299821 L 448.272582 967.000463 L 500.89948 999.905484 C 518.306839 1010.941951 535.916608 1021.978418 553.323967 1033.219264 C 588.138684 1055.496577 622.75099 1078.182647 657.160885 1101.481855 C 621.131701 1081.043954 585.507339 1059.788536 549.882977 1038.533118 C 532.070796 1027.90541 514.461027 1017.073322 496.851257 1006.445613 L 444.021948 973.744971 L 391.39505 940.839949 C 373.987691 929.803482 356.377922 918.767015 338.970563 907.526169 C 304.155846 885.248857 269.54354 862.562786 235.133645 839.263578 Z M 235.133645 839.263578 " stroke="#000000" stroke-width="1" stroke-opacity="1" stroke-miterlimit="10"/><path stroke-linecap="butt" transform="matrix(0.0192986, 0, 0, 0.0191128, -0.611967, -0.872687)" fill-opacity="1" fill="#e5e1d3" fill-rule="nonzero" stroke-linejoin="miter" d="M 233.311945 885.044478 C 269.341129 905.482379 304.965491 926.533418 340.589852 947.788836 C 358.199622 958.416544 375.809392 969.248632 393.621573 980.08072 L 446.450882 1012.576983 L 499.07778 1045.482005 C 516.485138 1056.518472 534.094908 1067.554939 551.502266 1078.795784 C 586.316984 1101.073097 620.92929 1123.759168 655.136773 1147.058376 C 619.107589 1126.620474 583.483228 1105.569436 548.061277 1084.109639 C 530.249096 1073.48193 512.639326 1062.649842 495.029557 1052.022133 L 442.200248 1019.52587 L 389.57335 986.416469 C 372.165991 975.380003 354.556221 964.343536 337.148863 953.10269 C 302.334146 930.825377 267.72184 908.139307 233.311945 885.044478 Z M 233.311945 885.044478 " stroke="#000000" stroke-width="1" stroke-opacity="1" stroke-miterlimit="10"/><path stroke-linecap="butt" transform="matrix(0.0192986, 0, 0, 0.0191128, -0.611967, -0.872687)" fill-opacity="1" fill="#e5e1d3" fill-rule="nonzero" stroke-linejoin="miter" d="M 235.133645 932.25603 C 271.36524 952.693932 306.989602 973.744971 342.411553 995.204767 C 360.021322 1005.628097 377.833503 1016.460185 395.443273 1027.292273 L 448.272582 1059.788536 L 500.89948 1092.693558 C 518.306839 1103.934403 535.916608 1114.97087 553.323967 1126.211716 C 588.138684 1148.489029 622.75099 1170.97072 657.160885 1194.269928 C 621.131701 1173.832027 585.507339 1152.780988 549.882977 1131.52557 C 532.070796 1120.897862 514.461027 1110.065774 496.851257 1099.233686 L 444.021948 1066.737423 L 391.39505 1033.832401 C 373.987691 1022.591555 356.377922 1011.759467 338.970563 1000.518622 C 304.155846 978.03693 269.54354 955.555238 235.133645 932.25603 Z M 235.133645 932.25603 " stroke="#000000" stroke-width="1" stroke-opacity="1" stroke-miterlimit="10"/><path stroke-linecap="butt" transform="matrix(0.0192986, 0, 0, 0.0191128, -0.611967, -0.872687)" fill-opacity="1" fill="#e5e1d3" fill-rule="nonzero" stroke-linejoin="miter" d="M 761.200214 1104.751919 C 853.499696 1079.204543 946.204001 1055.087819 1039.110717 1031.584232 C 1085.46287 1019.730249 1132.017433 1008.285024 1178.369586 996.839799 L 1317.830865 962.708504 L 1457.696967 929.599103 L 1527.731224 913.453161 L 1597.76548 897.511598 C 1691.077019 876.25618 1784.590968 855.6139 1878.50974 836.606651 C 1786.210257 862.154028 1693.505952 886.270752 1600.599236 909.774339 L 1530.969802 927.350934 L 1461.340368 944.518771 L 1321.676677 978.650067 L 1182.012986 1011.555088 C 1135.256012 1022.387176 1088.701448 1033.423643 1041.944473 1043.846973 C 948.632935 1065.10239 855.118985 1085.744671 761.200214 1104.751919 Z M 761.200214 1104.751919 " stroke="#000000" stroke-width="1" stroke-opacity="1" stroke-miterlimit="10"/><path stroke-linecap="butt" transform="matrix(0.0192986, 0, 0, 0.0191128, -0.611967, -0.872687)" fill-opacity="1" fill="#e5e1d3" fill-rule="nonzero" stroke-linejoin="miter" d="M 761.200214 1147.467134 C 853.499696 1121.919757 946.204001 1097.803033 1039.110717 1074.299446 C 1085.46287 1062.445463 1132.017433 1051.204617 1178.369586 1039.555013 L 1317.830865 1005.628097 L 1457.696967 972.518696 L 1527.731224 956.168375 L 1597.76548 940.226812 C 1691.077019 918.971394 1784.590968 898.329114 1878.50974 879.321865 C 1786.210257 904.869242 1693.505952 928.985966 1600.599236 952.489553 L 1530.969802 970.066148 L 1461.340368 987.438365 L 1321.676677 1021.365281 L 1182.012986 1054.474682 C 1135.256012 1065.10239 1088.701448 1076.138857 1041.944473 1086.562187 C 948.632935 1107.817605 855.118985 1128.459885 761.200214 1147.467134 Z M 761.200214 1147.467134 " stroke="#000000" stroke-width="1" stroke-opacity="1" stroke-miterlimit="10"/><path stroke-linecap="butt" transform="matrix(0.0192986, 0, 0, 0.0191128, -0.611967, -0.872687)" fill-opacity="1" fill="#e5e1d3" fill-rule="nonzero" stroke-linejoin="miter" d="M 761.200214 1194.883065 C 853.499696 1169.335688 946.204001 1145.218965 1039.110717 1121.715378 C 1085.46287 1109.861395 1132.017433 1098.41617 1178.369586 1086.970945 L 1317.830865 1053.044029 L 1457.696967 1019.934628 L 1527.731224 1003.584307 L 1597.76548 987.642744 C 1691.077019 966.387326 1784.590968 945.745045 1878.50974 926.737797 C 1786.210257 952.285174 1693.505952 976.401898 1600.599236 999.905484 L 1530.969802 1017.48208 L 1461.340368 1034.854296 L 1321.676677 1068.781213 L 1182.012986 1101.890613 C 1135.256012 1112.518322 1088.701448 1123.554789 1041.944473 1133.978119 C 948.632935 1155.233536 855.118985 1175.875817 761.200214 1194.883065 Z M 761.200214 1194.883065 " stroke="#000000" stroke-width="1" stroke-opacity="1" stroke-miterlimit="10"/><path stroke-linecap="butt" transform="matrix(0.0192986, 0, 0, 0.0191128, -0.611967, -0.872687)" fill-opacity="1" fill="#f04d6e" fill-rule="nonzero" stroke-linejoin="miter" d="M 1628.127152 902.416694 L 1714.961534 880.548139 C 1714.961534 880.548139 1727.915847 930.21224 1715.771178 970.270527 L 1682.57575 942.270602 L 1651.404434 983.963921 C 1651.404434 983.963921 1651.202023 919.584531 1628.127152 902.416694 Z M 1628.127152 902.416694 " stroke="#000000" stroke-width="1" stroke-opacity="1" stroke-miterlimit="10"/><path stroke-linecap="butt" transform="matrix(0.0192986, 0, 0, 0.0191128, -0.611967, -0.872687)" fill-opacity="1" fill="#f04d6e" fill-rule="nonzero" stroke-linejoin="miter" d="M 1081.009824 1074.912583 L 1168.046617 1055.292198 C 1168.046617 1055.292198 1181.203342 1104.138782 1169.058673 1143.99269 L 1135.863245 1116.197144 L 1104.691929 1157.890463 C 1104.691929 1157.890463 1104.084695 1092.08042 1081.009824 1074.912583 Z M 1081.009824 1074.912583 " stroke="#000000" stroke-width="1" stroke-opacity="1" stroke-miterlimit="10"/><path stroke-linecap="butt" transform="matrix(0.0192986, 0, 0, 0.0191128, -0.611967, -0.872687)" fill-opacity="1" fill="#ffffff" fill-rule="nonzero" stroke-linejoin="miter" d="M 161.455988 654.300569 L 166.313856 485.892261 L 1375.518042 773.249156 L 1839.6468 504.490751 C 1839.6468 504.490751 1849.969768 496.111211 1858.471036 500.198792 C 1866.972304 504.286372 1867.781949 511.848395 1867.781949 511.848395 L 1873.044639 650.00861 C 1873.044639 650.00861 1873.854283 658.796908 1867.377127 662.884488 C 1860.89997 666.972068 1385.233777 959.847197 1385.233777 959.847197 Z M 161.455988 654.300569 " stroke="#000000" stroke-width="1" stroke-opacity="1" stroke-miterlimit="10"/><g clip-path="url(#6ecb48e75a)"><path fill="#f0536d" d="M 13.792969 1.699219 L 2.273438 7.378906 L 25.84375 13.136719 L 35.859375 7.277344 Z M 13.792969 1.699219 " fill-opacity="1" fill-rule="nonzero"/></g><g clip-path="url(#0d56e87e6e)"><path stroke-linecap="butt" transform="matrix(0.0192986, 0, 0, 0.0191128, -0.611967, -0.872687)" fill="none" stroke-linejoin="miter" d="M 746.4242 134.564733 L 149.513731 431.731821 L 1370.862586 732.98649 L 1889.844764 426.417967 Z M 746.4242 134.564733 " stroke="#000000" stroke-width="1" stroke-opacity="1" stroke-miterlimit="10"/></g><g mask="url(#d128ad5b2d)"><g transform="matrix(1, 0, 0, 1, 4, 2)"><g clip-path="url(#5fe88094fc)"><g clip-path="url(#07ab513d55)"><path fill="#ffffff" d="M 21.71875 10.425781 C 21.742188 10.425781 21.761719 10.417969 21.78125 10.410156 L 29.890625 5.664062 C 29.929688 5.640625 29.953125 5.59375 29.945312 5.546875 C 29.941406 5.5 29.90625 5.464844 29.859375 5.453125 L 9.914062 0.410156 C 9.886719 0.402344 9.855469 0.40625 9.832031 0.417969 L 0.476562 5.027344 C 0.429688 5.050781 0.40625 5.097656 0.410156 5.144531 C 0.417969 5.195312 0.453125 5.234375 0.5 5.246094 L 21.691406 10.421875 C 21.703125 10.421875 21.710938 10.425781 21.71875 10.425781 Z M 29.527344 5.609375 L 21.703125 10.183594 L 0.867188 5.097656 L 9.894531 0.644531 Z M 29.527344 5.609375 " fill-opacity="1" fill-rule="nonzero"/></g><g clip-path="url(#72522b621f)"><path stroke-linecap="butt" transform="matrix(0.0192986, 0, 0, 0.0191128, -4.611967, -2.872687)" fill="none" stroke-linejoin="miter" d="M 1364.385423 695.789509 C 1365.59989 695.789509 1366.611945 695.380751 1367.624001 694.971993 L 1787.82954 446.65149 C 1789.853652 445.425215 1791.068119 442.972667 1790.663296 440.520119 C 1790.460885 438.067571 1788.639185 436.22816 1786.210251 435.615023 L 752.698939 171.761714 C 751.282061 171.352956 749.662772 171.557335 748.448305 172.170472 L 263.673611 413.33771 C 261.244677 414.563984 260.03021 417.016532 260.232621 419.46908 C 260.637444 422.126008 262.459144 424.169798 264.888078 424.782935 L 1362.968545 695.58513 C 1363.575778 695.58513 1363.9806 695.789509 1364.385423 695.789509 Z M 1769.005304 443.790183 L 1363.575778 683.11801 L 283.914725 417.016532 L 751.686884 184.024455 Z M 1769.005304 443.790183 " stroke="#000000" stroke-width="1" stroke-opacity="1" stroke-miterlimit="10"/></g></g></g></g><path stroke-linecap="butt" transform="matrix(0.0192986, 0, 0, 0.0191128, -0.611967, -0.872687)" fill-opacity="1" fill="#ed184a" fill-rule="nonzero" stroke-linejoin="miter" d="M 137.571473 648.373578 L 137.166651 696.811405 L 1379.161443 1017.277701 L 1909.883467 681.687357 C 1909.883467 681.687357 1949.15123 548.22786 1889.844764 426.417967 L 1370.862586 732.98649 L 149.513731 431.731821 L 149.108908 481.80468 L 1375.518042 773.249156 L 1845.516723 501.016308 C 1855.232458 495.498074 1867.377127 502.242582 1867.781949 513.279049 L 1873.044639 651.234884 C 1873.24705 656.13998 1870.818116 660.840698 1866.567482 663.497625 L 1385.233777 959.847197 Z M 137.571473 648.373578 " stroke="#000000" stroke-width="1" stroke-opacity="1" stroke-miterlimit="10"/><g mask="url(#3ca19f5682)"><g transform="matrix(1, 0, 0, 1, 2, 8)"><g clip-path="url(#eb8e88667a)"><g clip-path="url(#ab8ce6a576)"><path stroke-linecap="butt" transform="matrix(0.0192986, 0, 0, 0.0191128, -2.611967, -8.872687)" fill-opacity="1" fill="#f9a11b" fill-rule="nonzero" stroke-linejoin="miter" d="M 1385.233774 959.847196 L 1375.518039 773.249155 L 166.313853 485.892259 L 161.455986 654.300568 Z M 1385.233774 959.847196 " stroke="#000000" stroke-width="1" stroke-opacity="1" stroke-miterlimit="10"/></g></g></g></g><path stroke-linecap="butt" transform="matrix(0.0192986, 0, 0, 0.0191128, -0.611967, -0.872687)" fill-opacity="1" fill="#e98d24" fill-rule="nonzero" stroke-linejoin="miter" d="M 137.571473 648.373578 L 162.063222 635.293321 L 161.455988 654.300569 Z M 137.571473 648.373578 " stroke="#000000" stroke-width="1" stroke-opacity="1" stroke-miterlimit="10"/><path stroke-linecap="butt" transform="matrix(0.0192986, 0, 0, 0.0191128, -0.611967, -0.872687)" fill-opacity="1" fill="#e98d24" fill-rule="nonzero" stroke-linejoin="miter" d="M 149.108908 481.80468 L 166.111444 489.366704 L 166.313856 485.892261 Z M 149.108908 481.80468 " stroke="#000000" stroke-width="1" stroke-opacity="1" stroke-miterlimit="10"/><path stroke-linecap="butt" transform="matrix(0.0192986, 0, 0, 0.0191128, -0.611967, -0.872687)" fill-opacity="1" fill="#f7acbc" fill-rule="nonzero" stroke-linejoin="miter" d="M 787.716074 223.673984 L 465.882352 397.600526 L 587.936273 441.542014 L 892.767459 253.104562 Z M 787.716074 223.673984 " stroke="#000000" stroke-width="1" stroke-opacity="1" stroke-miterlimit="10"/><path stroke-linecap="butt" transform="matrix(0.0192986, 0, 0, 0.0191128, -0.611967, -0.872687)" fill-opacity="1" fill="#f7acbc" fill-rule="nonzero" stroke-linejoin="miter" d="M 988.912753 289.075269 L 683.676745 467.29377 L 696.023825 474.447036 L 1000.855011 295.00226 Z M 988.912753 289.075269 " stroke="#000000" stroke-width="1" stroke-opacity="1" stroke-miterlimit="10"/><path stroke-linecap="butt" transform="matrix(0.0192986, 0, 0, 0.0191128, -0.611967, -0.872687)" fill-opacity="1" fill="#e5e1d3" fill-rule="nonzero" stroke-linejoin="miter" d="M 1841.873322 542.300869 C 1805.641727 562.330012 1769.814954 583.176672 1734.190593 604.22771 C 1716.378412 614.65104 1698.768642 625.483128 1680.956461 636.110837 L 1627.72233 668.198342 L 1574.893021 700.694606 C 1557.485662 711.731073 1539.875892 722.56316 1522.266123 733.804006 C 1487.248994 755.87694 1452.434277 778.154253 1418.024383 801.044702 C 1454.255978 781.015559 1490.082751 760.168899 1525.707112 739.117861 C 1543.519293 728.694531 1561.129063 717.862443 1578.941244 707.234734 L 1631.972964 675.147229 L 1684.802273 642.650965 C 1702.412043 631.614499 1720.021812 620.782411 1737.429171 609.745944 C 1772.446299 587.67301 1807.463427 565.191319 1841.873322 542.300869 Z M 1841.873322 542.300869 " stroke="#000000" stroke-width="1" stroke-opacity="1" stroke-miterlimit="10"/><path stroke-linecap="butt" transform="matrix(0.0192986, 0, 0, 0.0191128, -0.611967, -0.872687)" fill-opacity="1" fill="#e5e1d3" fill-rule="nonzero" stroke-linejoin="miter" d="M 1843.2902 587.877389 C 1807.058605 608.110912 1771.434243 628.753192 1735.809882 650.00861 C 1717.997701 660.43194 1700.18552 671.059649 1682.373339 681.687357 L 1629.341619 713.774863 L 1576.51231 746.475505 C 1558.90254 757.307593 1541.29277 768.139681 1523.885412 779.380527 C 1488.868284 801.45346 1454.053567 823.730773 1419.643672 846.825602 C 1455.672856 826.592079 1491.499629 805.74542 1527.12399 784.694381 C 1544.936171 774.271051 1562.748352 763.643343 1580.560533 753.015634 L 1633.592253 720.723749 L 1686.421562 688.227486 C 1704.031332 677.191019 1721.641102 666.358931 1739.04846 655.322464 C 1774.065588 633.249531 1808.880305 610.972218 1843.2902 587.877389 Z M 1843.2902 587.877389 " stroke="#000000" stroke-width="1" stroke-opacity="1" stroke-miterlimit="10"/><path stroke-linecap="butt" transform="matrix(0.0192986, 0, 0, 0.0191128, -0.611967, -0.872687)" fill-opacity="1" fill="#e5e1d3" fill-rule="nonzero" stroke-linejoin="miter" d="M 1841.063678 635.088942 C 1805.034494 655.322464 1769.207721 676.169124 1733.583359 697.220163 C 1715.771178 707.643492 1697.958997 718.47558 1680.146817 728.89891 L 1627.115096 761.190794 L 1574.285787 793.687058 C 1556.676018 804.723525 1539.066248 815.555613 1521.658889 826.592079 C 1486.641761 848.665013 1451.827044 870.942326 1417.417149 894.037154 C 1453.446333 874.008011 1489.273106 853.161351 1524.897468 832.110313 C 1542.709648 821.482604 1560.521829 810.854895 1578.33401 800.227186 L 1631.36573 768.139681 L 1684.19504 735.439038 C 1701.804809 724.606951 1719.414579 713.774863 1736.821938 702.534017 C 1771.839066 680.461083 1806.653783 658.183771 1841.063678 635.088942 Z M 1841.063678 635.088942 " stroke="#000000" stroke-width="1" stroke-opacity="1" stroke-miterlimit="10"/><path stroke-linecap="butt" transform="matrix(0.0192986, 0, 0, 0.0191128, -0.611967, -0.872687)" fill-opacity="1" fill="#e5e1d3" fill-rule="nonzero" stroke-linejoin="miter" d="M 1313.985053 803.70163 C 1221.887982 777.541116 1129.386088 752.811255 1036.681783 728.490152 C 990.329631 716.227411 943.977479 704.577807 897.625326 692.723824 L 758.164047 657.570634 L 618.702767 623.439338 L 548.870922 606.680259 L 513.853793 598.505098 L 479.039076 590.329937 C 385.727538 568.461383 292.416 547.001586 198.699639 527.176822 C 290.79671 553.541715 383.298604 578.271576 476.002909 602.592678 L 510.615215 611.585355 L 545.429932 620.578032 L 615.059366 638.359006 L 754.318235 673.307818 L 893.779514 707.439113 C 940.334078 718.679959 986.888642 729.920805 1033.645616 740.752893 C 1126.754743 762.621448 1220.268693 784.081244 1313.985053 803.70163 Z M 1313.985053 803.70163 " stroke="#000000" stroke-width="1" stroke-opacity="1" stroke-miterlimit="10"/><path stroke-linecap="butt" transform="matrix(0.0192986, 0, 0, 0.0191128, -0.611967, -0.872687)" fill-opacity="1" fill="#e5e1d3" fill-rule="nonzero" stroke-linejoin="miter" d="M 1313.580231 846.621223 C 1221.48316 820.25633 1128.981266 795.526469 1036.276961 771.205366 C 990.12722 758.942625 943.572656 747.293021 897.220504 735.439038 L 757.961635 700.490227 L 618.500356 666.154552 L 548.466099 649.599852 L 513.651382 641.220312 L 478.634254 633.045152 C 385.322716 611.176597 292.011177 589.7168 198.294817 570.096415 C 290.391888 596.256929 382.893782 620.98679 475.598087 645.307893 L 545.227521 663.293246 L 614.654544 681.07422 L 753.913412 716.023032 L 893.577103 750.154328 C 940.131667 761.395173 986.68623 772.636019 1033.240794 783.468107 C 1126.552332 805.336662 1219.863871 826.796458 1313.580231 846.621223 Z M 1313.580231 846.621223 " stroke="#000000" stroke-width="1" stroke-opacity="1" stroke-miterlimit="10"/><path stroke-linecap="butt" transform="matrix(0.0192986, 0, 0, 0.0191128, -0.611967, -0.872687)" fill-opacity="1" fill="#e5e1d3" fill-rule="nonzero" stroke-linejoin="miter" d="M 1313.37782 893.832775 C 1221.078337 867.672261 1128.576444 842.942401 1035.872139 818.621298 C 989.722398 806.358557 943.167834 794.708953 896.815682 782.85497 L 757.556813 747.701779 L 618.095534 713.570484 L 548.263688 696.811405 L 478.229432 680.461083 C 385.120304 658.38815 291.606355 637.132732 197.889994 617.307967 C 289.987066 643.67286 382.691371 668.402721 475.193264 692.723824 L 544.822699 710.709178 L 614.249722 728.490152 L 753.711001 763.438964 L 893.172281 797.570259 C 939.726845 808.811105 986.281408 820.051951 1032.835972 830.884039 C 1126.14751 852.752593 1219.459048 874.21239 1313.37782 893.832775 Z M 1313.37782 893.832775 " stroke="#000000" stroke-width="1" stroke-opacity="1" stroke-miterlimit="10"/><path stroke-linecap="butt" transform="matrix(0.0192986, 0, 0, 0.0191128, -0.611967, -0.872687)" fill-opacity="1" fill="#f04d6e" fill-rule="nonzero" stroke-linejoin="miter" d="M 448.474993 594.826276 L 361.843023 572.344584 C 361.843023 572.344584 348.483887 622.008685 360.223733 662.066972 L 393.823984 634.475805 L 424.590478 676.169124 C 424.590478 676.169124 425.400123 611.994113 448.474993 594.826276 Z M 448.474993 594.826276 " stroke="#000000" stroke-width="1" stroke-opacity="1" stroke-miterlimit="10"/><path stroke-linecap="butt" transform="matrix(0.0192986, 0, 0, 0.0191128, -0.611967, -0.872687)" fill-opacity="1" fill="#f04d6e" fill-rule="nonzero" stroke-linejoin="miter" d="M 994.175443 771.614124 L 907.341061 751.176223 C 907.341061 751.176223 893.981926 800.022807 905.721772 840.081094 L 939.119611 812.489927 L 970.088516 854.183246 C 970.088516 854.183246 971.100572 788.577582 994.175443 771.614124 Z M 994.175443 771.614124 " stroke="#000000" stroke-width="1" stroke-opacity="1" stroke-miterlimit="10"/><g mask="url(#ee342ccbaf)"><g transform="matrix(1, 0, 0, 1, 32, 12)"><g clip-path="url(#73c08ee05d)"><g clip-path="url(#6c5753e373)"><path fill="#010101" d="M 3.394531 0.691406 L 4.117188 1.054688 L 1.105469 2.125 Z M 3.394531 0.691406 " fill-opacity="1" fill-rule="nonzero"/></g><g clip-path="url(#4c44cefe3c)"><path stroke-linecap="butt" transform="matrix(0.0192986, 0, 0, 0.0191128, -32.611967, -12.872687)" fill="none" stroke-linejoin="miter" d="M 1865.757831 709.687281 L 1903.203893 728.69453 L 1747.1449 784.69438 Z M 1865.757831 709.687281 " stroke="#000000" stroke-width="1" stroke-opacity="1" stroke-miterlimit="10"/></g></g></g></g></svg>