<svg xmlns="http://www.w3.org/2000/svg" xmlns:xlink="http://www.w3.org/1999/xlink" width="1920" zoomAndPan="magnify" viewBox="0 0 1440 809.999993" height="1080" preserveAspectRatio="xMidYMid meet" version="1.0"><path fill="#f45830" d="M 434.785156 695.914062 C 417.671875 695.914062 406.261719 690.210938 394.855469 678.804688 L 166.683594 450.632812 C 143.867188 427.816406 143.867188 393.589844 166.683594 370.773438 L 394.855469 142.605469 C 417.671875 119.789062 451.894531 119.789062 474.714844 142.605469 C 497.53125 165.421875 497.53125 199.648438 474.714844 222.464844 L 286.472656 410.703125 L 474.714844 598.945312 C 497.53125 621.761719 497.53125 655.984375 474.714844 678.804688 C 463.304688 690.210938 451.894531 695.914062 434.785156 695.914062 Z M 434.785156 695.914062 " fill-opacity="1" fill-rule="nonzero"/><path fill="#f45830" d="M 1005.207031 695.914062 C 988.09375 695.914062 976.683594 690.210938 965.277344 678.804688 C 942.460938 655.984375 942.460938 621.761719 965.277344 598.945312 L 1153.515625 410.703125 L 965.277344 222.464844 C 942.460938 199.648438 942.460938 165.421875 965.277344 142.605469 C 988.09375 119.789062 1022.320312 119.789062 1045.136719 142.605469 L 1273.304688 370.773438 C 1296.121094 393.589844 1296.121094 427.816406 1273.304688 450.632812 L 1045.136719 678.804688 C 1033.726562 690.210938 1022.320312 695.914062 1005.207031 695.914062 Z M 1005.207031 695.914062 " fill-opacity="1" fill-rule="nonzero"/><path fill="#f45830" d="M 605.910156 810 C 600.207031 810 594.503906 810 588.796875 804.296875 C 560.277344 792.886719 543.164062 764.367188 554.574219 730.140625 L 782.742188 45.632812 C 794.148438 17.113281 822.671875 0 856.894531 11.410156 C 885.417969 22.816406 902.53125 51.339844 891.121094 85.5625 L 662.953125 770.070312 C 651.542969 792.886719 628.726562 810 605.910156 810 Z M 605.910156 810 " fill-opacity="1" fill-rule="nonzero"/></svg>