<svg xmlns="http://www.w3.org/2000/svg" xmlns:xlink="http://www.w3.org/1999/xlink" width="50" zoomAndPan="magnify" viewBox="0 0 37.5 37.499999" height="50" preserveAspectRatio="xMidYMid meet" version="1.0"><defs><clipPath id="8a6a9866dd"><path d="M 0 27 L 37 27 L 37 31.960938 L 0 31.960938 Z M 0 27 " clip-rule="nonzero"/></clipPath><clipPath id="39da782c7e"><path d="M 6 5.316406 L 33 5.316406 L 33 26 L 6 26 Z M 6 5.316406 " clip-rule="nonzero"/></clipPath></defs><g clip-path="url(#8a6a9866dd)"><path fill="#000000" d="M 36.957031 31.980469 C 36.148438 31.980469 35.375 31.796875 34.683594 31.476562 C 33.980469 31.152344 33.179688 30.957031 32.34375 30.957031 C 31.503906 30.957031 30.703125 31.152344 29.996094 31.476562 C 29.304688 31.796875 28.535156 31.980469 27.726562 31.980469 C 26.914062 31.980469 26.140625 31.796875 25.453125 31.476562 C 24.734375 31.152344 23.933594 30.957031 23.109375 30.957031 C 22.273438 30.957031 21.472656 31.152344 20.761719 31.476562 C 20.074219 31.796875 19.289062 31.980469 18.492188 31.980469 C 17.679688 31.980469 16.910156 31.796875 16.210938 31.476562 C 15.503906 31.152344 14.707031 30.957031 13.875 30.957031 C 13.039062 30.957031 12.238281 31.152344 11.53125 31.476562 C 10.84375 31.796875 10.058594 31.980469 9.25 31.980469 C 8.453125 31.980469 7.667969 31.796875 6.980469 31.476562 C 6.273438 31.152344 5.472656 30.957031 4.636719 30.957031 C 3.804688 30.957031 3.007812 31.152344 2.300781 31.476562 C 1.597656 31.796875 0.828125 31.980469 0.0195312 31.980469 L 0.0195312 28.53125 C 0.828125 28.53125 1.597656 28.34375 2.300781 28.039062 C 3.007812 27.707031 3.804688 27.507812 4.636719 27.507812 C 5.472656 27.507812 6.273438 27.707031 6.980469 28.039062 C 7.667969 28.34375 8.453125 28.53125 9.25 28.53125 C 10.058594 28.53125 10.84375 28.34375 11.53125 28.039062 C 12.238281 27.707031 13.039062 27.507812 13.875 27.507812 C 14.707031 27.507812 15.503906 27.707031 16.210938 28.039062 C 16.910156 28.34375 17.679688 28.53125 18.492188 28.53125 C 19.289062 28.53125 20.074219 28.34375 20.761719 28.039062 C 21.472656 27.707031 22.273438 27.507812 23.109375 27.507812 C 23.933594 27.507812 24.734375 27.707031 25.453125 28.039062 C 26.140625 28.34375 26.914062 28.53125 27.726562 28.53125 C 28.535156 28.53125 29.304688 28.34375 29.996094 28.039062 C 30.703125 27.707031 31.503906 27.507812 32.34375 27.507812 C 33.179688 27.507812 33.980469 27.707031 34.683594 28.039062 C 35.375 28.34375 36.148438 28.53125 36.957031 28.53125 Z M 36.957031 31.980469 " fill-opacity="1" fill-rule="nonzero"/></g><path fill="#000000" d="M 31.605469 22.230469 C 34.03125 22.230469 36 20.234375 36 17.78125 C 36 15.328125 34.03125 13.335938 31.605469 13.335938 C 29.175781 13.335938 27.210938 15.328125 27.210938 17.78125 C 27.210938 20.234375 29.003906 22.230469 31.605469 22.230469 Z M 31.605469 22.230469 " fill-opacity="1" fill-rule="nonzero"/><g clip-path="url(#39da782c7e)"><path fill="#000000" d="M 6.011719 24.734375 C 6.355469 24.816406 6.675781 24.933594 6.980469 25.074219 C 7.667969 25.390625 8.453125 25.578125 9.25 25.578125 C 10.058594 25.578125 10.84375 25.390625 11.53125 25.074219 C 12.238281 24.75 13.039062 24.546875 13.875 24.546875 C 14.707031 24.546875 15.503906 24.75 16.210938 25.074219 C 16.910156 25.390625 17.679688 25.578125 18.492188 25.578125 C 19.289062 25.578125 20.074219 25.390625 20.761719 25.074219 C 21.472656 24.75 22.273438 24.546875 23.109375 24.546875 C 23.933594 24.546875 24.734375 24.75 25.453125 25.074219 C 26.140625 25.390625 26.914062 25.578125 27.726562 25.578125 C 28.3125 25.578125 28.882812 25.476562 29.417969 25.304688 L 22.085938 11.9375 L 30.613281 10.363281 C 31.863281 10.121094 32.769531 9.128906 32.769531 7.855469 C 32.769531 6.453125 31.640625 5.328125 30.261719 5.328125 C 30.160156 5.328125 30.070312 5.328125 29.976562 5.335938 L 16.808594 7.761719 C 15.882812 7.976562 14.660156 9.34375 15.355469 11.023438 C 15.394531 11.117188 15.429688 11.203125 15.46875 11.292969 L 18.90625 17.566406 Z M 6.011719 24.734375 " fill-opacity="1" fill-rule="nonzero"/></g></svg>